<mxfile host="app.diagrams.net" modified="2024-07-18T10:45:59.569Z" agent="Mozilla/5.0 (Windows NT 10.0; Win64; x64) AppleWebKit/537.36 (KHTML, like Gecko) Chrome/126.0.0.0 Safari/537.36" etag="ZEZXsgH09E6VLkBWeHD5" version="24.6.5" type="device">
  <diagram name="ページ1" id="CD9wp58r2f9qKP6flfur">
    <mxGraphModel dx="1873" dy="1391" grid="1" gridSize="10" guides="1" tooltips="1" connect="1" arrows="1" fold="1" page="1" pageScale="1" pageWidth="827" pageHeight="1169" math="0" shadow="0">
      <root>
        <mxCell id="0" />
        <mxCell id="1" parent="0" />
        <mxCell id="AeMJ8kUrtGSWgBxTe7XQ-1" value="" style="shape=image;verticalLabelPosition=bottom;labelBackgroundColor=default;verticalAlign=top;aspect=fixed;imageAspect=0;image=data:image/png,iVBORw0KGgoAAAANSUhEUgAABDoAAASCCAYAAABTtIyhAAAAAXNSR0IArs4c6QAAAARnQU1BAACxjwv8YQUAAAAJcEhZcwAADsMAAA7DAcdvqGQAAP+lSURBVHhe7N0HYFRV2sbxZ0JN6E1ClyLSmyBFRQFFBdQVFBXssDZEvxVkUcEKyCLoImKFZdUVFQRUBBWUFVaMWOhNaYIgQVA6IZTMd987dyCE9GRCMvn/dq8z986dOzOZwpxnznmPAAAAAAAAwoXP/e/glX73FAAAAAAAIK8a2ch3Iuio8V439ywAAAAAAEBes/nGT9ygI8JbBwAAAAAAyPMIOgAAAAAAQNgg6AAAAAAAAGGDoAMAAAAAAIQNgg4AAAAAABA28uWsKxERESpSpIgKOKd2Xt7kMwCQHL/fr+PHj+vYsWM6cuSItxUAAABAbhKcdSXbgg4LDqIiI1WocGEVLFBABZwlvdwGhLMcdRoQh+LiFB8f712SvYoXL+7eR7uvAJAZ9nkV53xOHTh4UEePHvW2hpDfL7/zUe1zTi2Udf7rbvPZeW+b+0Ee3M/OAwAAAPlQtkwva1+0LTyoVKmSzqpQwT1fpHDhDIUcxva369n17Th2vBLOeTt+dihWrJgqO8csU7o0IQeALLHPK/usiq5YUeXKlg30CgsBN9AwwfDC+zy0/wY/G+30xKdk4vOOE9cHAAAA8plMf0O3L/sVzzrLDQ+sB0d2suOVdo5b0WlI2PCSrChVsqTKlimT4fAFANISFRXlfg5m5+dLMKBIHFpkRvD6BB4AAADIbzKVIhQqVEhnOV/u7TSUChUs6IYddpoZpUqVUsmSJb01AMh+Be1zKpvCDgslshpwJOUez4a4AAAAAPlEhoOOCJ9PFcqXz/ZeHCmxxkN55/YyOoylaNGiKlmihLcGAKHjfk6VK+etZUGIAgliDgAAAOQnGQ46ypUvn+PDQOwXUxsLn152/zKyPwBkVeHChVW6VClvLWOCQUR21SVKKnhcAg8AAADkBxkKOiIjI1X0DBXztNu2JT2sLkeoCgQCQEpKlCjhBrMZYr04cmhoicUdhB0AAAAId+lOA2zISmZ/rcwu6bl9CzhslhUAOBNsRpZ0s4DD+WwNVU+O5LhhBzU7AAAAEMbSHXQUKVo0479UZjO7fau9kRqbBSErihSNVJ1z6+mCizuqY+cu7nLhxZ1Ut14D57bT16MEQP4Vlc6eZ64cDDgSy8lgBQAAAMhpgW+7g1f6a7zXzT2bEpuiNTf0lDhw4IB279njrZ3urAoVVCQDw2vsl0370l8gooAaNmuh+o2aqEL5s9xtwV89jxyNlz/Br/3792vNymVasXSxEhKOn7guACS24/ffdeTIEW8tefbpcqY+PfjsAgAAQDjafOMn0shGvnT36Aj1VLLpZQX/UpOR+xn8sl+kSFF1vKKb23OjRPES2rhhnWK+nq/PZ32oz5zl99gdbqPFjt32og667MqrVKRw0VPCEAAISs/nUFZjhgYNGrhLZhByAAAAIJwFvu2mo0dH5UqVcny2leQcP35cv23f7q2drlrVqt651AVDDntMHTt3dYem7Ny5Q0u+/1brfl5rO7j7FS9RUl2vuU6RUVE6evRoYFvxktq04Wd9+fkn7v3h11EAie3du1f79u/31k6XHZ8Z7737rnt64003uaeZwWcXAABAaLU+/3z17t1bZ511lrclZevWr9fQoUO9tbzjs08/1T/+8Q/996uvvC0ps9EXk/71L/Vy/iahEOzRke6go2qVKrniC7F9Md+6bZu3drr0Bh1BTZq31EUdLtWu33foyzmz3VPLOAoVKqhGTVvo7Fp1VKp0GSUkJHjXCIQtJUuV1jcL5mn5kh+8renz4osvqkKFCt7aqVasWKERI0Z4a+n36KOPKjo6Wg888IC3JfSaNGmibt26qVatWieGNP3222+aOXOmvnJe4PY4Y2NjM/V40usmp4HXtm3bZB93KP7OdntXX321e4q8q1GjRu5r95///KcOHz7sbQ2wGkD/93//p08++UQrV670tmbcvn37tNdZUpIdw1ayJehwFmIOAACA0Khbt67b7hg+fHi6yitYKGJtmCF5LOy4+OKL9crLL6vf/ffrv//9r7f1dPY3+NfEiTrmtKdvu+02b2v2yvDQlcyEHPXr1/fOJS+ty5OTnWGLFR5t0Lipjh45oh8XxbghR0REAec25AYc7S7qoJKlS7vBht1ucLGZXQ4dPOBeN6MFSq1Rbg1lW3bu3Ok2uoProQwFspOFHPfdd58brsTExOi1117Tu06j648//lClSpW8vbLGAoUJEyZ4axkXDn9nhEbnzp3VtGlT/f3vfz+luLGdt212me0TSrklXCDkAAAACJ0yZcro2LFjWrJkib799tu0l0WLVOecc7xr5x3z58/XvU778KVx49zQIznBnhzWnr7rrru8raGT7qAjozp27KjHH39ct9xyi7flVLbdLr/ooou8LTmvWvWzVa58BW3busWty2F/dL8/0HMjurL1YJEKFCjojre3niSJJRw/rhIlSqpajbO9LflH3759dfDgQTdMmDhxotuD4+OPP3YDBAs8soP1EmGaYITCOOcDeNmyZapXr96JsCMYctg2u8z2AQAAAJA+Fnbc16+fXh4//rSwIxhymDvuvFPx8fHu+VAKWdBhQz0sHOjSpctpYYet23a7PPGQkJxWsVJlRfgitH3bthOzqAQDjV83/6IfFsVo2Y/faftvWxVRIMLt2WEBh4lw65X4VDG6srueXfr06aNXX33VDQzefPNNPfvss24PisSefPJJ9zLbxy5PrkCrDWexHhG2j53aekrGjBnjDvUIuuSSS9zr2WlS1tPCulPZEJW02P2y+xd8LAMGDPAuCbDLgo/D7qMd29h9DZ63y2zJbindtkn6HNh6cu6//353n8TXRe5ntXbsNR8MOwYPHuwuwZDDLgvW4wEAAACQPsmFHWci5DAhCzrsV/7XX3/dPW+hxo033uiet1NbN3b5woUL3fNngv3RrQfH/v17VbBgQbf3RgHn1EKMzZs2aNE3C7T4+2+17Mfv3VlWoooVc4uSRkZG6tDBg26/78JFTnZ9zyprULdv317ff/+9O8Ri0qRJbncn60ERZCGHDRmxy2yfXbt2qWbNmt6lAbZP9erV3V4Wts+XX36pc889N8Www0KLUqVKufua7t27u0M97DlMyuobWKHF5C5Lyu7X+vXr3ePaY2rZsuUpoYBN1xt8HFu3bj1xmfUMsftu7LLg/cpOKd22hTuXXnrpiefgs88+U+nSpd3LErP9W7Vq5b5+g/cVeUcw7Pjpp5/c94YtuTXksJlVrB5H0iUoucsyOxsLAAAAkBXBsMNqdlzeubNbk8M6DORkyGFCFnQYawz/y0tvrrnmGneoip0a256exnIo+XwROuI0alq1uUDX97pdPW++Qzf0vkPX9uytzl2vUfWatd39rEfH/C8/1+aNG7R1y2Z9F/O1Vq1YqkIFs3fKXWs4W8PLhoMY+/u89957bg8Ka1hbzw5rkNmLJ/i3s4aZhR1BifcJNsCt14E13G17cuxYy5cvdwt7WuM+Kioq1ToWNtVuelhx0uBjeemll9zhLuckGnNmtxF8HHaak0NVUrrtYI0R+3sZ+9vZ3zgxey569Ojh7mOPCwAAAEDm/LJpU4YX5G5u2GE1O5y2UvHixdX3r3/N0ZDDhDToMHPnztVbb73lng8WH7V1236mxR+Okz/BH6jDUaSI28OjsLMUL15C1WvUUsfLrlSVatXdfX9as1JzZn+kz2bO0LLF3ysyMkoFChZwnrBTZ23ICutVsSnJGzfYGLeGeMOGDd3z1vhOzIqABqW2T3JDXIKsMW+Xd+rUye0Bkh2s10Rihw4dcv/GQTb0w27Xhs3cfffd3tackdJt29/NAhobZmM9YJIbvmM9kiyQIuTIu6zujj3HFv7Zc2mLFSG1bXZZbrJ582Y9/cwzpy1B/R94wJ15JfGyevVq71IAAIDc7eyaNTO8IHezNp+NVtjy66/uD91t2rTxLsk5IQ86zKeffnoi7LBTW88NdsT+5vw3UJfDam9Yl5rgYrOqWMO/dt167r5WqNQ4e7vBSOUqVdz6Iju22zHCg/XUSKtXxY4dO9weJknrhmSUhQg2DMYaZF988UVIhqekJK3btsauDVmxIUJ33HHHaTU67O9kQ4OQNwVDDgs21q5dq5EjR7qLnc+NYYf1hLLXatIFAAAAyG2CNTkKFCjg/kBss7EkV6A01HIk6DAWbljtiNwSchgrOGq9Dmy62MRsvVDhIipYsJAiveljLQwJhh01a9VR5arV9ceunfp1yy/utuxgDZqk9TaCPQq2b9/uXm6S9jJI3Oi2/UzSxnu5cuVOXD851rgzVnMitRehDUWxhn5WgwkLEbZs2eIeL1hLJKek57atZ4fNKmO9O6zxm1hw2lsraIq8p3///idCjn/84x86fPiwu9j5YNhh+4TSqXM4nTm55X4AAAAg7wuGHCZYkyO5AqU5IceCDmPdw3OTw4fjtHrFMkUVK35ilhhLng4ePKCvvvxMM2dM0eLvF53szeFcXv6sijqvdVsVKlzYva4Nf8kuMTExblf6YA8CCzSseKv93WwIizXKd+7c6W6zy6xXhfVOsEKqQbaf7W8vomCBTWvIW/0PO35ygsey3g02HMOOl1LhUmO9HSpXruwO/bBj23Xt1K6T3sDCCj5a+GLXtdu3+iCJBYfepPd4GZHabdvtBUMfu9x69SQNiKyeidVOsb8BYUfeM2fOHLfwaDDkCAqGHXaZ7QMAAAAgfZILOYIShx3tkrT7QiXdQYcN58gNsut+BKeRXbV8sTau+0klSpSSPyHB7c0R7zR4Nm9cr183b9LO32NP7HvOufXVsXMXla9QUT+vWe1cd4m7PXh5VlkPAytwaQ1va+jbsAnreWA9YYKsN4E1vK2uRLBBvnHjRvc0yPaPjY11C2bacazuxoIFC04UBk3KZlmxngvB4qXBWVosBEiOHXPatGnu+SuuuEKPPPKIe1qiRAmtWrXK3Z4We7FbTRK77s033+yGLEnZzC8W1tgUr9kptdu2HjE2jsweo/19rfdKMHRJzAIl+xtY2BF8HpA3rFy50h2qkjjkCLJtdpntE1LZ9JmRZbnlfgAAAIQh+7n8t23bAivpYOHA77//7q3lHamFHEHBsOO1117LkbAj0FVh8Ep/jfe6uWdTUvGss1ItZplTrOG5I5Unv1rVqt65tFlAYb01bOrYSy67QjXr1FXcoYPuE7Nx/c/6c5fdjk+lypRVxehKqlylqjud7Lqf1mjBl587+x0+cQzkPOt9YaGQDTEBcpN9+/Zpr7OEUnAK2XXr1uW6KXEBAAAQ8O7kye6PqfYDaVqsZ/3o0aP17aJF3pa8wX6YLuTc9/RMIWs/wr84dqwaNmrkbclem2/8RBrZyGuhpyPoKFumTI5O/5kS683w5+7d3trpMhJ0mGBQERFRQI2btVD9Rk1UslTpQKjj/dhpl9t+O3f9rjUrl2vV0sU6nnCckOMMI+hAbpWuoMP5/HA+QLyVnMVnFwAAQM5J76wju512bm4r95DXZDjoiIyMVPly5by1M2fXH38oLi7luhgZDTqSKlo0UtXOrqmzKlZyu+AY67lhM7T8unlzttbkQNYQdCC3yokeHQAAAABOleGgw379qxQd7RbrPFOsPsdv3qwiKclq0AEAWWUhh4UdaTlTPSvo0QEAAIBwFAw60l2M1L4Y79u/31s7M9L6hTTpNLEAcCakN0Q4U2EDIQcAAADCWYaSgQMHDqRZXCRUbLhK0mk+kyLoAJAbFMxgz7ecmvuEOVYAAACQH2Q4GbAaGceOHfPWcoYNWfnjzz+9tZSdyWE1ABCU0dDV+ldYCGE950IheFz6cQAAACA/yHDQkZCQ4IYddpoT7HZ27tqVrgZA4UKFvHMAcOZkZipuCyFCMaTE/exkqAoAAADykUyN9Th69KhbFDS12U+yw6FDh9zbsdtLD5sZBgDONOvREZy1KaMsmMiO3h3u9b1jEHMAAAAgP8l0UQv7Em09O6y3RXqDiPSyoTG/79zpDldJ75f9rDQsACC7RWUyeLVeHW4wkcVeGMFjUHgUAAAA+U2mg46gw4cPK3bHDjeYcIuVHjni1tTICNvfrmfXt+Nsj43NcNHTkiVKeOcA4MyLiorKUt2gxPGEG/d6oa/9NxgA2+mJKDjxeUPAAQAAgHwq8E148Ep/jfe6uWfzooIFC6pSdLS3BgC5g80U9efu3d4aAAAAgFDafOMn0shGviz36DjTrFt2+XLlvDUAyD2KFSvm9uwAAAAAkHPyfNBRoXx5FWK2FQC5VLmyZakfBAAAAOSgPB10lCtXjgYEgFzPep0V5bMKAAAAyBF5MuiwGVYqnnVWpmc1AICcZJ9ZFSpUoGgyAAAAkAPyXNBRLCrKDTkKFy7sbQGAvKFUqVI6q0IFt4AyAAAAgNDIE0GH1eAoXry4O7NK2bJlaSQAyLNsuJ19llnoQWALAAAAZL9cGXRERkaqZMmSbhG/ypUqKbpiRZUpXZqAA0DYsGEs1jutSuXKbg2PUs5nnn32AQAAAMgan/vfwSv9Nd7r5p5NqmjRoipSuLDbq8J+fSxQoIB3CQAAAAAAQOgdPXZMR44c0VFniXcWO5/U5hs/kUY28qXYo8N6T5x11lnu9K3Wu8J+aSTkAAAAAAAAOa1QwYJuzc7SpUu7PaPLlCkjny/QdyOpZIOO4sWKuVe0nhwAAAAAAAC5ieUWVuaicKFC3paTTgs6ijk7WzJi0yECAAAAAADkRjYSpWLFiqfV8zwlzbALregnAAAAAABAXmATmSR2StBhF6Y0xgUAAAAAACC3sYlTrLZo0Imgo0iRIu6FAAAAAAAAeUmJ4sW9c4mCDkIOAAAAAACQFyWuMxoYpzJ4pb/F3NsUFRnprgK5wfHjx3X06FEdO3ZMCQkJ7rotAAAAAJJXoEABt8Fnp1aDsVChQu555B1+vz/DJSUyc51w9PWFr0ojG/lODl2hRwdyAQs29u/frz/++EO7d+/WgQMHdPjwYR05coSQAwAAAEhD8MdC+w5t36XtO7V9t7bv2LYduV9mAgtCjlOdCDpI+XAm2Qfy3r173SU+Pt5NJAEAAABknX23tu/Y9l173759/ICYy9jzk93tn1AcMy85OYgFOANsSEowaSZhBgAAAELLekoHe07bd3GcOcEgwnpjZHePjODx8mvYQdCBM8Y+WC1Rtm51AAAAAHKOfQe34SyEHWdOqIebhCJAySsIOnBGWHe5PXv2uIVGAQAAAOQ861Ftw1kYypKzzkQvi/zWs4OgAznOPlAt5EhPemwJpFWKjoyMVLFixVSiRIkTS1RUlIoUKXLKNEI5LT+PewMAAMjPwuV7ID9A5ix73ZyJXhZ2m/mp7ULQgRxlby4bD5jWm8yK41qYUbZsWZUqVcoNOSzssGAjuFjQEdyndOnS7uWhlNx9zq9dwQAAAPK7pN8D83IjMvgdnWEsoZWXXyN5TeDdOXil/8Kv73HPAqFkXeNSKzpq/2BYgFG0aNFMhQiWRNuHNIk0AAAAcpo1ZPPyD2HWk9p+ZERopO/1YWFIYJ8SxQqpftXCqlZaqlq2gMoXc7YV8enAEb/iIiK1dX+ENmzepxVr92jv8ULudZwbsUZV4Hw+9PWFr0ojG3l/AYIO5IDgXN4psTe9fbAWLFjQ25I59gFy8ODBbCtymtf/wQIAAADSq3jx4u6PjjgTAiFH8aiCuuLiarq6Y3WVTdirfdt2KO7IcR07dlwJCX6dVaOizqpTXSp4RBu3ltXMg220bu5HWhfzPx06Zu2Wk2FJcsK5fRMMOhi6ghwRDB9SYkNVbPhJVkMOY29a+4C2niF2u1lByAEAAID8xL6zZ/U7dHapVauW/u///k9PPfWU/vKXv2RLW+FMSM/fM9Dk8KlezZJ6Y/hFerBvY9WsFCm/r6D2xUtHjh6XjsWrTJkiKl+1nHPQo/pte3HNiLxR8Y3bqH7/Z3Xr7d1Us7T1bPc5/0v5Nq19k1ue41Ah6ECOOHToUKpvppIlS7phR3ayoCMrdTsIOQAAAJBZ2d2QrFu3rncutOx+23f3M816ldx5552qUqWK+73+ggsu0CWXXOJdmrPKly/vhi52mlHpaVNYKGEvlxbnFNc//tZcVc+K0m87ymnp8Ut1pFBllSkiFVRhHSvXTHurXq11EZfo5/2N9HmBLjpUKlr+3fu058hx7W51q/pedY4aV3Fu1+3RkX/DjsBfnKErCCGrl2GVnFNiw1VsPGBabHaVihUruoVJt23bpri4OO+SlNmb1247M1NmpedDCQAAAEhJdn2fbNq0qa699lo9+eST3pbQs4L/OTW7oYUZ9evXP+X2rI1w/vnne2sBv//+u5YtW+atBfzxxx9avnx5qnUAs6pSpUruD6jW/ti+fbu3NX3Sfg1Y2OBT1fIF9Y+766h67arad6iEvojoqlX+aJXYvkwNjqzWn9Uu0K5StXW4QFFn7wgdPbhXxwoVVqECzrEjfPIdP6b4iCg1Xvu2qm94UyM/P6rtu51jW5iRwu2Hur1jPfZ79uyps846S1988YW+/fZb75LQOWM1Oqy70aWXXuo+0LxSMNKe/Bo1auiXX37xtuReFgScc845qlChgsqVK6fdu3dr8+bNWrly5YmaFb1793Z7ULzyyivueqhZ97eUQglLZ21JjX3ode7cWc2aNTtlvODWrVvdN8vs2bNTDT0s5LC/Q0bYm94QdAAAACCzsqshOXDgQDVs2FDDhg3Thg0bvK2hZQ17+4Ex1M4991z17dvXW8sca6eNHz/eW8t+IQ06nMsLFfLp6Vsqq1n9s1S4SHGt8rXWK9sbat+evSoZWVRV6tVR4ZJF5T8SL58S5HPaN76IAipYNFJKOK6E+HipQEH5nbZ2wqaV6rB0lLbvOqwXv/pdR48nnLGg44orrlCnTp3c8xZEPf744yHPAIJBR2CswIX3PVl9yyfu2VCykOP2229Xq1atVLhwYf3888/eJblb7dq1Vb16dXcqU0sRcyP729q4tRtuuEH16tVTtWrV3K5VVatWVaNGjXTRRRe5Q0PsQ6BLly6qXLmy5s6d6107tFKaTtbeVBa4pPTmsg+TBx54QL169XIfR9IxeXbdBg0auG8e+8D57bffvEtOFUyGM5ry+rqP0Yxx96rVgfc1Z623MQcNnDhXT11TUW9//I27fu3oGRp3bysdeH+OzsDdQRrOf2i8ht1cT9tnx2ibtw0AACCrDUlrZN90003uefvR74cffnDPh5pNNZuVYeDp1bx5c9WpU0erVq1ye2ts3LgxQ4v1BilTpoz7Q3qoWDvQeqAHZ3jMqFRfA85lV7Qorm6ty+mQ01wpGlVGn+xtrJ/2FlaR44dVJrqcypaNUsLhOBWy3h/O/wtHFlcB58z+n5Yrdv4X2vnjIu3dslU79x7VriNRitr2k+oU3Kddccf1277Ug4VQBh023Mfa0sZeT//9739DPoXxlurdpK9ffirHanRYY/OOO+5wE7stW7Zozpw53iW5n4UD+/btc3tING7c2Nuae1iAYSlo27Zt3XX7gHjjjTf0j3/8Qy+88II+++wzN3287LLLdNddd6VrmEh2sd4UKb2YrSdHSm8s+xC3rnkWitkx5s+fr0cffdT9kLfFArOJEye6wZMVHh0wYIA6dOjgXft0RYoUSTZsQTaodZn6j/inXp80SZNsGT9CD3U5V0n/WSx5SR+N+Ke3j7P886lb1TzpTuk6Vkld0meE/hncZ9I/9dStzU+7vcTOvec5TXp9iK4L/b/VAAAA2cp+FQ9q2bKl26jPCfYdPjPDvzMq+KOk9UC3NmJGF6snkt21/rJLenpMlC4Woc7Niyv+aIIKyq/d8UW06XApRRyJ0zGnGfX773u1YskGHd5/yO3RUTQyUgc3rNLPUydpw8wpOrZplYru266En76Vb+lcHdgXpyPVaqn6uX5d076kSkal3OQPZchhrA23ZMkSN5D697//naMjOnIk6LAXb58+fdwCOhZyvP7664q37jV5hL3BbdyXhR02Vi23hR1XXXWVm5Rt2rRJzz//vP7zn/+4vWV27drl9nL48ssvNXr0aPcFZqmaJZI5JaXn2d70qU1bde+997q9aGzM3WOPPaZXX33VfXxBdlxLbR966CF9/vnn7jYLe+zxJcc+/KwXEdLvkoGvaMb7I3Stt56syMv09wG91KL8Ua2d+qJGvjhZX+8qpcbXD9Dgm6K9nZzdLnhIT992oUrt/VqTXxypCXM2SNU76IGn++jEM5auY0Xqgoee1m0XltLeryfrxZETFDjUA3q6T/LPvdRIneuV16ENX+sDG+F07k0a8s/n1P/UIZ8AAADZzhqSWfmxzX7Qa9eunXvehmJbuyo4FCAn5KU2W26UniDh3CqFVaVcEXf62AJK0IGIMvpz++/yH41XoZJl3B4cRSOLOK+Fou62LR+9o41T/6WSa79Xq13r9EDfm/X0Yw+radNG0p/b5Pvpf/ppV2Ed8pVWXefY51Qu4t1SzrPXz+TJk92SCTk9miPkQUdeDzmCcmvYYUNQrAKx1auwv23SMWPW3cxCENsvJiYmx3s1pJTaWeiQ0hvfev1Y4aEjR45o5MiRbo2RoOuvv14vv/yyW9jG2PNi6eDChQvd15rVH0mJ9epIr1Cnm3lBmehoFU8rHOrQWrWjLJh4XM/PXqKflszVxCde0eK9hVS9cWevl0W0ru/aWKX2LtYrT0zU3CU/aeG7wzRyzhYdLd9C1weLZ6fnWNHXq2vjUtq7+BU9MXGulvy0UO8OG6k5W46qfIvrlWwd7ku6ql6pvVo766vAeqlKqlQqSjnXrwkAAORnWfleabOM2PBtK8RvDUbTsWPH04Z0h0pO/gJv7auMfF/PC9LT9mp0dlEVKBjhFhi1vRP8kdr/33dVYOU8adc2Ke6Aih49oD++/1q/vPcv/f5DjFq3bKFbruiopht+1PFVi93CrU3q1dXubVtUKO4P7Yz9Uwt+LqCoggXUsnbqXZpzun2YU0IadIRLyBGUG8OO9u3bu6c2PCW5DyILOO655x53sRAgpxvwKb1xUuteZoVHzUcffeQGOElZTxB7bSX25ptvuq8tq9lh9TySk5NDdvKXozp6KHEx2F3u+EIFa6JEd1XjSs7WFVO1MrDFFfvhWm1XlKq3uMDbYlI/VnTXxqrkbFsx9ZQj6cO126Wo6jrlUK5IXXdhbUVtX6xTrgIAAJALWGBhw1Gsl0aPHj3cHso2JPuZZ57RuHHj3G3GaustXrzYnU3Qfsi0H/6ee+45d2h3v379dPPNN6tr16668MIL3ZoV2SUnGsH79+9321n2Pd6G2Wc2xMmpIT0ZkZ6219kVCjlfdROUcPyYIosV16ofl6hR7eqqU6qgCvw4W1HLPlPcVzO069sF0pFjKlQ0Uu2aNdTcpcu1M8GnuJ9WBkoFHD+qI+7f0q9ihY4rZlsxvf5tKRXwpdyL3oTrD7whCzqsIWo1OSzksIItNszAGqDWuyCt5UyxXgJpLTbsw3oYWGFLCzus0OeZZIV77L6sW7fO23KqP//80/1gTG7JCfahlZykQUViLVq0cE8XLHDezElMnTrVnU/bHldi9gFp479M8PpJZc/YvZa64cmJmjHr5N9x1oyJGnHvJaro7RFUu+ujeuX9GSf/5rNmaOKjgT4HTa590r1sVvCyuTP09uh7naOnwyUP6sX3Z5047oyJj6prkhtvecOTmjjj5D7ubY+4V5ecsl9L3Tsi8WOZpRmvDNQl147WDGf9vqbFpeJNdZ972QyNvlaKvukpvT7pdQ3p4iXDs+doxd4oNb7+7+pyrrMtMloX9HlArcvv1Yo5H8qNLFpUUikd0va1se5VTojboL2HpKhS1QPr6ThWi0qlpEPbdfqh9jq3EKXgoU6Ivl4tnI+UDYunKlbn66HxkzTp3sbOns7t3Buo8TH+ocAYlugL+mjIc+NP1geZNF4jHrrs5NAaR2TzW919Apc7y/jn1D+l6dwjm6vPiNed/f6p/heknqQDAID8yX6otIb9jTfeqG7durk9ta19Ye0mG7ZirNae9cy2xuy8efPcbfYDnk08YLMtBoOS6667zv0RdO/eve4+2SGl7/LZyR6bzSZjw+xt6Lo9nsyw0McmMUitnZHT0hMUlS9ZUMcS/CoWGaG9+/xatOx3/bV/f11Ut4p88QdV2GnDFPD5VSiymKzyYeEiRbTutdH6/rPZKui0Tf2FAz8Cr165Wv4CBe1JU8TRI87+RbT+UBnN++3kcPLkhDLMsvazhVdDhgxRmzZtvK05I2Szrtx6661uKmdsmIJV07UXbXoWa3SdCa1bt1Z0dHSai03hGmw0W0FN+xDauXOnu57TrrzySnf61uRCAWNTytoUVMktOcHuW3KsV0Zyaa1NYdW9e3e3qNB7773nbT3JPsBtWbNmzWnHtufG/mGw4TtLly71tp7Kjptu9TvrxlZltfv74KwrLTVw4lPq2bi4/vz5C733+vv69Oc4RZ/dWE1bXaCWFX/Wx98EZn6peO1ovdi/jcrGbdG3H72ltz9aqX3FK6ti4V/18Zdr1e7WPmqlDVo4Z6re/+hb/RZZVy1atFLTass043873GO0u+ZW1XH2Cc66Ur/zjWpVtrhqt3da7ss+0qS3v9XeCmerTp0GalX/iCZ/usrdr+XAiXqqZ2MV//NnffHe63r/058VF322GjdtpQtaVtTPzvHsXl47erxubRGp2AVv6aXJn+rnuGidXT1Sv0x8S3PW/KDdFVqofuQGTX/udU3/3//07ZJfdbBmB3WoXUJ7V3+mBeusB9E2fffNIdXr3EEXd+iqv3S9VC2qF9W2OSP17Ow/3Pujlp3UvXYhbfv6M313SkCxTWe3/otqlz/kzVSS9rFaduqu2oW26evPvtOphzpbrf9SW+UPbdfsmJNznjS64w51Lr9dMS/O0+pjf2rT2hX64ffyatEwShumjtGEmV/r6x/WafeBY2rwl+vVQusU89l0TZ21SFsK1VarFu1Ur9QifbnsgKU8GjroUlWNX6vpEyZp5qItUvXGqhQ/W1+tlKq07eo8P7v1g/tYaummoX9Th6qHtGLCIxq7MHEvFQAAgJOsB/Pq1avdH+uCNeW++uorvfbaa5o5c6Y+/PDDEz23rc6B1aezy+37btOmTU9cx9oDNsVqdvegt/ZOqNmQdRsBYEGPtbOs90p62eySwdlhbIYaawtk90yZWZl1Ja0eE12aFVPRAj7tiCuj8XMO6vCxImp2TnVt+HCq4vcf0J4yFRVxPEF+p+nu8ycoPiJC1bauVY34/WpywUU6u+dtWr/jd73977dVoGAhFTi7kSJ1RP5jR1Q4wi9fwcLasdX53pqCUPbosGFW5513ntv2s1DOipPm+VlXvv322xMJoDUug9P/pGc5U6wrWHqX4FSl9hgzOpdydrIPhYwU2bS0z4aGpDZDSXZK6Y2TUtIaHJeX0nhAS7fr16+f7GMOhhihGttX8cE+urx6YcX+9wnd8sBove/8A/PV+6P1wC1PaGFsYVXvcKtucPe8QY/1barif36vlx+4V09OnOX8Y/S+xj7aR30eneHuMePRW3TDvY9qtHvZLE18dKKW/em0pWsHhu2kqHhZ/TnnHvV5cqJmOccc/cBwfe+0+AtXaxUoGlrxQfW5vLoKx/5XT9zygEa/79xHd79b9MTCWBWu3kG3Bu6kapcpLv25TK+MeN/9x/L90Q/oloHP6Zsdy/WNsx57xPY6olh7nF99o+U7pNh3n9Bdd9ylYbO9hnvkBXro6V6qpy3674SRGmnFQdfuVaXOQ/XUTYn7QuzVrkCHm5Sl91h7dymtQwWcr871Sp0sQqo4xW78ST/tCrx3j+5yzv/0kzbGBh7Ld+Me1cPDXtW7c5c425do7qtvavEu5x/M2t57pXollS90VBvmPK/ZS5zrujVEBmrkh4GLT6qly/7+gDpXP6QVbz6u5wk5AABAGuxHyCeeeOLEsG2rzWE162zIfNKGof2QaW677Tb3B1drj1j9DuttGupGZCjZYzUlS5Z0TzPLehHkJRWaddC2Ehdo4o9l9euOOB3cu1vfT3hF3/9vocoXi9Rx63DhPK/HDx90GklHVbBAYa0qXV0tGjfSpiIl9cGCGD0/6p86HndQ/rNqKqJ2M/mPxKlgwQLyOfsed66TmlD26LACukEWEOVED6GgkAUd1oCw6T/twViCY8GHVVtNz3Km2LSs6VmsGJAljfZBYtMgJR1GkZNsVhJLWdP7hrbuYDbNbLNmzbwtoZVS0JHSi9yGoBj7gMtoTQ3rvmeys7teYt1q27iI9fpmRNK5y3/QK2vctEGtujqr17ZStcLOnt+M1axA54xk1FbXB0foRec98v6MWZo16zG1KutdlKot2jA28UGXa9mOA1LxMs4RHd1qy72X34xw7tWpfnhljWJVWNXcO+n8g7rbuV7ZVnr4xYG6tok3pmXHDqV4l5NxyQO91LjULn095gm9tdCCg4V69x+P60N3JpReiaZzjVJUSr3mjh6Vffym+1jO6z3lQyX6IL+kg2pHJSpCmqaSOr/LPfr7UyP03PjX9frrg9U68JIK2LJdu44WUr2/PKU+lzVy9jZxikuSY9R76AH1qietnfyinv8q8A82AABAWqxNYUM4gsOxr732WncoRlLWu/zxxx93T+2HPpt1MVQ94nOyfkOw/mFWesrbj6XW8zsv+XrtAU1fdEARhQqqWIFj2rVnr35fu0rn1autiOgqOvLHDvmKFVfppuepULny8h3Yq53Fz9LoPYX07yXrNfPjz3R49y75S1ZQRMsu8pWqpN2H/dq/cbWOxx3Q0bgM9GjPZjYsyeou2mva6srkRM2XoJAOYLK6ERZ22AOycWdNmjTxLsm7rDFtPQrMihUr3N4dZ1Jwmh7rFpQewYAjp6b3SakuRkppszVUg0l2w4YN3dP0Cj629evXu6fZrUyxwtKBg6cOmfDsOOJ2f5Cso0ntMiquAzq4JaXI4FqNeP9V/V+3pqqog9rw/ULNeWu4FiZ34KQO7Faqg47KFHPugnPbyd9JBe5loDfMjIHDNcF6edS/XPeN+Y9mvT1a955axCMNzdW4UpS0a61mndIRK06zN2yXClVXvRMdh5Kpn+Fcv3wp58TtoZGBY0WVcsOcUzQvr8Chgn09MlqE9Hz1/+dY3Xt9Y5UvtFcbFn2tD98cqa8Td9aKfVcjX5mltXvL68JeAzR20j/11K3ne4GHp1A9XdjYuSd2u3PPXO80AACQN9mwkxdffPHEMGwLM5Ky3svBXg8jRoxwh72ESvbUuEvdWWedpauuusodnm5++CHpz3XpY9cbO3asdu3a5W3JG6bN/knHjxzV0d2/K273H/L7CuqP0hVVpnIVfb9zvwpUraFqt9yts67qoWq9/qqy51+gI3t26vihAyoa4VexYkV1rGpDRVx6hwqUOkv+48fkr9FEe7b+ot2rf9DOdWe2Iv/XX3/t9jjK6XZzyCu1JA47LJHMy2FHbgs5zDfffOOGA23btk1zFhj729u4N+vuZtOx5oSUUuCUhqaY//3vf+6p1epIb4pstV2st4oVa7JeN8k55df+TDhoKUHxYsn2JqjoDqU5oiPWOyuwo4ql1O3g3s5qVfaI1k+/Uzf0eUCPOv9AjX0/m3oFpXbbFQu7EccR906aH/T+k3107WX36Ln3Fiq2eFN1f/hJ3ZvurKOQUu9041xu6cPi7dqlKJWvl6QgZ2Q9N+jYtd3GYKbvWIu3O/9wRZXX6YeyoGOX5QsBpxQhTYcundW41FGtnTxQDz/6D7361luavXCv3ewp4pZ8oH882k/3PWLDao6qUod7NfSeRAWJj67VVJs2t1IHPfDQJaeGIAAAAOkUrDmxdq1bKM6dBKFVq1bu+V9//dX9zmuC+4VKTvTosB8rrYiqDW23Nkpme2S8//77io1N1ze/XGXfzljt+nmZfv9puY4fP+YWG13vL6TXVm3WoXrtVaxDb8Xtj9PxQ0dVoFQJRV/zF5W+ob98F96ohNbd5e94pwp3ukUFS5VXwrGjSkg4rgJlqyqheGnFO8c7eDTnhovkJiEPOkww7DB5NezIjSGHsbFslpBZDwmbVuriiy8+LXm1op/2wXjTTTe5++VkopbS9FBWWySlrktz5sxxh7BYwRqbEjcxGwI1bdq0E2P4jCXdd999t3v+448/do+dnJS2p9f0tdZTpI7aPZq0EnRL3Vs/Wvpzg76yURLT18rds92jyc+iYj1DdEQHYxP1+GjZXbVTCkYyIpXbbnlvfUXrT21w72RiGzRn4pPqs3CLVDhatdt5m9O0Qlu2H3XeHPXUNXE5DudWbqpXyTndrg3/dU5++lpb9kqVGvc6ZQaTWr1aqLp2acPXPzlr6TvWT19v0V5VUuNepxxJvVpUl3ZtkHsoR6PrW6jSIWc9UJwjeYlDjFKFnNWjOro30f61uqpe4qEricTF2rCaqVp7yLnLlU4NGPe+O1Jj/rtFUY1v09MPXaDQfv0AAADhxhr8NWvWdM9bqHHDDTdo5MiRuu+++/TUU0+5vZ6tTIA599xz3dNQyexUr5lh3+Ot8Gp+c2DfXu3duUMFCjptuAIFVbBJJ3f2lELVG6pI5XO0L/Z3rd+8RxuX/aQNMz7Ud3+7V7/+52X56jRXgbrnq0D5qtLxI27I4Y9wjpFw3DlOIfmKl9OR434d8efc8KPk2GsoWGIgJwVaxCGYdSUpG3Nm07JaNWHreWCVcHfsyEg1gDMnt4YcQfa3tCrFVnXZ7qdVHq5Vq5YqV67sTjX1l7/8xQ2XbAzfO++8k6Pj1uyDOlgwKSkrKJpcdzjr7fHbb7+pXbt27vTE1apVc3tp2PZgVepgNWmr4jt48GB3thYr4vTGG28kOyzGQhUrgJOhcWFJZl05uGiHKl7SXs2adVDnVpVVOK6wKrS+Tg8NvkMtouO0bNJQvbL2oO2oHRUvUftmzdShcytVLhynwhVa67r7H1KfSwro40Wl1O2CmqpSu6kqxB1R+fa3a3Df+ip1JNI55slZVpKfdWW3vn9/jgLZfoC73bn9DW9/rG9Suu2HBuuOFtGKWzZJQ19ZK5uvZuDEGerTJlqRxyNVoWEn3XVpK1UpvE3fvDRLPzg7RF/SXe1rVlG12sd1pOn1uqb8V9rY8ik9P6CXmh79QgvWxWn1n1V0Ybu6qtfuQtWzqcvPaq2ut92ii6sX1d4V7+vFub/qmJzXZ5kWuth537duUV5H9x5ye0Lc2aGq4ldM1piPbJ9j6TvW71tUpsXFzmdIa7Uof1R7D1VSh3vvVIeq8VoxeYw++tV6Cl2iO25rragts/Tywl+c9SSKN1WHC2uqaqXyzudSJXXuUFxLVpRXh3bVValmbR3f9aeKN/6L7r2zsaKOFlXRQxv0kU2rcn5/Pfd/HVRJh3S4UCnV63y12tUrqwNrP9TcH35PNOvK/7R82SL9WftCtWvcThfW3qX5MfYYAQAA0la7du0TEwfYzJX2/T74nblUqVLud2Q7tXp29kPeokWL3MtCwYqdpjSJQHaxx2uLDdexNkBGBWddCeXMnVmZdcWk2jPGuczvi1CxyKKKcNoxxZpcpKPNu6rQ2Q3lKxKpYzu2qMBn/1L8+2N19Itpal4wUk39x7SreBnFlT5LvqOHnes7rw/nefI5TR1fwjFFFS+mgpt/1O/btymhQMrdpq1tFMpeO9bjfsCAAe6P8dYradWqwCyRoRScdSXHgg4TDDusQW4v5LwyfsreOBZ2WOHR3BZyBFlRUivyYuP1ypQp406tdPbZZ7vn7c1oUzS9+eabOT5DTDDoSClgSGmGFLuf9pjsw92CDvsAs+lj7UPQpi22aWSvueYat0iTfehYyDFq1KgT3fiSsg+llAKX5Lhv+vqXJ5le9jd9s+g3Fa9W2/kH5zy16dBe7VvUUeSRTVr42pMa+vGv7nXNb98s0m/Fbb+6atamg9q3b6HqxeP066JPNOeDLxVXraWaNjhXjdq0V5u6hfXLp89rTZlLTwk2MhV0OOuB266m2s4/iud5t10n8og2LXxNTw79WMF7Wa1Nd7Vq1VRt2juPo00jlbLHMeFJvbAkMG3vLyuPq367Fjq3QSv3Pu74coZ+KJFketnff9DXa4+qet2Gati4hVo0rq2qVuPi6zc18tVv3UDFHFi5SD8Xqq3GDVuo9YUXqkXtAtq9eLpeGfuVTpSbStexDmjlop9VqHZjNWzRWhde2EK1C+zW4umvaOxX3pEuu0G3tSik1W++qu+Sm1nsj1U6VKmFGtZrqNatG6rQ9v/qy8//qx2lnGM2rKsWrS9U69qFtOXDV7S2/MWq7TwHbtDhPJ+tWzv3q1U753adx1DdeQzLpuv1l7+VDQY6dXrZY/o15hvtrd1OrS3sqL5L878j7AAAIL/JTEOyTZs2J2rV2fdc+y4/ZcoUd6lSpYrbLgkW7bfAY/bs2e757Gbf4+3HxFALBh3WCA63oCP43Kf2GrDXyHFnKViosEpXqaqL65Zw2grNtNdpuhSI8MknvxLee04l9v+hthd3V6XosxXlbD1crLh2VKqjgsePu8f3JxxXwQJ+HS5YUp1LbpR/zVyt2+VcZjeSyu2HMuiw2YPsB3hjP8LbFMihnnklGHQEHtXglf4Lv77HPZsT7IWYUoM0t7IuN/bCzissfbWQw6oWZ6SBHwr2YZDcfbA3td3H1LrEWbc9G5Jj4UZy7LhWyfeTTz5J8fmx27GZWDLy/GXmHyXkBpG6bshYdY36Wo88+lb66nMAAACESGa+U/7tb39ze2Nbg/Crr77SjBkzdPBg8OejQC8PG84SLFRqM7DYEJfsZm22nAg67Nf+bt26ub3UM9NbwnoN2Pf8oUOHeluyn/2IHGzDZvSH47ReA8HLrdfOOe3a6vZqfu05q54WVr5cP2/cociSJRT/wxxV/vg1XXheZyX4j+qippU0o0g1zSnVRCV03J2CtkjxKBWNLKZm8UvU8o8P9NwHG7Rtd4LdQIpBR6jbPFZH0uouGptq9tlnn3VvM5S+vvBVaWQj71HlcNCB/MU+pBPPoZyYJaOWRKelatWq7rAn691hiapN8Wu1X6wXS3AYS0psyI4tGRHqNz1CJPpWjXj2Qh2a9aCGpVafAwAAIBey7582Daf1gv/3v/+dYnFNaxRffvnlbkBg9eu+/PJL75LsYz9IJjfMPLtZmHLPPfe4vbczy/4GVssvVEIZdLi8MKJSpQrq07CcyhY8qrgm7bW+agct2u7TnmNS5Ly31XXrz7qsy/mKjJIGHqin38vWUJGjcYosWlDVihxS2+NLVfPgN3p+5hYt++VIqiGHyYk2j/VQslEH3333XY6MjiDoQI6y4qIpBRJRUVHuEgo2btF6c2TmDUzYAQAAgMzKzHfJ0qVLuz2a7ce89LAfDK2Af2anZE2JDS+3HxcRYG0V+3tYmyajP6CajLwWKhYrqN5tqqp0g/O1q3gVxcfF6seExtrkP0tnr43RbWcd0nx/Rc0vXV/F4nZIEQUUUbyszjnwrRrunKsPv/1Dm36Pd4e8OLfqHfV04drWIehAjkqtV4exJNdS0uxkRUntNu1NDAAAAOSkvNyQtMKRoS5Cmt+k5/UQ3KdIIZ9KnXe5dE47XVIwRk18q7T+2NnaHFFD+/Yfd9pNEYqK/0M/lWirAmVrKG7nFh1aPk9//vhfFXCfNmv/hF+IkR4EHchxKdXqCLLk2AKP7PhQtZ4clrhmNeTIy/9AAQAA4MzIy98hc6o2B1JyMqSIKFZakVXPVfuKsWoafUCFnWZS4aKFdfTgIc0+1kE/x1fRsQ3fK+6XVUqID9Rxya89OYIIOpDj7E2VVlFQCzlsDFdm5+y22wjW5MiuNzBhBwAAAPID+w5uw2H47hs6Z7JtYbdt8kPQQX8k5Bh7Q1mIkVpRo+BwE+uNcfToUW9r2ux6Fm7Yda1IUHa+eYPHCn4wAAAAAMnJy98X7QdHQo7wl1+eX4IO5Cj7ALVCPqm9wewyK1xqvT+CwUVK/2hY7xAbEvPnn3+6QYcFHgAAAEBOSfw9Na82Iu1+E3LkDPsbn6lALD89vwQdyHHWJc4qSqdneIoVMbV5w//44w/t2rXrtMWmKEqt7kd24oMfAAAASeX174jW2zqnppJFQPA1Q4/x0CHowBlhH6SWGhcuXNjbAgAAACAn2Xdx+wGSGVbCkwUp+TVM4RWNM8aSTKvZUbx4cXpLAAAAADnEvnvbd3D7Ls738DMnlD07gsfMr88vQQfOuKJFi7pzddv0snTfAgAAAELDvmvbd2777m3fwZE7hCKMsGPm5xCLoAO5gr0JrUipdZ2zLnT5+U0JAAAAZCf7bh0cppLWxABAOCDoQK5SqFAhtwtduXLl3A9hS5ytaKmNG+QDGQAAAEidfWe2enj2Hdq+S9t3avtubd+x7bs28qbEPd/pBZ+2QMtx8Er/hV/f454FAAAAAADIa76+8FVpZCMfPToAAAAAAEDYIOgAAAAAAABhg6ADAAAAAACEDYIOAAAAAAAQNgg6AAAAAABA2CDoAAAAAAAAYYOgAwAAAAAAhA2f+9/BK/2XLnnIPQsAAAAAAJDXfNH8eWlkI9+JoMP/bEP3LAAAAAAAQF7je2SVG3QwdAUAAAAAAIQNgg4AAAAAABA2CDoAAAAAAEDYIOgAAAAAAABhg6ADAAAAAACEDYIOAAAAAAAQNgg6AAAAAABA2CDoAAAAAAAAYYOgAwAAAAAAhA2CDgAAAAAAEDYIOgAAAAAAQNgg6AAAAAAAAGGDoAMAAAAAAIQNgg4AAAAAABA2CDoAAAAAAEDYIOgAAAAAAABhg6ADAAAAAACEDYIOAAAAAAAQNgg6AAAAAABA2PC5/x280u9/tqF7FgAAAOn39rd+TV/i1+It0u5D3kbkOWWipBbVpe7NfbqlTeArMpCamO8Xa8myldq8dZsOHYrztiJcREVFqkbVKmretJHatmrhbUVu53tklTSykY+gAwAAIBOWb5MefN+vHzf7vS0IF+fV8GnsDT41qeJtABLZ+lus3pv2sYoVi3QawOepTq0aKl6smHcpwsWBgwe1fuNmxXz/ow4ejNONPa5W1crR3qXIrYJBB0NXAAAAMshCjqteSiDkCFP2vNrza88zkJiFHONen6S2rZrr3jtvUbPGDQg5wpQ9r/b82vNsz7c97/b8I28g6AAAAMgg68nBMJXwZs+vPc9AYtaT4+orLtUFbVp5W5Af2PNtz7s9/8gbCDoAAAAywGpy0JMjf7Dn2Z5vwFhNDhuuQsiRP9nzbs+/vQ6Q+xF0AAAAZIAVHkX+wfONICs8ajU5kH/Z82+vA+R+BB0AAAAZYLOrIP/g+UaQza5ihUeRf9nzb68D5H4EHQAAABlAbY78hecbQTaFLIVH8zd7/plKOG8g6AAAAAAAAGGDoAMAAAAAAIQNn/vfwSv9/mcbumcBAACQspIPJnjnkF/sG8tvgynZ8qf07Gd+vbModEVbq5eVajjLK70j3PNnSv9Bj2vcqKe9NeRXvA5yN98jq6SRjXx8aiP3+na4fD6ffM/EeBuQW8S+28N9bnq8G+ttAQAA+c3/1vvV6KkEN+SwACJUi4Up/1svdRmX4N4mAKSFoAMAAORa1sC5d7JfXZ0Gjp0HkHuM/DQQOvRu7dPKJyJCujxypc/9DAjeJgCkhqAjL9k6WT2sh0N2LfSUyHcO/7JE0ycN0f09O6lT40qnvB4qNXa2de6rgc9N1PRv12jPYe9KAHCGWKMm+Gtx8NfcpGGHrdsvvPzKC+Q8e1+aV3oFRsOHivXq6H1+4DY2E3gCSAeCDiDs7dGmT8eod+NKiqzZQj3uHK7xU+dp3spTh53ErnS2zZ2oMYP6qkfbBioTWUnDf/AuBIAcFgw5zEV1Ar8Y27bEYUdwn67jrMdHaGsEIOvcxqrzPNqC8GHPa05IPIwF+dOfu/do3YZNWVqQf1CMNNxYXYu2Q6Tr39H2Kb0U7W3Ok4KP5elv5B/a1tuIDPllugbe2U9j/muhRrTqX9VD/e7orY5t66tmdGkVDezlOaw9e7ZrU0yM5s18R+Nfma0+MX491sa7OBGr0VGp13R1n7xd027K068yALlQ0pBjVv/A7zI2hCVYC2C2s+1/6/zutiD7VTknGtEUI80cK+jpPn/lpK/XBQpYBmXH87blj0DvnlCgGGny7L1g70cbWpIT7HPBPh/O1PNBEcoz59O5/9VsZ8mqsmVK68F77nRPM4vXQe5GMVIgzG2aeb/a1ezhhhw1rx+tL3/dpNUfv6R+17ZV/dNCDlNUpUvXVPMre2nAy7O0MW67+jgNjHByeP1sjbmvq/pOpYgqkFulFHKYYJBh+7g9O3Z7FyDXu6iOzw0hLJia/J230fPIFT73uc3qMqt/Hu8pkuDXc48m6K2N3rpZnqDrxvr101FvPRt8NylBjZ1j7rWVfX69PtU5T3aHXGzRD0vckMPCidYtm2d6Oad2TbdXyH+mzPCOjHBG0AGEoU1T+6rT1eMVo7bqN3m1Vk8ZoI5VT482UlU0WtHlvfNhYs/3EzXwldnafczbAOQ5TkPowQTd/HkODdFYmaBLhyZo6jZvPcRSCzmCrEEbDDueDeOihEP/FqHfR/j0sLeeY651bveFCH3Rw1vPJpv/9KtGWZ8balxY29voeec7v/tcZnVJ3LsnT1rr10dxUo0q3rpj2WpniXK2FfI2ZJPNJaVSdsY5btFNfvV406+cLM1l71+GmiG91m38xT3tclkH3dzz2iwtFpb88ScpeX5A0AGEmcPfDlfvnhO1SW017H+z9dJN9ZPpvQEAadu8Tvpun3RWDoSe6Qk5goJhR/jy6eJKTgP0uBT4ep+GS3z6dWyE250/rWVme+86KRh6tnO7zp9+80pvQzZxg6nP/G4vnK83nDpsJXhZVpe83nD+bpHzn1bOc18ksG49PBYslR64wBe6f8cjfbq1v0+Xr/NrnHNbOcXe6/ac5U879fnox9V/9HzRvzRjsjLcxASvb706EP4IOoBwcmCehlw7RDGKVq/J7+ixC7P2DwKA/Myv79Y4J1V8qhdseIVIRkKOoLAOOy73qYn9zUv6NDGZsMKWX+9L9NhXSv3+41efVJb5B539nD/x8gWBqyQvELCY6+9L/nb3DfWpRmCXDLMgIrggiT1+TVkuDepy8nk9/L1fLzpvhdZV/dq7L+XlcNJhJ3HJ7xdcStlXg2M6ue2odFc/n3rWCqwDWbVv9Sw9/+yHWuWth4oNabEFSA5BBxA2DivmhYEaEytFP/yOJt5U09sOIM9ZnuAW+Tt98esZ5+KPZ/uTucxZRvi1I3CErNvnfIl0DnbxOVJFb1MoZCbkCArXsGN0U6mo8yd5K5nA4n6nMWxi/0zUIN3l18dOo3hqSssm59+FYs5+O/16PXCNZF3s/D3PLyItW3D67faZEXhtHT4gbQ7sjmy0+b9+fdvEp87B3ycS/JrymbTjoHTpUL+qpbLM3Oldx/Pde8nvF1xafeXstDLJ9lF+NfbOJymhAmTYod82atPuw5anhZTV2rDFCpUCSRF04BR71s7T5OfuV4/O7VTL55PPXSqpQcdO6jtoomavzWJXr11rNHvSQPU95fi11K5zXw1/N0ax2TBANOSPIbda/46GPW6pdneNeaDjGRmucnhrTOBv37aW93f3qVLjTupx33jNXp/Jv7vzmpn37ngNvLOTOjWudOK4tdr20P3PTdeSXd5+QDip79OvzyS/WM2Gq22oQjKX/fpgNoYSv/j1kXNyffPQBQlZCTmCEocd1hXejpmnOc/tDVWkvRv8uj+Z0KJGycBumzcETtPlIp/OdU42b08tpPBpYBPnZJ9fb0w7/XanRvncmg47dvKLf7bb4dfTC6SzK+vEv907vgyEmiteiNC+R3262jn/RdLeNd5yfTJv+qu7+JLd15Z13ZwdajmfF8lcZsv5gUMAuUY5b8hJubJl3NMgq7lhrFApYQeSIuhAwC+zNbxnLZWp30m9B43X9Lmxir6sozq6S00d/u88TXyur7rWL6NKHQdqeroGDSe2RzHP9VCtCg3U9c4xmjh3k4p28I7foag2zZ2oIb3aqVLNThoyN5MN4pA/hpRZXYx21gBvO1xLMhDWZPZ6yVkyY7xmO6fNRw1Rr6qBbTnm2CZNf6iTalZr5/7tvzlQ0/u7t1Xkynma/sr96npOfXV6aLbSO4P5HpshpVcDVXJeM5163a8xk+ZpU/EG3mumvuK+na7xg3qoRYV2un9m8ke1aXCDwYgbuvSa7m6f3utkYHJy6aHJW92LgTOvkNOoLJnc4jWEopTMZc5SLPtCCSuCuCNSanq2tyGbZUfIEZS4QKk7G0ueDTt8+qCT8zweld56L7lAwaemZZ2TOL/mfx/Ykh7Dzwmc/rQy5ZCi8x0+Xew839/F+PWWty2x66sEXnu/bAmsZ4bNimLTkNqpzcIC49cc57memnj4yR6/nnP+Qb+rh081QvBNvaIFIwetHyhyvWO79cOMNzT8qafdKU37D3pag0a/oalLky+muW/DQk14cYQe8vZ97OXPtWr/ck2w9f84H+pJBPYfpYcG2/7OMmSU/vGfhdoU5+3gWfYfu/w9LfPWT/LqjQSP/ft8DXeOM3yOdTNaHbjdFG47I2zGlKceeei0Gh22nbADKSHogPbMHaJ2NbtqyNQ4dfzrS5q1ZrfzHWqjvpnzpb50l2+00e9X3KZvNOFvHaX/jlGPtp00/Ot0BhIH1mjirfXVbtB0barTXaNnr9buo9u1ep53/Hmrtf1onDbOe0l96q/W8M4t1Nf62WZAyB9DGoq2GaAxQ5tL3w5Rv1fSOVbw8BKN+ZvV02irYeMGqHnwZ5xMWaJ5k+12m6v3Zc79yEnHNmnyne3U44VNajdqllbv9Gv7isR/9zhtnzda3evEat4LXdX7mZi0v1z9MEYtzumqge+uUeT1w/ROzEbFHfVrY4x3XPc1s1uLJ/dz/noxGn91Ow2cm8xRiwcDF29pFO1ujm6UaNuJpaZKF3QvBuA0vqwIYsVznYa1tyU7JQ45qjsN96yEHEEWdlhgkpfDjv73+9S5pPTTD379ZLOfPOHT8EbeheZc5//O5Yd3SOO8TWkq71N7q7uxy69xKYUjjXwa08w57na/nrHE/DQ+XVPZOYmXvku1xkfKgsGGPTdfr5MudJ6rIAupLADJ6mIBir2e8pLNn/vVz/kq8pL1pjEJfk193a+lTXzq7zwvie0J1tRItJxWnyMlVrfDef5cFXy6eof/ZO8em9Z2UJJpbXHmxa3Wm8++oDcX7VZkk066rdd1uq3Hxaqr7Vow+QX944tTxyzFrXxPw177XKuP1NLlPZx9e3VV+5I/a+Lzn+hnb5/EYue9oifd/avr8mtt/+t07XlltG/l53p+1HtaliTsSJdSDfQXO06j4s5KNbW3+2xL++qByzPJAo6UCpESdiAlBB35nPUo6NJ5uGKiO+qxOWv05ev91KVe6WSHPRQ9u636PP+l1sx5TB01T0Mu6qLhP6TVZHUawfd1VN+3Y9W2/zRtXDNNA66sf3qDsmBR1ezQTxOchvE7t8Rp4gNDND2dWUfoH0N6FFXbQaM1wGlHxzw0RBPXe5tTseSVfhryrdR2xHgNaJmllENav1izrVp6s97q6HxZzTm7FfNsb/We21ET1qzWtIe7qP5pszMUVXSHAZr2/Zd6zLlvMY/305hv0/ibHzvshmIvxezWximPqVebmip62mumtJrf9JJmzx6gaMVqzK3DNC/JYaOvGu0FLoHlnUfbudvbPfrOKdsDy2h1CeQgQC7iNE4fTdBzP6bwS3y8X2+NTdDrP3nr2eUXv+Y4X3JvTdzIdu7LshkJum5q1oYuJA45zEXnZN8v+9XLBY6VF8OOzr0iNPQcae86v657z6+4XX7tKOE0dvtE6PubAwVAr28fOP3JeX7S6+IuPjV1vu39tEGa7207RXmfZvZyjntUmjLDn/w+58rtSeIGId6mzLLnxGZeSay61xvdQoqsLDZ9bV56zg8vT1Cf2dKIuyJUL/iNPN55+xX3aeJtp8+0cl3imhreMi6FH8pPq+Mz2K9+X3mvm4ruU+oOZTJW9PT1Ys5rJZt7b/1vfQq1hJzF2HOV3GX2+WDXzd+Oadm0D/XDwUrq9n+D9NC1F6hlsyZq2fpi9R04SLc1Kqqtcz7QvL3e7vGr9c7U1Yqr3EmDHrpRl7d29m12ni6/ub8GXVBGp2UWv8/XxM+2q2CTGzV8YHD/Jup47V81/P8uVvRB53gzk4tH0lCkgho6x2lQOdJZKaG6dp9tqW7BR+gQdiA5BB352dbp6uPO0NFWw2bM0rDLkk9Kkyp92TDNmvqYmjvXHNJ/vFLrv7Dp7YHq/Xasom95R++82F010/rFvGBN9Xp5uoadPVn9HnrJ25iKHHgM6Va8o4a9ZY3u2er76OTUpwxbOsZ5fDFSm2Ea/7fmyYYyGRG7ZJ7m2ZnLmqu+uyVn7JkxRP0el/O3n6g+9dJ4FKU7auDT/Zy/zxINeWueUu1LU7W7Vi+Zpn5t0n4+S185ROPvcM7EDtf0zA57AnIrCxxstowiKYQBRZyGsdNYeWtJkkbBDr9uTqYBkewy6fQGxY6fAo3i9k0S365PZzsN0jnfOPcpC281CyCMNUxDJXHPjrzBp6urO22V7X71eSnwS/vUGX41ftGvj53HcW4rn74fGqFBNgTFaQh/PMO9Ujr4NNTCKuc6UyYn33CsUU+Kdr4Nzv80QfenEJhd3DoQsCxfnfnGpzVcLYiwnhePXOE7Jeyw2irWuE329ZmBJXGAlic4rc96XXy63pvpxhXp08P3JT9kJbkaHQ+fEkaedGqNDp9mNnA+LoLHdE6bVpEWrXOeT6/oaU/nOQnFMJmkYVRwCUrtsnwtfplilh9WZItOuvy0H2GKquUl56mktuv7H7030rrlbg+Mppde7L6fE4vueMFpPfM2LVrkfE+tpCuuaiCLJE4RfbE6nuu8PBcvD/msKYm9+NqkwDCXTC5WlDTIwo51GzLWOxzhJwQfacgbDmvey/002WmNt31+vB5rk7GmdtELh2j0w84n77cDNezdFJr0u2ZrzKDpzgdmP018vpfSPQdI8bZ67JXRqhSb1uziOfAYMqjoZUM08V7nmFMHaNjMlFoCmzTx0YGBcCbLQ1YCtq93Yw51PKdmlkOTjJg3dbqKZuBvX/qy7upj/2C/Mk+LU+vUUbW+6qc7/C+tjtf2c8+N/99ixhwjrAQDh/O9Ggun86l9M6cButSvZYnbeKWlh291GjfpWTp41znBr0UrnZMGPrVOMq1sqfY+DXe2vf7fzDd4azgNGRuq8Erv7OvJkdTgKwM1O7Kzt0ho+XX/yARVG+nXHG+La4tfNz+ToGfsV/vy0rnO337HBr+eC1yaJqu7YbOo2Le9Gik0iDd/7VerwQm66ktvw2m8sGSfX299HtiSWRZEBBemmHW+M7SO0EuXZ/dr1K89+7yzifz+h1SvYvC2fGpaz3kfr5F++sx57RXy6a5W2f9eseFKSYcXBRdjoUZyl9mS72u47D0g5ylTufIVAutJVa3kfq/e+ntg+EpsrJ1WULWz3NVTRZz+K+M+5/iKqKCKVmH4NAVVs1oZKWGntuZQwfc/dwe+MweHqGR2ARIj6Mivds3W5Gedxn200yD/a2ZqOhRVx7uGqYtzbvqkWckWmNw0c7zGOzfR5ekB6nLacIY0NOuufld651OSA48h40qry6Pj1Ss6VuOdY89z/h1Jynq59P00m4aseA7HBYKa6NKn5fIh1kcDb8nA375oC7VzexbO05K17pZsUbpxO3W3M+tj5fXEBcJAyoFDYk2dt2CTOGlB4vdUEachc55PF6dnOTtJg8JpJC3YIt1V3z4lk4jw6ep20pwFfs0PjvfPIKvHYfU0Qs1uIyduJyc895Vfmy3IsuEl09IZEHh1N6zo5N5C0q3O36J/4JIMCYYly5YmX6QUOSfZGh3OayKpvc5zfm751F/7Nc5zntvVfrX6XHrJhi7RIsiVChVx3rypiCyUOMQoqsiMfA0sUlCpH72gIlP5tyc7WUjxwN13uAVHM7sEh64YO39O7XT/xIowxcdaPrUnZp4mOqfR9/VQx8wOm6vTUd0vc07nTta802pSbNK8d62iWRd175CZD5qa6nhtR+988kL/GDKpaneNebGXomPHaOCoJIU3f5msgbdOz7YhKwGx2uQ1cBpUO61/Y2hd31HtMhRilVYl9z4u0eHs7HoRHR3oMTRjU+pDhoC8ZJvTsNwiPdwimcAhsXN9uqus9OJCp9HjbcqKvU6D9nXntHOz5BtKNdr7dKvT6J4awy/yOcOnl3r4dK7zje2nxX49lp5fWIN1N5yzcz5KUB8rQlrMp0H3B7alV41OPk20sORPv56ZFtiGMyfZGh1rvAsT+WWn869tku9Fv+yQzk7cOcB5jTR1Wrk2LOrWEM2shCwoVVzlnJPYbb8F1pPaut39gS46OtCFo5Dba2O3/khuMpb4OB3zzgaVdI6vuO3aGqzxcYpj2vSrc6DICoouEdhS8SwrpHNMh5IG3Anb9evv3vkzyIap2NAXYyGH1ewACDrypcNa/L/x7rnebbLyQVBTLTpYo3WelqxJMkwjdonmzXVOL+uujokqq2dEpbNTu2858BiyIPr6YRpzvdOcf2aAxpwodhqr6Y8P0PRsHLJyxjWuqYxGK5XODhQEXbwpGyOJopE6dWZ1IO9bNt9ppEZKV5+XVq8En665WNqx0q+ZTmMma/xaag2nWj61LhnYcprS0vWNpLfmJ5q1ASHi0+hBTkO0ovOv3na/BqZQZ+MUTgP2P/f6dHEx6adFfl23yHkd/cevqbucttM5Pr3UydsvLY18+uBKb6rbaUmG1GSSDUdwhxQ5p9RiyLhka3QEZ2sJcp7ntQnSuZX82rEl0Otjh/M6+Mj5xl/DppV1+fWd81p6q7BUxPncSDzsbdnshMzNtoHsVaSpWjawOhlf6vPTvi4d1g9f/ah9EXXVvmUg0SpXr5bK6YDz3fvHJIVHj2nTZwtOq7VR87ymzv7b9dnM1acXKo2dr3k/Occ8v7XqepvKlbGU7GctW35qnB734/JkppwN2q3YbBz6klLNDUIOpISgI1/arli390J3tTgna63tYKP1m/VJPnx+WaPJdtqmQeCX9kwoWiK1pmsOPIYsqaleo95x7t3JYqd7Zg5TP5t9JhuHrJxp3eucgW6BB/Yodm2M5n06WeOfG6L7e3ZSu3PaaYh3MRAWnEbtc04D9eoOgRkz0lLKaTzaDK1jZ2exV0e80yheLd3lfE88MXTbpqXc5TSMfnQay1MT9MxYv0avc7b/KX2cwowPyAYWWAz16a4qTrPGisuOTGFGlMSq+/RBf5+uLi9tXurXdSeCEb/6zAgEUxd3SnsIS40LfVpxu0/nFvCKlNoQqiyyYMPqslxY22qonD7bjgUgWV3yfV0Hx+ENzvvUee2cW9KnPYsCvT7Oec953q/16Xz3s8R5L0/y61LnPfyOvb4ipbe/Phmgxe+QXky0jhCK367VS5frhyTLqljrf1FQLW+4UU0jt+uTf47S8zMWBi5fNF8TRo/Sm857sunN16llcGhJ5U66voXz3fKnj/TEi7M0zz3WQk196XlN2F/pRGBxQuXLdU/nSopb/p4eG/2ePl8UuO15M97QY/+cr1jnePdcebJKbqEm56tlMWnVtFc04YsfvX1f0bCFBdXUup4kEV21miKd7+pffjLf2fdHTZ2XiRlcErFCoxZmJA07CDmQGoKOfClWm9zCxDWtx3+WRNds4Z4uOXDqV+vYTYvd044hG0oR+seQZWf30ujXu7jFToe8MF7D7hqv2GwdshJUWtFet9Ns7SWRSxzeukTTJ1mg0U61fD75SpRRpfrt1KlLb90/aLjGT52n2PJtMx2oAbnR3j/8Ku18x3z4snQ23CJ96tleuqFRGsNcUmE9Bt561a9xzvn5c/26apA3m8Vgp7H0jNMwete53AIO50vtX2/w6eHS0vtOYxrZr2l7n1YMDgQWOzb6dfOItHtUuNd5wKfOzvNiIUc3pzF7So+blX69bs9fMZ8e+GsKryungTz8/gh9f31giMvH01IrUpoxNuPK5j/9uneyX5O/04kpZY3NwhKsqZKVZVb/PB50HPdOM80vp72qi53PAXv+zr3e6/nxQoSGO68Pm2Fl/huBkGPmwAidb58b1zpfU2b79Z37s77zmtku1atEYJQj9q7WjMkf6M0ky4crvfEnkQ3Ud9C96tWihP748fPA5TPma2vUebpt0CD1bZT4076gGt74kB66qoHK7f4xcNwPvtOvVa7QQ72anD6ziiP60nv15O0XqK426vNpgdv+ZPkx1ex6u4Y/kGT2liJ1ddsD16lt5TitnvOR3nzvQy3407l/d3dStQLePonVu0K3ta2gY2u/dI47S0vjQlNDLjjTCiEHkhP4JBu80u9/tqF7Fnnct8PlaztEuv4dbZ/SK4VhBTEa7rNfwIfpG/9jauttzZTg7T39jfxDTx4p9t0eqtRrurpP3q5pN2UyiUjh2AGhfwzZY4nGtG2hgd/a+bYa9v08PRaC3hxLnq2kFo/Gqvnzi7X4b6H/oM/K85vu68bO05gH+mrg1GB6X1NtL6upBs26qHnz+qpf0zlfr6aiS9vfM32vh2x5XQJnlF/PPejXsi4+/Se7Z2v4MUHnvO98P3W+j55bXapb1adznYb22edIFZ0GUdEkVeuWvZegixZJX4xxGkyZ+NnEphvtOs7v/hJvjdTsYI1om83DGryh/HXfAqBQsLBiTAefzrdhHUel+Qv9ut/riZEiCydu9OmvzvNU1LnOnLkJui6l2VGcff832KemTsPkrVcTTSfrbO9/hU8PNHOea+d53rvdr2cm+PV6NnY7t+fDenTY83Ohc1+/dhrbNq2ssd4evc/P+vNlU9aGajYXCwxC6btJCbrU+Vq+745k/g7Wo2eEXw849+F8b1OyfnGe+xekqwdF6NYq3ragXc5zOjYwXOWDByPU9MTQtEAPj94bpRGdpPc/kvqPjNDF6SxCae+F4OwpGWHvf5PR96nN2GNTR4f6+UiJTWM6btTT3loekbBcEwZ/oJ9b365RPWp5G/MWCzQW/bDELViauMiobbNCphkpPPrEs8+7s7xk5XnMk6+DfMT3yCppZCPfmfmUAPKN5urY3QsemnVUx3rZH3KYSnUChVuXrNuu7Ks0cuZsmnm/2lXqpIFTpe5Pv6Mv1+xWnH+jvpnzpSaMGqB+N3VRxzb1vZADQLY4L0LrRkVo5lMRGt0nQnddHpiVpUbJ00MO07SB1LmeTxWTmfUBmbPH+TvXKCH9tNyvPiMTdFVaIYex2hvFpb1b/BroXCfFkMM4jd03fpI2b/Brvs1dGeQco/O5UtE//Xp9cmCa2+wMOYw1bO99x++GEdajIxhyGGu42npWl/w+Ze3heCm6lU89k4YcxrmsaH2ffngscchhfDr/Np/GV5WenuFcv4vzvs+BmTYs4GCoUQ75eaNs4EiwcGk4sV4czK6ClBB05GvhUG0qdz+Gwz8MV79BSxRdp6ailw7XgBeSzMKSTaKbd5QbdbwyT4tDcQM5yP5mva8er5g2j2nW9o2aNrSXOtYrnc3DfYC8yqeHx0Zkf2+OzGgSoQ/u9qlGDk0/mB9s/tKvcwYmqNXEQPHQ9PHr/pEJOmdM+sKJt95IUOOXkh7fr6uGJqjaCL8GLvI2hYCFHRZG5PdAIjnn3xGRfG8OU9Gn/6TVm8NR9NwIvXSzL/l/L6s4nx29fCqV3Df/CJ863x2hFc5tvJTe4XLIGxJ26vPPFisuUeFSIL8g6MiXohVtU6pqjTZtdTdkWrAWR/PiSf5ZLRhYn56tBT4Ty4HHkFWHl2hM/yGKie6niTHfaPwt0Yp5fIDGfBuCJKJOC3WxKQD1jubF5OWkI1bTRzl/MzXX6FeGqUsGRpeEQ2wHIGu2/EEDGkB+tFOfvzROr773uVeIdLlivvhAzw8fp09+K6q611x+snBpHnROrUAxOhvCkpUlOGyFeh75A0FHvlRJNd1G8XSt/sXdkGmb1n/jnrZLMvtGdLUGgTPrtjtN18wJBhDJC/1jyJrDinmun4Z8G61eLw5Rl/LR6v70mMAsLH8bo5gD3m7Zprm6P9DFOY3V8FemZ/pvfsZtnadpU53Ty/qpu/v8ptMvm2QzYgLIO6zbuo3tt1/3u45LyPJiY/f/tz5Q74Eu8UB4smFOSE4Z1WxQRns3/KhPvKKmk+f9rLhyrdXrgQfUv61ND5t3WTDR5bIObkhhdTkyu9j1raZH6/My8iUTeRVBR75UVA2ad3fPzY6xiU8za4m+mW5N6u5q17x0YFNQvebqZ6dvf6PVmepgcFirl0z3zicnBx5DFhz+dowGPB6j6FvGaNj1XreEE7OwDAnJEJaaV/VTP7upqQM0em4e7dWxdZPcZ71ZTZ2c1Cxte1Z8E7gegDzFilNaMGEBRVYXawDZseyYAHLGRXVO1lgJNSs2bKyAMZIqqLodb9bfH3tUz4962i2UOW7Eo3rsvq5qWzU8hqxceVkHPfXIQ25B0qwsdgzqeuQPgU8KZl0JH+madcWxa7r6VuihidGP6ctNw9QxM6M2lo5Ri+YDtSTZ24rV5J6V1HtqtB6bt0nDOmTwBg7P05CanTTcMoiUZkMJ+WPIpAMxGnJROw1f2l3vbJqmXt7UrwHBWVjaaljMPD3WJnuHy2x6o6tq3TVbih6gL9eNVscQ/dsWsllXMjUDzh5Nv7OMerjTqDPrCpAXZdevtBZ05IRQzbqC3OtMzfKR29l713pTmVC+/xJ/RoR6VqXUMNsGDK+D3I1ZV/K78l3U6xGnoRc7XGPezkwdjT2a/fpop9kerQF/7Z5MQBCtLjf1cU4zN5Ri09tjAiFHakL+GDLjsGJG9dPwpVL3t0YnCTlMc/UbN8xpiIdmCEvNv76kd26xv8kY9b56eAiGyOSQjAx5WjpRoz+NzqbnD8CZYA2k7FgA5Cx739nUssGeHaFagu/xMxlyAMhbCDryraLqeN949XJah7Pv6q3hGSyQuendfurzSqw7NKPfZcn3Sih9bT+NbuOcmTpAA97NQBDxy2QNvGux+t1rQUlqQv8YMurw3CHq/swS6coJGn1L8t3iirYcoDFDm4doCEtN9Xp5uoY5f/fY/zr35eohmpfNUwSG1IkhT7P1TXru94EYDb93oMo8PUxpvVpcXpHcPQcoXQoAQHYIBBARbq+XUC0WpgQCFUIOAOlD0JGfVe2uMS/3cZrGMRpybVcN/3qPd0HqNs24X717TVZsdC+NebqXc/2UOI3WF6z3Qqwm9+qtIXPTPv7htRPVu21vfXPLGA3olY7xcyF/DBlwYJ6G3DrGebRdNOFFu08pKaq2g0ZrQLRCMwtL8bZ6bOaXeswNO4arU+NOGvjuGqXvL3PSnvWzFbPeW8kppTuqu/XS0UQNezGNEOjAGk28r7uGaLSG/bWBIr3NqYk+p4XzqpTmxSzJ8N8DAAAAQN5A0JHPRV87QV9OcRrlsU4j/aL66nTXeM1em1wT8LD2rJ2tMT1rqVb38Yqp00fvxLyTzNCMUxVt85jeseMrRsM7O8d/aLKW7Dq9+Xp41xrNfq6HGtTvq3n1h2n6y71Us6B3YRpC/RjSZ49mD+qtMbFSl9dfUp863uaUFO+oIa/3U3SoZmEp31HD5q7WO/3bSs7fZUyvBipzTlfd/9xkzVsbqz3J3N7hPXu0aelsTR43UL0bV3L3z/neIEXV8aGJblHVJc+0U8cH7PXiXRR0bI/WfDpGPZo3UN91PTTr3QFueJEuzTqqt/UymjRMQ6ae2svo8NY12kT6AQAAAOR5BB1QzesnaPGKdzSggzTvjfvVtX4Z+XyV1KBjJ3Xq7CwdG6iSL1Jl6nfVwKlxqn/TS1r8/YR0BwTu8b9/Sd3rxGreC73VokKkfOe0CxzbWRpU8imyQgN1HbREzUd9qSVzHlPbDBbRDPVjSEvs1MAwGLWx3gXp6x9S+qohGm/1NEI0C4uK11evF7/R9pgJGnClc5/Wz9b4Qb3VqX4llSnhc/4+py6RZcqoVvOu6v3AGE1eGam2dwxT26resXJS+S56KWaa+rWRYsbZ68WnSo0TPY+FyqhBl4Fa0tx5Dj99SV0y9BwGexkt0fietU4et3ElRVYbkndrmgDIUWWivDPIF3i+ERQVFakDBw96a8iP7Pm31wFyP2ZdQSKHFbt0tmZNnq3JP3yj1f9d4xWErKm2l3VUu6s6qse13Z3GbybrWdgv8XPf0fhJ0zXvf/O0xj24d+ybuqvPVV1Uv7y7ZxaE+DHkYYe3LtHsufP0zf9ma8n3qzVvZeAvY6IbdVSDSjXV/LK2andRO3VsVl+lz/Sf6FisYqa+o3dmTNPsqTFy+1/Uaavul/VQj1t7q1cbG+KSOYd/ma3xT4/RxE8Dr8OabbqrS69+GvLXjorOfy8NABl07SsJ+nKtt4Kw16meNONefhuE9PKEt9SudUs1a9zA24L8ZumK1fpm0Q+6r++t3hbkNsFZVwg6AAAAMuDtb/3q967fW0O4G3+TT7e0oQgmpJjvFzsN3VW6985bvC3Ib17519tq1rih2rZq4W1BbsP0sgAAAJlgjd7zatDwzQ/seSbkQJA1bg8ejNPCb7/3tiA/sefdnn9CjryBoAMAACCDxt7go3ZDmLPn155nILEbe1ytjz/7grAjn7Hn2553e/6RNzB0BQAAIBOWb5MefN+vHzczjCXcWE8OCzmaVPE2AIls/S1W7037WMWKRaptq/NUp1YNFS9WzLsU4cIKj67fuFkx3//o9uSwkKNq5czXiEPOoEYHAABANrCaHdOX+LV4i7T7kLcReY714GhRXerenOEqSB+r2bFk2Upt3rpNhw7FeVsRLmx2lRpVq6h500YMV8lDCDoAAAAAAEDYoBgpAAAAAAAIOwQdAAAAAAAgbBB0AAAAAACAsEHQAQAAAAAAwgZBBwAAAAAACBsEHQAAAAAAIGwQdAAAAAAAgLBB0AEAAAAAAMIGQQcAAAAAAAgbBB0AAAAAACBsEHQAAAAAAICwQdABAAAAAADCBkEHAAAAAAAIGwQdAAAAAAAgbBB0AAAAAACAsEHQAQAAAAAAwgZBBwAAAAAACBsEHQAAAAAAIGwQdAAAAAAAgLBB0AEAAAAAAMIGQQcAAAAAAAgbPve/g1f6Y/5y0D0LAAAAAACQ17T9sJg0spHvRNDhf7ahexYAAAAAACCv8T2yyg06GLoCAAAAAADCBkEHAAAAAAAIGwQdAAAAAAAgbBB0AAAAAACAsEHQAQAAAAAAwgZBBwAAAAAACBsEHQAAAAAAIGwQdAAAAAAAgLBB0AEAAAAAAMIGQQcAAAAAAAgbBB0AAAAAACBsEHQAAAAAAICwQdABAAAAAADCBkEHAAAAAAAIGwQdAAAAAAAgbBB0AAAAAACAsEHQAQAAAAAAwgZBBwAAAAAACBsEHQAAAAAAIGwQdAAAAAAAgLBB0AEAAAAAAMIGQQcAAAAAAAgbBB0AAAAAACBsEHQAAAAAAICwQdABAAAAAADCBkEHAAAAAAAIGwQdAAAAAAAgbBB0AAAAAACAsEHQAQAAAAAAwgZBBwAAAAAACBsEHQAAAAAAIGwQdAAAAAAAgLBB0AEAAAAAAMIGQQcAAAAAAAgbBB1hYb8+H9JNvR8eqynz1ujXQ95m5Cr7Ph2q1tc8qCcmf6JVO72NAAAAAIBs5XP/O3il3/9sQ/cs8qDjSzXivF6a4AUcV49dpH9eWSKwklvZfe4wRDHla6vFxbXU7i8P6vIa3mW52M5p96j1IwsCK1Hl1bBWhcD5xHZt1KrYePds33dX69HznDPHN+rtm7rpiaXO+aj2GjnrVfWs4u4CAAAAAMgGvkdWSSMb+ejREQ7WLNLnJ3pxXKaObXJ5yGF+du5z7EatWjlXb4/fqPiS3va85NAu5/6vOX3xQo7Eds4cpREWcjgqdGuvar8sUszC5Jal+vX0qwMAAAAA0okeHWFg1fjOumrsVm8tPYrokmdn6l89qnrrAYtHNdB1E7yVDKrTd7JmDmrmHDl91r/dQ52fWRNY6TZWS5+/THkh6zjZo6O++j4/SB3K2NbVeuuO5/S5c67hHaP0aPtAL4+SdVuroZ3dNk13dh2qr9I1pKi9Ri54VT2jvVUAAAAAQLrQoyNcxC/SlDcyEnKYeH310SL96q1lh/WfLtJ673yajq/R5//yQg7zyYNqVreBaqW29Jys9ce9/XOFNZrw0B3qfYctgZDDrJo0yNt2h6asiZcOLdWIPukNOQAAAAAAWUWPjjzulJoRVdrrlr/UT7FnxL6l0/T2wl2BlTsmaeMjrQPnPb/OHaspq72VNG1TzPhPtNhbK9J3stYMauatpS5+4TA1u2OyMjZCI3f0dDj5907h/sRO053th+or52zf5ycp/qU79PZGuyD5XjQAAAAAgOwR7NFB0JGXxS/ViCt6acK2wOolzy5wGtLlAyuniddXTzbXnZMDa5eMcvb9S0r7psO+ufq/lg/qY2/1lglL9FT79Axc2a+PH2yt//s0sFbnstt1ed0Urrd1kcZ/5BW2iLpbHyx9UC0Ca2dM8kNXEtk9XyMe+rect5f6vrtEPVc/qKueWaBqGRzaAwAAAADIGIKOMLDqtW66aozbXUCqcrs++GyQWqTYkl6j8R16aIwbitTXU59N0y213AsyJX7BMNV3Gu8B3fTKD6N0eTqKbMT/OEqdb/p3YNhMVC+9s2iI2qZwn3d+eI9aD/J6q+SSOh6n9KBJQyBMKqFVCzeqToMiWrw6rTllK6jhBbXyRK0SAAAAAMhtqNGR122crCeCIYeK6OpB96YScji2rdY3Xs8PRbVWwyxN5RqvmHnBkMNxZXu1TU/r/PhGTfmHF3I4Lhl6T4ohh1m/5mSg0LB57VwWANjQldXa+LMtk9XX22q9agLbVns9Zoqo4QX1VWTjBydqd6S8fJD+OicAAAAAgGQRdORF8Us15r5hJ+tjdHxGj12Z+pSyO7+dqxjvvP7SRg0LeOczY98CfZgo57j6iovTFUL8Om2UnvBGoqjWgxqQ6tCZNVo8xztr9S0aZ6H7SUgs0pi7e+iq7rYM0RRva8zYu71tznJNe937oVcTBQAAAACQIwg68prj+53G9BCND3bmiGqvfzzZTTaL6b5Ph6rzPa8pZlvSMp/OdRac7B1xS8fWWaoV8esnk07U5rDhJzd0TD1kca15TX2GBO9DLfUdfnvqYcvGJfrsRA+UHmpX3zsfdGirFi9cpJiVW7Vv9/5sX35d6Rx74VL9mmLF1HjtXLNGq1baslH7gltjg9ucZc0uxQdnijlv0ImeHikvg854DRIAAAAAyOuo0ZGnxGvxqB66bkIw5ailvu9O06PnFZG2TdOdXYPTmBZRw54P66n7e6mFzQqSaCaQtOpipClJAdQ6A6Zpzt1JU4gkbIrV7s51vLtdJx2FOde/3UOdnwlMQVvklklaOjRJOPPjKNW66d/eSqikPtPL4gk99MRsbyULrnl8mvqmb8IaAAAAAEAKqNGRB8Vvnqsp807W5bjk2VcDIYdjX+w+lawRjALitWrKMF3XvrXunbxGiz+dFgg5HEV6XJZ6LY80/PrRqydCDkV104CeaYccY26640TIoVp3a+SDacw+cnyNPv9XIOSwx9mzYy6dreTPRL03srD8Huz1AQAAAADIMoKOPKRIjW4aOWuB3unXWpcPnaZXelT1LpFKnneH/jl9gea8+qDanpjydL8+f7KHrnv2RGEM3X9dFoatxH6iJ0acHAJT5947dHnS6VWTiI/doPWx3viPqPYaOfHBNIOW+IXT9FIwTKlyj3q2SeYKBYqc8fCjSKng3z9xYdL0LYuebe9dFwAAAACQnRi6Eo4ObdSUEQ/riSlrdEqJiStHaenYbpmbveT4Vk3pd5UGzzt5RCuCOmd8D1VLq7Cp3Z9nntH66072QEnR8Y16+6ZuJ4qWtnhyjj7odTLQyU1OTjVbVZfc0lUNM/CH3bdmlt6et9U93/fd1c7fxT0LAAAAAMik4NAVgo4wtuq1brrqxBS0tTTgo0/UL42RJin51WnUd3Ya9Ulrc6an3kZG7PzwHrUf5N1OVC/965shuiTKvSjXORl0ZA1BBwAAAABkHTU6wt2hpfpoRjDksEBimPpmMuSI/3GU+iQKOepc0Fp1vPPrJ9yhe6cFeiZk2bZp+vuTJ2+nxYBeuTbkOBVDVwAAAAAgt6BHRzjyCoCOX+NFBrVu1wfTB6lFJkIDCzmuuunfWu+tq9aDmjnrbmnCqb1F+k2ZpgHNstCv4/hWvX13Zz1xYgbawO2kOgXtGcbQFQAAAADIPRi6Eq52LtCIvg9qQjDksAKgs15VzyqB1YzYuWCYevednCjkSBSYWM2Ouztr8IlgIvNhyun1P7I2zCanJJ4CNysIOgAAAAAg6xi6Eob2LX1N1112T6KQo776TRyb8ZDj+H4tfq2X2p8ScvTQKxMTBRkFqqrnU8/oEm9VG/+tv41ddFoNjzQd2qi3Twk5AtPm5vaQw+zbfnIK3Ar166thowws0Wd6zhgAAAAACE/06AgH+9Zoyqghp86yEtVeT00Zq1vqZrBBHbtI4x95QGMW7vc2OM34+nfrX28/qLbJDM34dco9unhIsFtHVfV9a6YeTW462ORs/kSDHxiqKcFgxkIOmzb3llpnfOrY9Fg8qoGum+CtZMGJHh3HnSUXD9UBAAAAgNyMHh3hYPdGfTX+HrVu30ODE4UcRc67W+/MfTVjIcfxXYoZf4eatb/jlJCjTo9RmjM9+ZDDVOvxoAbU8la0VRMeGauYQ95qSo7v16ppQ9X5skGJQo4SuvzZmfpXHgk5TItBiQqMLrUaJd4Fjmp9J2uNd9kHfb2NjkueXXDyOt4SCDkWaUSHezRi2iKt3xfYFwAAAACQcQQdedHORRr/cC81a91Nd45doJ3BYCGqvno+O02L/vOg2lbwtqVD/MpJuu689uo9dpFOtLHtWM/P0Zxnu6laar0MCtRX3+G3q5q3qm3/1hNvLE1+CMvxeP268DXd2aG9rnpk2slhMVHNNGDKF3qlR1VvQx5yfL/Wz3tNvTv00Jil3rZat+uF+zM45e6G1YqJXaAJj9yhPu9mve4HAAAAAORXDF3Jo36ddo86n5jytYga9hyikYN6ZGjmj5P26/OH2uveT+xomTlWoutbQDL0OT3VI3HPjHj9OnesBg/5t2J2e5tcWb3fOWzfRsUs+FbfbNgpHdqmxd9+q8Vrdp0a6ri1TJ7R5Ynqoqx6rbOuGuNNwVvrMvW9Mkmvld0b9fmnc7Xe+9tcPXaR/nllicAKAAAAACBdmHUlz4vX4lF3aMShbnr0nl5qEe1tzqxDSzX+4U9U4f4H1bN+JhrZaybpzndKakBKocW2abqz61B95fU+KVK/h54aOShzt3XGJA6Ekogqr0v++pz+cU9rVUjSA2bf3KFq3W9a8r1ckqp1tz746EG1yCvjdwAAAAAglyDoQI6LXzBMV00urL5/vVM9zyvvbc1jNk7WdVcM06ro+qpTvqpaXNxa53Vqr8vrV1WRlIb4WE2ST/+lN6Yt0IYNG7UqNknkEVVeDWvVVu2Le+ivd3TLG71bAAAAACCXIegAAAAAAABhg1lXAAAAAABA2CHoAAAAAAAAYYOgAwAAAAAAhA2CDgAAAAAAEDYIOgAAAAAAQNgg6AAAAAAAAGGDoAMAAAAAAIQNgg4AAAAAABA2CDoAAAAAAEDYIOgAAAAAAABhg6ADAAAAAACEDYIOAAAAAAAQNgg6AAAAAABA2CDoAAAAAAAAYYOgAwAAAAAAhA2CDgAAAAAAEDYIOgAAAAAAQNgg6AAAAAAAAGGDoAMAAAAAAIQNgg4AAAAAABA2CDoAAAAAAEDYIOgAAAAAAABhg6ADAAAAAACEDZ/738Er/f5nG7pnkXt9u+g77xwAAAAA4Exo0/p87xxyG98jq6SRjXwEHQAAAAAAIM8LBh0MXQEAAAAAAGGDoAMAAAAAAIQNgg4AAAAAABA2CDoAAAAAAEDYIOgAAAAAAABhg6ADAAAAAACEDYIOAAAAAAAQNgg6AAAAAABA2CDoAAAAAAAAYYOgAwAAAAAAhA2CDgAAAAAAEDYIOgAAAAAAQNgg6AAAAAAAAGGDoAMAAAAAAIQNgg4AAAAAABA2CDoAAAAAAEDYIOgAAAAAAABhg6ADAAAAAACEDYIOAAAAAAAQNnzufwev9PufbeieRd6xe/du7dmzR3FxcTp+/Li3FQAAAACQFQUKFFBkZKRKly6tMmXKeFuR2/keWSWNbOQj6MiDDh8+rG3btikhIUHlypVz34C2AAAAAACyzn5MtmXXrl1u6FGlShUVLVrUuxS5VTDoYOhKHmMhx8aNG91go06dOipbtiwhBwAAAABkI2tjWVvrnHPOcc9bG8zaYsgbCDryGOvJYV2nKleuLJ/XIQcAAAAAkP2szWVtLxvCYm0x5A0EHXmI1eSwWhzR0dHeFgAAAABAqFWqVEnHjh1z22TI/Qg68hArPGo1OejJAQAAAAA5x9pg1hazNhlyP4KOPMSK4URFRXlrAAAAAICcYm0xa5Mh9yPoyENs2AqFRwEAAAAg51nQYW0y5H4EHQAAAAAAIGwQdAAAAAAAgLBB0AEAAAAAAMIGQQcAAAAAAAgbBB0AAAAAACBsEHQAAAAAAICwQdABAAAAAADCBkEHAAAAAAAIGwQdAAAAAAAgbBB0AAAAAACAsEHQAQAAAAAAwgZBBwAAAAAACBsEHQAAAAAAIGwQdAAAAAAAgLBB0AEAAAAAAMIGQQcAAAAAAAgbBB0AAAAAACBsEHQAAAAAAICwQdABAAAAAADCBkEHAAAAAAAIGwQdOFX8Aj3RvpfGLNzvbcgGGyer9x2vafFubz2RxaMaqFbdUVrsrQMAAAAAkBUEHThF/A8LNCV2l4qWLeFtyaKdC/TEfcO0uEh5VSjpbcsGOz8dqqu6TzoZkMRO0511G2jEj946AAAAACBfIuhAIvFaPG+a89+tGnON9bRIZmk2Nv29Lw4t1Yhb7tHbul3vPN9D1Qp427PDoZ1atXKntwIAAAAAQABBB07aPVdvvR2vy5+do6WLFiVZpunR85x92tRWtcDeqdu3SCO699IE9dK/3h6kFlHedgAAAAAAQoigA554LX7jRX1e5Xb9tVtVlSxT4tQlaqd+/VGq1ry2KnjXSNHmTzS45x2aYD05pgzRJWleAQAAAACA7EHQgYA1/9bgCTt19aB71aKIty2xjWv0lYro8pb1vQ3J27lglK66ZpCmbJQu+eudapuNdTkAAAAAAEgLQQcCtTT+Nla/dnxGj3XeqvE979D4b3d5Fwas/2GOflUPtWvkbUjq+C599WwPte/7ropc2U0Nvc3pM00jHh6rKT9uVfxxbxMAAAAAAJlA0JHfHd+qKQ95w0ye76YKzv9aXCy9cetlumrINK0/ZDut0ef/WiN1a51sb499a6ZpcNf2uvPDkhowZYE+eLB12sNbTlFbRfZP0xM3dVb985zjjJqmxbHeRSk4fDxeikqu6wkAAAAAID8j6Mjn4jcv1eK9l+mfE72CoQXKq22/SVrw0cOqOneoOnd4UBNem6SXthXRLT3a65SRKPvWaMqQHmp9zTCtajlK87+ZpL7NMjMtbTMNeHWB1iz6RP+6v432TRuq69o311UPTVJMCoHHzl8WSS2rpqMwarxiJn+iX+kpAgAAAAD5AkFHPlekVjeNfHeUrq7ibfCUrN9Lr8ydrAG1FmjEmE8UX+Ue9WyTpAdFwZ1a9XMDPfXRAs0c1i3r08eWqaVL+o7SB98s0AdPdpPmPafe7VvriQX7vR0yYeM0jXlyqN7+Pt7bAAAAAAAIZwQdSFnJZup5XWvnTBFdPaiXGiYNMqLa66kpz6hn/cz04khFgfJq0esZzVwwTU9166EOLZMef5e2bnROaldNY4jMLn086jktbvawerZimAsAAAAA5AcEHUjZtmn6+zMLVKTjEA3onM1hRnqUrK9bnh+kS2xIzSl26tefpIZVU485fp02RH+fV0UDnuqlOlntbQIAAAAAyBMIOpC8bXM1uM9QfaX2+seTPbI+LCU7bVyiz7YVUdsGtbwNp4v/ebKeeGaB2g57Vf1SnxEXAAAAABBGCDpwGgsJ7u3+oKbEttfIWa/q6mjvglxi1af/1qoq9+iaZt6GJNz733OYYto8o6d6VPW2AgAAAADyA4IOnHR8v1ZNflCtuw3TV9G3619zX1XPJEVKz7iNk/XE2J3J1wxxrP9gqK7zQo4543NZTxQAAAAAQMgRdMANONbPe02927XWVU9+q4YPTtKC6YN0SeolMHKeDae5b5hWdXxGj12ZfM2Qr6Z9It3wqhYQcgAAAABAvkTQAalAYe37Yb7irxyiDxYs0jv9WqtCLgwJ9u3cqF/PHaKZz3c7fbaVqAqqVquZ+r46VzMfaZ8r7z8AAAAAIPR87n8Hr/T7n23onkXutWLFCjVu3NhbAwAAAADkJNpkuZvvkVXSyEY+enQAAAAAAICwQdABAAAAAADCBkEHAAAAAAAIGwQdAAAAAAAgbBB0AAAAAACAsEHQAQAAAAAAwgZBBwAAAAAACBsEHQAAAAAAIGwQdAAAAAAAgLBB0AEAAAAAAMIGQQcAAAAAAAgbBB0AAAAAACBsEHQAAAAAAICwQdABAAAAAADCBkEHAAAAAAAIGz73v4NX+v3PNnTPIvdasWKFGjdu7K2Fxv6Dh3Tw0GHFHzmqhIQEbysAAAAA5E4REREqUriQikUVVYliUd7W0MiJNhkyz/fIKmlkIx9BRx4SyjfVkaPHtOvPPe6HhH04FC1aWAWc8wAAAACQmx1PSNDhw0fcH23tx9ryZUurcKGC3qXZi6AjdwsGHbRk4YYc23//Q8WLRSm6Qlk3CSXkAAAAAJAXWNvF2jDWlrE2jbVtrI2D/IvWLNyeHGVKlVDJ4qHt5gUAAAAAoWRtGmvbWBsH+RdBRz5n3btsuAohBwAAAIBwYG0ba+NYWwf5E0FHPmeFR0NdsAcAAAAAcpK1caytg/yJoCOfs9lVrPAoAAAAAIQLa+NYWwf5E0FHPmdViSk8CgAAACCcWBvH2jrIn2jhAgAAAACAsEHQAQAAAAAAwgZBBwAAAAAACBsEHQAAAAAAIGwQdAAAAAAAgLBB0AEAAAAAAMIGQQcAAAAAAAgbBB0AAAAAACBsEHQgxHZpSt8GqlXXWfpO005vKwAAAAAAoUDQgZCKX/CqntjaS7dc6W0AAAAAACCECDoQOsc3aspLk3XJ/Q/qmireNgAAAAAAQoigAyGzb86rGrHzQd1/ZQlvCwAAAAAAoUXQgdCIX6qXRn2iSwb0UsMC3jYAAAAAAEKMoAMhsfOTVzWhSLA3xy6t/zmwHQAAAACAUCLoQPY7tEAvPbNIVz9Ibw4AAAAAQM4i6EC2Wz/tVb1d92Hd35naHAAAAACAnEXQgey1e65eGrNGtzzYQ3XozQEAAAAAyGEEHchWqyY/p49bDtH9FxTxtgAAAAAAkHMIOpCNluqjsVulBUPVum4D1TqxtNfgBc7FJ7aP0uLAFQAAAAAAyFYEHchGtdVz0iS9c9oySn0bORc3ul3/dNevU53AFQAAAAAAyFYEHchGJVTngtZqe9rSRnXKOheXre2t11LJwBUAAAAAAMhWBB0AAAAAACBsEHQAAAAAAICwQdCBHFBePSes1sYJPVTB2wIAAAAAQCgQdAAAAAAAgLBB0AEAAAAAAMIGQQcAAAAAAAgbBB0AAAAAACBsEHQAAAAAAICwQdABAAAAAADCBkEHAAAAAAAIGwQdAAAAAAAgbBB05HMRERE6npDgrQEAAABA3mdtHGvrIH/imc/nihQupMOHj3hrAAAAAJD3WRvH2jrInwg68rliUUW1/+Ahbw0AAAAA8j5r41hbB/kTQUc+V6JYlBISErTvAGEHAAAAgLzP2jbWxrG2DvIngg6ofNnS2r13P2EHAAAAgDzN2jTWtrE2DvIvgg6ocKGCqnRWOR04eEixO//UwUOHKVAKAAAAIE+wtou1YawtY20aa9tYGwf5l8/97+CVfv+zDd2zyL1WrFihxo0be2uhYWPZ7EMi/shRt7sXAAAAAORmNruKFR61mhyhHq6SE20yZJ7vkVXSyEY+go48hDcVAAAAAJw5tMlyt2DQwdAVAAAAAAAQNgg6AAAAAABA2CDoAAAAAAAAYYOgAwAAAAAAhA2CDgAAAAAAEDYIOgAAAAAAQNgg6AAAAAAAAGGDoAMAAAAAAIQNgg4AAAAAABA2CDoAAAAAAEDYIOgAAAAAAABhg6ADAAAAAACEDYIOAAAAAAAQNgg6AAAAAABA2CDoAAAAAAAAYYOgAwAAAAAAhA2CDgAAAAAAEDYIOgAAAAAAQNgg6AAAAAAAAGGDoAMAAAAAAIQNgg4AAAAAABA2CDoAAAAAAEDYIOgAAAAAAABhg6ADAAAAAACEDYIOAAAAAAAQNgg6AAAAACCD9v6YoPvf8+uwt+5K8Ou5RxM0dYu3npxfEnTzyAQti/fWs8SvOW8laFyM31tPyq/vJiXo0olJ7mdGLU9QyQcTNP+otw7kcj73v4NX+v3PNnTPIvdasWKFGjdu7K0BAAAACBlr3E/0zicy8dEIXV/RObPHr4FP+dVkYIRurRK47PD3CWo8W/piaIRqJPuTsgUPfj2U4NMXfXwq6m3VUb/2xjmnhXwqFRnYdEKcc9lRqUiks38hb1siFmS8WNmn/1weaNqd4qcEXfqqtKOA9PgA535X8rYnJ8G5nQPe+aRW+VXtPemDZ3xq7W1KKqX7l5pnP0spoMm46mWk3q2T+RtkM9pkuZvvkVXSyEY+go48hDcVAAAAkHssm5yg6w76tOKvFlr49fEYvxZd6NPw5Brc1htim7P/WKn/iAhdHOnX1Bf8KnKtT1fv8ycbqiR2dZfkw4wUg444v557xq8dV/g0rLRf3SZJdw+M0PVeKHOalQk65w1ph7eaUUP7ROjhJt5KOtw72a93FmVf0GEs6HilV2jDDtpkuVsw6GDoCgAAAAAkluDX4eSGlgS3x/u1d59fZ7fz6Z1rvZ4Zq/0adUC6q4Xcy2w5YWWCLn0hQc9Nkc529r84UjrsNPIf3SlFV/Qa5s7purER2ucsXzQLBBt2PrieIRZyjPBrbSufhrV37l+TCH1yh/SWcx8e+yqFcKFRxInbP23pE9jli+Qu85aMhBxmyx/ZG3KY/63L/mMibyLoAAAAAIDEVvp11qBAXYpTlr852yf7teMrv6oNdZYX/Lr0Ge+y16Tlf0qNB3qXOct33uHUwKcRFaRndkm3XOhzA5M3PpJ6XuPT+UmHqqSgSOKWm1czw5ZLl0ofz/a7559b7ly2za+Bz/i1qKFP44MhjMPCjpmDnfUv/Wo8IkHzt5/ZUKDX+dnf8+KRK0LbmwN5R+CVwNCVPIFuUgAAAEDuk2qdjKAEv757069HnSbYmNJ+Xfe7Tyvu9oIICy4+8Wndoz5Z+Y+kx7P1+ecl02vCOeZzA/z6qJVPX/eSlr3n182LpJ43Oteb7Fzm7ZbY0Ft9unqXXwM/k4p08umDboHb2PF5gs6Z7Z7NlJSG1qTGanQ8+2n2BC4X1ZFm9Q/97/i0yXI3hq4AAAAAQEp2+HWz12vixDLCn+kaForw6fzbfLp7p18XLZDG33Cyt0WmrfProwRp+fd+zY/36ewmPn3wVISGtvZpqDekZF0XZ79mJ4fBPHyeT+deHqGZT/k0vlOSYCLR8JmTi08zW0sTHzx5jKRLhofWeHqf73MDiqzKqZADeQevBgAAAABIymn0/ydpo97rcWE9KYJ1OGzZc8zZduhkbQ5bDqcyFetd1/rUuZhfzw1K0PwsTDO7ebV0bhXneGdLb3zlV6kGPp1b0rswLSWdx5KOYTOHf/TrsZVSjUpeKLLDr3FTnceYEFjNiuplpVd6R2Qp7LBjEHIgKV4RAAAAAJARO6V+Xh0OW65bKX0crNvhLePWePsmsnmuX0+XChQIVQGpcwtp3Ofe0I0dfp3j9RxJXHcjuH46v+Yvly4+R6rYxqdznWPPjwsMQTnRA8VZ3OEoS08ey12S6ZlStIo0vIlzasedlKBxP/p1eJtf/d6VHuwfEaglkuDX1Dedy48HrhNU0bkPnVOazSUNwbDDTjPKrrPyCZq0OF0glqNGR57AeDAAAAAgh9jQlRF+feytumxoR7BXRyJp1ejYuyBBPb50DrlH2uxts54X0U4b/Zd46T/XSxd9nsEaHasTdOH/fHrnbL+mVIpQz18S1O0Pnz6p7Ffj33zad0fguhZ8DHCafSfumz2uidKYZB7HCbv8emasX8/tk0bf79Nd5zjXTXD+Fi/49WJZ5zacYxe1miOLpCZts2EIjmPLn1KjpzLWTWRWfxv6kvzfPFRok+Vu1OgAAAAAgJSkNnQlg0q18mmi0yj/eoTVufBpqLNt0P2BOhnDq0o/bw/sl35+zV8oXd7COev1rqhxuU+fdDk9dNj8m3cmI8o799G5bzObSOPe82vZHr/mvBwIOabd5t1GvLT2G7+6veTX5mwaxmLBRXqdiZADeQdBBwAAAABkwOFEtThsSa5Gh7sE629E+lSjoLT0lNDBr59ipKb3Rej66t6m9Nrm17gN0tXn+bQjOAaliHMbyaUwCVJ0eqawTRJWHI6Tml3v08Qa0kVP+PW68xiGNnEewxK/5v/o11vTnMdXwXlo6/y6dHT2hB0WXLzSK+3wgpADaSHoAAAAAIAkDi9KVNMi0fLxLr/GJarFYUtyNTps6edsC9rxvV99v/ZWPLEr/ZriXDc9duw5eaxl853/tPOpaUqtuUQ1OS5dLr0+LVGNjqTDcTzLJp98jLac9ajzGJ7w65kN0sUlncuX+/XGD34tX+MsG6Xo+j41aejTS8/4NEJ+dXshCzPSJNK7tU+PXJlyiGGXEXIgLQQdAAAAAJBEUesFkWha1uCQk+jyPj2ceDiLs9j0qld3OX361cQ1O2L/kNpX9VZcPrVuIr3+48kAIzWxcd4ZR9NOPg2/LPnGfsXLE92Hu6UmzuPoXEyaODjR9mSG4DS93qffX0i0z0iffh1lw2uc5X7nvjr7PHB3hPrf7CwdpBo1fbr4PJ9qlPTp+v4+TbzWue3AobLskSuSDztsdha7DEgLQQcAAAAAhJRfP2+UmlU/tZFe1FlvvcV/okBpulX06dy0hqPE+fXcf6RzO/n0nxul18Yl6Lt93mXJKeJT0WDr0LnuW+P8uvBlv/Z6mxLbvMSv60Yk6K11XkgT6dP5tbI3gOh9vvXc8FYcdp5pZJFevFIAAAAAICvSqk+xza/3d0qtz/HWgyr59J9HI1TDzmd4etmT1jrXPcWffj032q/Pz/Fp/GU+FW0SoYlXSI8+naBx36feg2TvTwm6f6hfH1f36ev+PpXytidW47IIfX29NPVlv26e7NeOo94F2Sg47azV7LDeHYQcyAheLQAAAACQnES1Lko+6NczzqbNpxWi8CezLQmbxeQ+n85PrvVVyDu1qWuDw0aSLDY0JjXxwaDFZkeZnKBWzzj3qak3Dax3UY32EZp2t0+xH/vV+IkEvbXcr8OJA4o/ncfnbK/2htTkdp8+uNGnUqm0Fku1jtDMoT61/sWvcx5J0NQt3gXZyMIOt2YHw1WQQQQdAAAAAJCUzZiSpEbHB62kGskMGSlS0DuTkiI+NT0nlcZ6dZ9m/kXJ9p4w59/o0/hLkru+X5uDU9PaUJUxfr0f79OEJyL00tWnTzVbyrkPw5/y6ZMrpPn/8WvKNu8CU9anB/oE6nLc1SidwYJznf6PRmjdAF/GZ44BQijwCh680u9/tqF7FrnXihUr1LhxY28NAAAAAJCTaJPlbr5HVkkjG/no0QEAAAAAAMIGQQcAAAAAAAgbBB0AAAAAACBsEHQAAAAAAICwQdABAAAAAADCBkEHAAAAAAAIGwQdAAAAAAAgbBB0AAAAAACAsEHQAQAAAAAAwgZBBwAAAAAACBsEHQAAAAAAIGwQdAAAAAAAgLBB0AEAAAAAAMIGQQcAAAAAAAgbBB0AAAAAACBsEHQAAAAAAICwQdABAAAAAADCBkEHAAAAAAAIGwQdAAAAAAAgbBB0AAAAAACAsEHQAQAAAAAAwgZBBwAAAAAACBsEHQAAAAAAIGwQdAAAAAAAgLBB0AEAAAAAAMKGz/3v4JV+/7MN3bPIvVasWKHGjRt7awCA9Ij5frG+WfSDfovdoSNHjnpbgfypcOFCqhxdUe1at1TbVi28rQCA9KJNlrv5HlkljWzko0cHACAsbf0tVs8896Kmz/xUv2zZSsgBOOx9YO8He1/Y+8PeJwAAhBuCDgBA2LHG2wsvv6Hfd+7S4cPx3lYAQfa+sPeHvU8IOwAA4YagAwAQdia9M4UeHEA62PvE3i8AAIQTgg4AQFixmhz79u/31gCkxd4v9r4BACBcEHQAAMKKFR5luAqQfvZ+sfcNAADhgqADABBWbHYVABnD+wYAEE4IOgAAYYXaHEDG8b4BAIQTgg4AAAAAABA2CDoAAAAAAEDYIOgAAAAAAABhg6ADAAAAAACEDYIOAAAAAAAQNgg6AAAAAABA2CDoAAAA6dBa9wz8m/5+88XeelK11Gvg43p+4HVq6m3JlJ79NW7U33RbdW8dAAAggwg6AABAOizSPpVRuWLHvPVTlbvqcrU8q6AKla+r9heX8bamoFwtNW3RRC2TWwoXdHcpVD6Zy7ylYVV3FwAAgGT53P8OXun3P9vQPYvca8WKFWrcuLG3BgBITv9Bj3vnkN16DXxazfZ/rkGvLfS2eBr8RY/d3EJRP3+oyYcuUJ+WJbRpziSN+2K7t0MSPfprXOsK3krGxf7wuIZP8VaQbcaNeto7BwBICW2y3M33yCppZCMfQUcewpsKANJG0BE6yQYdXshR6reFevOlz+V8vVDDnv3Vp0UZ7ft5vib8a762BvZMHxu60lKKGTROk71NyBkEHQCQNtpkuVsw6GDoCgAASJlbM+Npd2l7lhRZ+3L3/GM9paqX3qzhFnL8vuhEyGFWTRmn52f+LNXppL8/1V+3XVxL5bzLAAAAQo0eHXkI6SEApI0eHSFS7i967O8tFP3bIj35z191+f91U9vKBfXH8o1Sk7rJBhmxiz/Q6lKddFHtMjr2y3wNevlLd3vHux/VtbWLuuczI25DMsNnkGX06ACAtNEmy90YupIH8aYCgLQRdITIVfdq3EWVnDO79cMbL+jnBtcpevOXmrF0d+ByhxtglFit/qM/9LYElGt2gRoeWagFqwPr7n6Vf9OMJ/6teYFNnrq67aGuKvnTLI2b9bO37VQp1glBlhF0AEDaaJPlbgxdAQAA6datRgXFHTysffsLqWHHCxTz0QenhByp+WPpyZAjNQ1v7KqW5Y/pj01eyHHRjXrsgevUnnEvAAAgAwg6AABAGjqpbvR+xf4hHdq0UYdqnq++DQI9M4L1O2xxh6Oc1eKUbeOeul0dvaME7du1U7E79mifWui2gYP02I2tVffS23Vbs0j9/Pl/NNlCkXIXqH/HBioVEadDgau5/vjdue6u/d4aAADA6Qg6AABAqspdU1c1D27Xz0edlSMfKGZLCTXt8hcVsgt/X+wOF7JlxobDbv2M4Hr/mRsVZ/sk8cO0NzT85Q/1gxbry5gtKtSkq/p3rqw/Fn6gcfN3B0KO+y53bnOx3vznLGe/1rrt1q6yQbafvzVOz09bHjgQAABAMgg6AABAKmqpW71K+mPzdyd6Vnw+d6E+X/ShLPdILLpExguMbl34np4cM0vL/iioqi076fqWF+ueezqpZtxyTZ70YWAml4qlVa5Ga/V57GZ1ZBgLAABIA0EHAABI2aWd1LTMdq36fOPJIGPdl/rkf4GzJ5VRoQLS0fi0hpWUUblTwooyqlslTkvnztcPeyuofc9Oqntsi1ZvlRpedp1uu/FmPXRFXUXGHZBK1dW1999O2AEAAFJF0AEAAFJ0fZNq0pbVmvqHtyGpEzU5/qaW5aSSDa47WZ/jqlqK9HY7abcuv8273Lte/5st0OikpmWlo8ekQuVqqW7NSqpa2VnOKqh9v23X1q2r9Pl78/Wzauna+24+re4HAABAENPL5iFMZQQAaWN62Wx20eW69o/PNWP1/7P3N3BV3of9//8mST2ZnXRmmr/9CkuDJBtiWtS0aF1PiCtqFoxpjqUTa75iyE9SXUhjQ9XpNNOqobUNmS74k6hfmWRl0kal84bW6tm8YY+I/BqR7yywWHBx4uJybKzHRc//us65gMPhAAcEhcvX89HLXNd1Lq6bz3Xo4/F587kJTO364G/+Wt8rsT4L8oczXtDKicP1Pzc+0b/vfzMw1kYH/nDUw/rD/z6jM83hyehxmuip1LFGY/0rc5U3fYiqcv9WxcZmzKQn9cUbR/XTY9b5Rk9VxoP/ruIOpp9Fz5nBEwCgc9TJ+jemlwUAAF3750DI0anRTys7+bP6Xd0v9FbVZT049Zv630lDrQ/b+6+64JBjql7++tPK+N9/oYnWrlZD9fDoRE2e8bxenv55+XusnN5PyAEAADpF0AEAACL2mc8kW2sBfzhxpv7qG+P0hx9W6v9sPqLqkr9X2Znf0xf+4gX/tLEx1nHtfVYTZzyv7z07SSM+qtD/KfgHHbM+aXVJBzdv1j+e+h/FfGWmvvvyTDk7PiEAAIAfQQcAAIjcXff4/2POkJL18lKt/NrnNfg/j+itH1gzpJjhxLbNKj7yH/5pY7+7+tt62fWYEoMDiuSZ+qvVLyhj4nB5KnbqNXMK2Y7GADHO5/77H+l7P/2VPvrM5/X1hUv1l1Nirc8AAADaI+gAAAARmKQ/HGKtjn5a//uZx/TwXb+Ru+RN/dXf7bdCjmaX9O6ebVq5fqf2n/lEI744SVNHB3VlqfiF/tl9WP/n+2v02k9/pQ4zjiD/dWynvrfiTf3j3l+o+ECDtRcAAKA9BiMdQBj4BgC6xmCkQM8wGCkAdI06Wf/GYKQAAAAAAMB2CDoAAAAAAIBtEHQAAAAAAADbIOgAAAAAAAC2QdABAAAAAABsg6ADAAAAAADYBkEHAAAAAACwDYIOAICtDBr0KWsNQKT4vQEA2AlBBwDAVv7XiP+ftQYgUvzeAADshKADAGArX05+VPfe67C2AHTF/H0xf28AALALgg4AgK1M/OI4RQ8ZYm0B6Ir5+2L+3gAAYBcEHQAA28mcnc6YA0AEzN8T8/cFAAA7IegAANhOzP8aoW9/63ndP3wY3ViAMMzfC/P3w/w9MX9fAACwE4IOAIAtmZW35a+8qGemP6HP/VEMLTwAg/l7YP4+mL8X5u8HIQcAwI6i/P8uPuXzrU30r6L/eu+99/TII49YWwAAAACAW4k6Wf8WtaRaWjcmihYdAAAAAADANgg6AAAAAACAbRB0AAAAAAAA2yDoAAAAAAAAtkHQAQAAAAAAbIOgAwAAAAAA2AZBBwAAAAAAsA2CDgAAAAAAYBsEHQAAAAAAwDYIOgAAAAAAgG0QdAAAAAAAANsg6AAAAAAAALZB0AEAAAAAAGyDoGMAufvuu3X16lVrCwAAAABwq/zud7/z18nQ/xF0DCC/93u/5//lAgAAAADcWuYfnc06Gfo/go4B5A/+4A908eJF+Xw+aw8AAAAAoK+ZdTCzLmbWydD/EXQMIEOHDtVdd92l//zP/7T2AAAAAAD62vnz5/11MbNOhv6PoGOAGTlypD788EP9x3/8By07AAAAAKAPmXUus+516dIlf10MAwNBxwBz7733Ki4uzj9WR21trT/0YNwOAAAAAOg9Zh3LrGv9+te/9q+bdTCzLoaBIcr/7+JTPt/aRP8qBg4zVfzv//5v/y/e9evXrb0AAAAAgJthzq5iDjxqjslBd5WBI2pJtbRuTBRBBwAAAAAAGPCagw66rgAAAAAAANsg6AAAAAAAALZB0AEAAAAAAGyDoAMAAAAAANgGQQcAAAAAALANgg4AAAAAAGAbBB0AAAAAAMA2CDoAAAAAAIBtEHQAAAAAAADbIOgAAAAAAAC2QdABAAAAAABsg6ADAAAAAADYBkEHAAAAAACwDYIOAAAAAABgGwQdAAAAAADANgg6AAAAAACAbRB0AAAAAAAA2yDoAAAAAAAAtkHQAQAAAAAAbCPK/+/iUz7f2kT/Kvqv4xX/aq0BAAAAAG6HCclfstbQ30QtqZbWjYki6AAAAAAAAANec9BB1xUAAAAAAGAbBB0AAAAAAMA2CDoAAAAAAIBtEHQAAAAAAADbIOgAAAAAAAC2QdABAAAAAABsg6ADAAAAAADYBkEHAAAAAACwDYIOAAAAAABgGwQdAAAAAADANgg6AAAAAACAbRB0AAAAAAAA2yDoAAAAAAAAtkHQAQAAAAAAbIOgAwAAAAAA2AZBBwAAAAAAsA2CDgAAAAAAYBsEHQAAAAAAwDYIOgAAAAAAgG1E+f9dfMrnW5voXwUAAAAA4HYqOu7T1qM+nf5AunLN2nkLDR4kjf6slPnlKM2ZEKg2o/+LWlItrRsTRYsOAAAAAEC/8Ktz0rjv+bTknRt69+ztCTlM5nXN65v3Yd6PeV8YOAg6AAAAAAC3nRkmTHn9hmov+OT5Xf9oRWHeh3k/5n0RdgwcBB0AAAAAgNtu7jbfbWvB0RXzvsz7w8BA0AEAAAAAuK3MMTkuXL5hbfVP5v2Z94n+j6ADAAAAAHBbmQOP9pfuKh0x78+8T/R/BB0AAAAAgNvKnF1lIBgo93mnI+gAAAAAANxW/XVsjlAD5T7vdAQdAAAAAADANgg6AAAAAACAbRB0AAAAAAAA2yDoAAAAAAAAtkHQAQAAAAAAbIOgAwAAAAAA2AZBBwAAAAAAsA2CDgAAAAAAYBsEHQAAAAAAwDYIOgAAAAAAtvP/fPMuNayJ0l9a27hzEHQAAAAAAGzjC84o/XzFXfrBF6XPUOO9I/HaAQAAAAA2EKU9a+7SP7ui9KUh0n/+ztqNOw5BBwAAAADAFkYMkv7ttE/Prbuh/R5rJ+44BB0AAAAAABvw6YvfuaEvbvLpHy9au3BHIugAAAAAAAC2QdABAAAAAABsg6ADAAAAAADYBkEHAAAAAACwDYIOAAAAAABgGwQdAAAAAADANgg6AAAAAACAbRB0AAAAAAAA2yDoAAAAAAAAtkHQAQAAAACwnYVrbih6sU9/a23jzkHQAQAAAAAAbIOgAwAAAAAA2AZBBwAAAAAAsA2CDgAAAAAAYBsEHQAAAAAAwDYIOgAAAAAAgG0QdAAAAAAAANsg6AAAAAAAALZB0AEAAAAAuK0GD7JW+rmBcp93OoIOAAAAAMBtNfqz1ko/N1Du805H0AEAAAAAuK0yvxyl6N/zWVv9k3l/5n2i/yPoAAAAAADcVnMmROn+If27emren3mf6P8IOgAAAAAAt922uVH9dgwM877M+8PAQNABAAAAALjtPj9SOvDSXYq/v/90YzHvw7wf877M+8PAQNABAAAAAOgXzDCh8q+itPbpu/ToA7dvlhPzuub1zfsw74eQY2AJtL1ZfMrnW5voXwUAAAAAABhoopZUS+vGRNGiAwAAAAAA2AZBBwAAAAAAsA2CDgAAAAAAYBsEHQAAAAAAwDYIOgAAAAAAgG0QdAAAAAAAANsg6AAAAAAAALZB0AEAAAAAAGyDoAMAAAAAANgGQQcAAAAAALANgg4AAAAAAGAbBB0AAAAAAMA2CDoAAAAAAIBtEHQAAAAAAADbIOgAAAAAAAC2QdABAAAAAABsg6ADAAAAAADYBkEHAAAAAACwDYIOAAAAAABgGwQdAAAAAADANgg6AAAAAACAbRB0AAAAAAAA2yDoAAAAAAAAtkHQAQAAAAAAbIOgAwAAAAAA2AZBBwAAAAAAsA2CDgAAAAAAYBsEHQAAAAAAwDYIOgAAAAAAgG0QdAAAAAAAANsg6AAAAAAAALZB0AEAAAAAAGyDoAMAAAAAANgGQQcAAAAAALANgg4AAAAAAGAbBB0AAAAAAMA2CDoAAAAAAIBtEHQAAAAAAADbIOgAAAAAAAC2EeX/d/Epn29ton8V9nP54yu6fOWqrl37H/lu3LD2whR1110aNOhTGjL4Xg359GBrLwAAAABgoIlaUi2tGxNF0GFj1/7nE1348L/1iVGZv2FW4u8dJBnrCGIGP1ev6a6Pr+geY/3++/5Agz51j/UhAAAAAGCgaA46qPXalBly/MeF/9K1Tw/WjeH3SYPvJeQIxywTo2zMMjLLyl9mRtkBAAAAAAYmar42ZbbkuPGZIdLv0x0jYkZZmWVmlh0M1y/q2MZsJSeNVlxyhlaUNVofAAAAAED/RdBhQ+aYHGZ3FUKOHjDKzCw7swzvdNWFczX7cJxe31Whw3/3mBqWzdOaE17rUwAAAADonwg6bMgceNQ/Jgd6xCw7swxv3mUdy8/U9GfSlPT4JlVbe3uqMj9NM1/JV8mRRt1M3ODZm6u45DTjvnK0Ij9fRWUVqj57Wd7r1gF+NTr0D/XKejlXEx8Yotjx87V00RAV/qLG+ryPnciz7tGlwiprXy9rKs1W3MOjjSVbJeetnTfjeqNKjPIqqrls7QAAAABwOxB02JA5u4p/4FH0jFF2/jK8aUM0/D6Pqk/Vy3PupKpvpjLtrdCurfWq3LVJK0prbiLouKxD+8qkS/XGfZWraKNxvpczNT01WQkJY5U8I0crisuMe43wCt7L8lyylvPG/R2p0DFzKSvW+vx8rV+Z4w8rpjvHakp+VcT33dRQb91jtKKHWzv7Na8q12drcVmZVsxwaqbxrrr/jrw6tHKsFb5YS1apmqxPAQAAAESGoMOG/FPI9mjgUa/OnqjRb9v8Zd90WQdfdio7c7n+5Wxgz7UjecZ2rjaV1etaYFeHzhZna+nGCn3Y7rw36XievmpUBp+eVSzrtnqHUXa9NQ1v/KNTFOtfc+voyZ7/pd9TXqwif2+aGC2cl6po/96eGKKpS8q0c2uB1uXOV9aMZCWOcFifedVUU66ilctVUpeglL+IU+HK1Tp09rIaTmzSmvWXlfVnCdaxAU1lrygpOTmwONM0MzNTs83l5dXauHGTNhaXq/pUjT84qd24TBuqIqv+X73WfNwo3T/MWu23vKrMz9DswvrAZtwsLf1GnJpLNWL1pdpQ3P14BAAAAEBbBB2weHU636XnZrmUs6xcHwSHEucP6OdlF/WbB1L1pQfMHZf1r6Vvq/aIR380Nk6dtR350L1af7PSrX/dnKe97xmVuPOlWjnNpexnOl6ee7lMH1o/36lPBf7z28+Pkv+2+qMEp9JHBlZ3V5yU97pXnkuNqj5SpqL81XrhmTStcXdVub2sQ+XlgdWkuXpqTGC1pxwj4jRuknFfWTla+v2t2uM+qfoqtw68nadXM1IVn5Ct9AkOJWZt047pjfrujGQ99q3Dil29RUvHt62+OwY3Ry5DFD8mQYnGMnHGXC1YMF+v/jBfiya3phTxrhylPxJZ9b/p/YrAypg4xXQ7MajSmuBWER0syUvc1vFuLXaGOyZPldYRnWkozdHsjVYrm6Gpev2tXI3rds+xy9q/4fv+643LnKupgZ0AAAAAeiDK/+/iUz7f2kT/Kga+f2/4QL7Yz1pb3XC9UQdfdmnN3st6IKtYb+YmaZAZgORN14uFV5WU4VLiUOM4T40OFrn1QUKaZk+2avGG+/50nmaMH2JteXW2OFc5K8v1W8Xp62+Xar5ZST5fqqXO5fpX66iwnKtUUujSfdZmh07k6auztknGvf7cuNfeFGWU4YPdLEOvxxrnwtOo6kaPuUcNNSd19MAm7e5knImUtW5tcXXSbOFssWamrjYqwQ7N2Xpcr07qds2/Y+dK9dJ6r55fmaHEnjcTae/6ZR3bMFfz/AGAQ+MWbdWWrCRF32193oYZTGSo0NqKRNbbp7V0vLXRTvfPF95c7TyTq3HWVjgNe5fruZxS1Zobg51a97OClmCrO7zGd3mK8V1uGJyhLSUJ2p62XIfMD4zfhQrjd2FA9N4BAAAAbrOoJdXSujFRBB021OOgw3S9UXvnT9HfNmVoZeEyfelysV6ctlqnrY878yWjwr7GrLB7arR37StaX2o25Y/TjMJt+ktnz/sffGhUJpduDnMHVxpVW39ZGhqn+JHhKv+j9c1Nq/SnPagldj/ouKiSLKcWNzcS6JTZ+mGCJj6WpMRHxmrc2CTFmwFSB6o3TdH09Y1GUeZoz8/mKzFsWNAD3iqtn5GhjeZrGjFfO8tzNK43MhTjO7R/WbZe8L//IZq6tlRvumICn4XV20GH8WiXLgdaWHTmZL6SsouNlWS9uusNzRgR2N1qkKKHdlwgnuN5mvnstpsOOaRGFaVP0YoqKX5RqQ7MOK15ToIOAAAAoLsIOmzspoIOU1OjPrwvRvd9UqWtRkV4h1lfDWo18WFpttKXuPV1o7I5P1xls6lMa1JzddCRqr8sytOMe6pUNThZSe0qkpFpvl73ObXIXaAnenDdngcdDg1PiNP9ZhjxmVGamDRSjuGjFHvmDS0ubjQqxBnacnSZUiLt2nC9Rhu/6tL6c9LUH1bozbTmFjM3r6E4Q4+tNJuaxCnr7dJ23VJ6xD/ziEuL95rjkcRpTuE2vRpByNUmmDi/Ry/MWK1jxmp6vltLJ7S/L0f0EDluNvAxZ3YxWwQpTW++m6ep3WjR0nshh/Hs7tVKMn6/vION+/ilcR/eUoIOAAAAoAcIOmzspoMOk1Fh/Zdl2Vrp/6u8ISlNsycFanK/rfmZdh1s1OgZ8zW2+Q/1o13KTG39q/2HJ9z68CGn4j8daCGy3p2g+YXZ+s3rBfq1dUyn/ny5CrLaBistLUaaddh15aL2ZjmNa97KoKMLl8r10uM52n3F+qv9/LaDenbEe8SoBGealeAM7ahYpom90eLC76J2Zzv10kFjNaNANSud3R88M9SVehW97NKKg15/5f/VknzNebgHZ20JIJK17pdbexwgtOGp0e6CAm0oLVftJXOckiRNfUTaXW4GPV13UQnWJuSIc+nNt1Zpak/v0QyynnRpvfFr1vK9OE/QAQAAAPREc9DBYKTowL0a5LimByY7FW9uVpVpx8ZN/sUMOUyndwW2/cvJi/59ze4bb/xctFen12drvVv6bGauZjzs0X+dqlFtJEtEo5EOIENTtXBRIIypXb9KRVZ+1DmvKg+W+ls6jMud24shR8DVT6wVh6MXQo4qrZ9lhRxm5f9nBT0LOQwNdTWBlcFJim8OEM6Wa/3aXM1+xuWfrnZKcsjAoXmdDIJyqVyLU116qbBctYrzD5ga662yQo7uaXKvDgo5MrSl6CZCDkPTO/n+kEOD07QoPbLwCwAAAEDnCDoQULW17ewnX8/XtewDemt5amBQULPVxJnT/qVkrdP/I2bXleZ94QYD/aAkR9/xT7np0l/mJGvQCJfWNB8fvLw9N/ADQdfo7cFF+4P4jDyt8xddlVZ8a5Oqu5pu16igby8yW0ek6flJ11SyMkNJZqU+OUMvFVuzfPTYMCU2N8fZulUl5wKr7Zj32NV9eiq05pkMbazxypGUoVefHaa9y9IC9+q/3zRNX7BaRQfr5enqXMZT1Z22ZlyZPDoQspkuntTGrWU6dqrGP12t2SojUtXF31eJ2Ypj8iodPlqmPT8p1YGjB7RucnMQU6/a89ZqZ85s1WzjO+oPOZJyjPMsU8rNNLXwVmnzhkCXrHGLsjW1k3FaAAAAAESOoAMB15tCWlU0yRxlQc3jILxbrK35+f5lR3mgOUL1PwS2/Ut5oJWH3/XLOr0pQ88tc+uaf8cQ/X63p9u0obtjlP7qqsD4HPX5+vb6qk7DCs+Rcu03/hvrGqUT89O0uLhK5lwuulSl3Ssz9F3/OBjdEBIyJKbNtbpruLX4uTwd85/c0lShja9kKHn8WL10oJPrNLm1Ij1T/jzL4K0q1oqVm7T7tHHf/ulm4xR9qV7V5cb+7DQlP5Pf9jrt1OjEO4G1xLGj1DJsxrCxWpC7Slu2btWOrcU64K5QVUXQsrCjYKxR1RWB72Z6Rppim7/P5ruYO8vaqFBtR0FPkKbTxnHWeuITqUq8ye90bUmeCs3rDs7QovS4wE4AAAAAN42gAwHjc1taU7yRZe0L1o2uK2eL5+tFoxJ/bWhCa9eDXlCVP79tq5O/Kg18ULqs7f5n5mvru4GPbgtvoypL8/VSZtsuFknTXHphs1dPrwwEDLWFmXqhNCggaqNRu7aX+9caivJVeD5BWT8sU0V5np7yV7C92l1+PBB8BPEYny8urWnfcuJ6hdaMd2peXqmOnbPilQcy9KO11tgc9ds0Oz1PlVf8n0j3RUvvVqnpinGdfYfbXcfvXLkWz8lu7YYzNElzVhbrcNVp1VcEWk7s+UmZqmpO6nDBXH8w4K3ZFGgV0VHLjvrTOuS/B4cmjg6q/D+QqkVZLqVMStbESUmKHzFE0UODlg5Dh2vy/jaw9tHHgditmedS83fWq2Onmx+iY8MfcyndanVRvdalmZuqImih0oFL5dpg/I6YUpZn93q3JAAAAOBORtCByHSj68oD6Tn6etJ8/aB8tb5i7esN184HtzgxFnNqWdOl+rb7jeXD5gr7LdbkztP05CmauWSTdh8x7iWoi4Wnvkb7i1frpdxtqvTv8erQkulaXB6mxUS9WyXNQ0j4B/Ys1tK0OA1/IE3f+Ia1v+xkSwuDZh9dqlHJEpeSvrzJuoblbJ2OXbmoQ4XLta/O2meIdeVrR5YVKJhhx7LyQKhxd4KmzrPGjNhbpn2hXTvOlemFZ3JU4s8HHErMLFDF0WK9mpGk2NDQ4W6HYifnaucbGYFQpWq1NnTQSqTppFvV/jWXvjzGv3KTRip+bCBF2J2fr0PNz3HerfX5ZdaGVP1Bp81MAoamal15sRb5Z6fxqnJ9hpwvF6u2B981szuNOTCtRs7VwrSeT70MAAAAoD2CDvQ+R7Lml+QoKdqr30bQJSBS5qwrLcGKuYQb28O/uLUokMXcWv7WCttUbVRgHQkuvfr2AVW9d1r1xj35l/cqVFVeqi1r5yplhPUn/LhZSp/UfsrY6r3GefxrDqUsX9ZmYM/4h5sfrl6NTdaqpel9a3yLR4YpNrDm5/m3Kut8yUoc1Xou8/zjFhW0jFfhLcvVenegxUf8JJcCczG5te9I8GCzF7X/9VXa7w9x4pT+wz3as8Sp4V1M9+qYlKY5Vgiy+72gtKXFZVUesaYRdiYoMfg2e8yhifOs6XzrizXPabWwcQa1ROmO6CQt+Ps9etMVCIc8e1dr+qw8HQp5D52r0q58qyXPuW2a+Uhrq5/AvVkzrpjcy5Vs7V9zwtoHAAAAoFMEHYhMV2N0GMuuE90cMyJC96V9X+9UVGjl05H+5XuYnig0A4+eTS3bU5V7CgItLEbO1Za3V2nO+BhFt8kUhij6gQSluHK1xX1SFVuXad0PcjQutAXEdaMivNmqCCe9oqVPt07ba4oe3rp9tU3XiUbVnrJWY4a3jm9hqH0v0A1GIycoMbQ7kTlexfJlSvFveFW0vUz+envcBKVbrSoOHTkZ1H1lmKau+7l2LHBqwfa3tS4tRt4zZVqzoHkA0mRNyVytkpqQ74NxnfhHrfUzdYFrBPOe1FGrkUXiY2N7b0rVkS5t2bdVS2ckabhV1tFxqVq0tUBLredL/GxwaXXBeI6pa0u1Z1GSv4WKt2ab5qXlqORs4GMAAAAAtxdBB9pqcusXB82Vev3m/aChMrsao8NYKoKP702OIfr9oUM0qIsWA7fXRdWesZ5/8mOaGBpehDF8UobSx7RvtuA9XqYiqzvE1GenKz7kuR2fHmSt1aspePYRT42OHg+smuNbtJ65Rsf2Bu7NMTmpdSaTYCPT9GyGte6uUKU/1YjTuKlWqFJm7At+vXcP0cScAi2aMETeqnxNT8tVYXm9FYZcVu2RYi2e4dS8NmOQNKqheeyUkCDG5H3XrRL/WoymPdo8PsdF7c4e7Z+5ZfHetlMYd8uIZGV9v1gV5vghZ06ral++su4+riJ/MBQyHkhEHEqcX6wDq60xTswpbGdkq6j5O9CpUUr3D6rawfLDuVZLGsOYuXrd2s94pQAAAEBkCDoQcN2onJYuV3ZqtnbVOzRocKP+MTtHuy4+ppU1wd1COlhqTmrpZIeu9WBwxmsf9U1LkFvt3nuslYNVXU8d26HLOlRaLH91eXCGnk1t363FHPMiEGI06kJTa8Xa4y7Tbv9ajL78SFArkBp3y/Sx6Y8FWiG059Co0cnWukcfWUFLfEJzNxm3qsN29TDud/smf0uWlCWlqjK+K/U1Fdqz3AwAzDFIsrW+yrrHMyetgUalcQ8HBzEmryoPllrP/VVNfNi/09CoU2bwdqle0ff34lgWZ0v1QvY2NZjrcdma0cPZjGPTC3QgLzUQ2lwxZ6DJ0PoTXYUdQxTvH1S1g+XRUa2tWe4b1bI/nulnAQAAgIgQdCCgcY/eMCqqtVfi9ET+Hv3Tz1bpS0bl9m+fcerPE0brq8lpITObpOnph439zUvCWD2dnK+qT6zzdcVbob9NCvzsn2cHZk+J7073gX5nmMY6rdryuXzN/Ga+DtVflLe7gcelw3rH6r4R+7wr/GwcI2I00Vo99J6VPlyp0oYNzd1TXEqxxhE1VR8sDVToB2doWrJxwg7uqen95tFPWzkeTrC6tDTqxL+Fa1Hh1Uf+ZhwJevyxBEWbrU/uHqLEOd/Xa0+Y++u1cWu5mjw1KvrhG9Y4IU6lT27bHUfeKu0rDQQEDtdjSgzTeqfhg14IxLyNOrYxU0mpy63QJU4L1s0Ne71IxT6drz3Ns9dcqdHG5yIJOwAAAAD0FYIOBDwwXemuVP1lWakWPWFUQo3K8hp3qZaa4y6MSdB93tCZTeplzdopDY1TvHFM/IwkxYdvLtCeI0lfcTUfPEQPpL6i71gDPHbbuUZ9aK3eTrFP56p5AhPviU2aN82phITRSnC6NP2Z9kth+1xBDXuLtd+/FqP0yUFpRbARozXeGmejIT9DyTNcmvJ4hgqtGVCeys1o7frgrVCJNd5HS3Bytliz03O1vtSt6rOX5bl0WQ1H8rWm2KqcJzk1sXlskxGjWrq6HDoT3A2l2RDd788sarQmr1jVLS1MhihlWlpgde9yOY0yWHHQ/MyhlLXLlB4ydor33XKVWK092rY6GaXx1mn2r3pRG8uqVHs+cM9tlw6CBa/xbKcqtLs4Ty9lGt/lR6Zodn5FoIvN0GQt/YnxfU+K9EvbsVhXgQ4QdgAAAAD9QpT/38WnfL61LVUjDHD/3vCBfLGftbbQE1FGGT7YkzL0VKkw90WtP3gx0A2jE1lvn9bS8daGX6OK0qdohRmAJC3T4ZKMNjOnBGt6J1vOXHe7a8Sb08WuTW3t+nDdq4aqMhVtLlf8kgKlP2DsO1+qecEze7QRZ9xXqXFfzZX/i9r98os6+IBLz85M07iRYUKBc8b5nmxuIdGJoUnKWvuGlk4O7YLi1aGVYzWv2FzP0Jb3likl6DLeqk2aOTffP5tNx+Zq55lcjbO2WpjdSb6c3TLmid/gYUp5/vt6LTu5y5liuseryjyXZvoTpyGauvptvZ4e2kUnAsHvx7lKFYWu3huYFQAAALCxqCXV0roxUQQdNkTQcfN6HHRYvOdqtP/wHh0sr1BdXb2qzwdHEg4NT4jT86+WKit4bAgrlCj5h1JVjs3TjoyQ7h1teFVb+n0tzjeONc5tziKSvjBbC5+wuo90xuy+UVaqH5e5dexkjZrMEMCo/CdOStPzOTl6Kmgq24g1Valk61YVHTyu6vrmLiaB54x/OFnTnpipGY/FdXhvnvoK7dtZrCJlaGducvtw4Lxx/h8Xa9fh06o+1TzoaavouFe0ZV9m+6DD4HWvVvKyk5o42aUnZjo1NSFGjl4NOIJcb9T+FW+oduZyLUgKM74KAAAAgD5D0GFjBB0372aDDgAAAADArdUcdDBGhw1F3WW81hs3rC10m1F2/jIEAAAAAAw41OZsaNCgT0lXr1lb6Daj7PxlCAAAAAAYcAg6bGjI4Ht118ddjQyJjphlZ5YhAAAAAGDgIeiwoSGfHqx7zK4rvyXs6DajzMyyM8sQAAAAADDwEHTY1P33/YHu+ugyYUd3GGVllplZdgAAAACAgYmgw6YGfeoe/a/7/1CDPjYq700fSleuMkBpOGaZGGVjlpFZVv4yM8oOAAAAADAwMb3sHeCyUYG/bFTmr137H/kIO9owZ1cxBx41x+SguwoAAAAADFzN08sSdAAAAAAAgAGvOeig6woAAAAAALANgg4AAAAAAGAbBB0AAAAAAMA2CDoAAAAAAIBtEHQAAAAAAADbIOgAAAAAAAC2QdABAAAAAABsg6ADAAAAAADYBkEHAAAAAACwDYIOAAAAAABgGwQdAAAAAADANgg6AAAAAACAbRB0AAAAAAAA2yDoAAAAAAAAtkHQAQAAAAAAbIOgAwAAAAAA2AZBBwAAAAAAsA2CDgAAAAAAYBtR/n8Xn/L51ib6V4Gbcr5U85yrVT1/q9yLkuRQldY8nKGStHyV/zBVw8+Wa/07p62Dg41Wek6qYo0177kqVb7vDewOMXx0smKvdPy543NJGjfSYW0BAAAAAO4UUUuqpXVjogg60Lu8bq14JFtFWcWqz00ydgSCjsLm7RN5ipu1LXBsMOcqVRS6NNxYbSrNVvISd2B/iKy3T+v59zv+PGWtW1tcw6wtAAAAAMCdojnooOsKeo3nRLHWF5TJ+GpJ7xrr+fnGUqzK5u3iKnnMdYMZWNSfMRe31jmtnSHmFFSoqiKw7FmebO1tFfx5VUGGtbeXXL+syuJczUwerbiHRyspfbVKzgS1IjEDG2N/h0telXVgCE+5Xnp4ijaesrabXb+oQ6vStOaEtd2hy9qdY14jL1CukbpSr6LsbJWct7abGc9ZXbpaM51jA/ednKYXNlao6br1eUe6Kp9mZ91ak+1UgnnuJKfmRXLuvmSH93q+QhsXpCnJf09jlTyrfdl7z7lV+EqGkpMC9500LUdrDjZan3ZioL5XAAAAIAhBB3qN9323Nm4sC1TUqsqM9U1ttw/WKUyVqUNF2clKSg4s01dVWHtbBX+elF1s7e0NXlWun6WZ2x2a8XcHVOUu09+MPakVaZkqqrcOScppDVmCl33LlKIYZf1ZgnVgWx7jXLuT5uqpMdYOk1FxXf/NVM1rOXknaoq1Ya+1HiFPTakWP5OmFQetHUGa9rxiPKdH01aWqqLCrQNrU9W0OVPOVe5O3lUE5WM6V6p5M3JUmbBae9wVOvxWphzbuzp3X7LDe63S+mkv6ugDmdpSbtxX+VYt/NxxLQ4pe8/J47owIUc79hnHGPf25kypJHu65r1z0ToinIH6XgEAAIBwzK4rQK846fveQwm+B1/c4jv6L8eNZYsv29x+7WTg43df8z1obLu+87rvB6+byypfZorx+XM7fRcCR/gu7JzvP+avf+HxffRhYDm1fa5/3/feDf/5R79Y5d+XubPJOstNeH+Hz/VQqm/De9a2X5Pvx88l+P7kb477rlp7wjlV8KTx7Ht8H1nbbTX4tn89wZe9x2NtN/n2rZjl+4Jx31+YO9e4ZuD5OmbeQ5IvdWqq8ayv+U5Yezt09bRv8/yv+P7koSRf2txZPudD830//sD6zHLh5GHfrz+2NixXf7HMOP98367mFxIqovK56jv6N0ntyuKq8f6dD83ybX/f2nEr2eK91vmOHg75jn9S59v8NeMZXrd+x8K66vvlira/Z+0M1PcKAAAAWMxsw4w4aNGBvrH3+5qdmWks39d+a1ewyl1maw9zKdahc9bOELerRUetu1SVY+ZqavBf5zVMjz/hlLfosCo7aqJ/qUwb1l/ToufTFG3tauPUz1R4JkPPpg6xdjSq9nSMFm51q2prjsZZezvidRdohecVLZ0XZ+3pwqU6nVKaXtvl1p61Lo2ydgcbnuRU/GBrw+L44yRNNP57tYPnjKh8vBXaV+TVHFdqm7JwJE3R1MFV2lcRQTeKXmaP9xqnic6QMWjujlPiF43zdNqcwqFRo5OlD736yNoTaqC+VwAAACAUQQf6hjn4qH8MjmJlWbuCRTJGR+sxrcvS8Ubl3FXQbn/923Otn7pZl1V3skb64ijFW3uaDf+cWRGtV0NTYDtUdfEb2h/afaGFV8d+WiA979LElklhkrSgJE9ZkyIYPPVKhdavcGvOd11KvNva15URaXq9IFdPJTRXwCN0vs7f3ehe6zreqnxNSXKp0CiWiMunvkaHlKzEUSEz4Nwdo/hHpWPvd9aFwtBm7JCxSp6RozVlNfJ0FEZ0yUbvtZ2LaqiTHJ1ONuRV3ekKOcaO8s9s5N9zO94rAAAAcAsQdKBvnDupY0cqjOWkGqxdPXap3jpX+6X2knVMr/HqI49RaRwcptY4cpRS5FZtuBYo3gqVbG7SnBxXS0WyjUvl2l40XOmPhR/joXNGZTp/ufZPWaVF4zutzfYCrw7teVveJ9KUYk6B006E5XPlI+O9O3TvoMBHrYYp/mHjP2fq1EGuEBg4dcGTWlOXoKVFblVV7NGW55N0YftcJX05UxuPhK9Me6o26YX8KuMOw7Hxe60/oBJ3jBb+WZK1I4T3oj80WrM3Va/NSzbeSji34L0CAAAAtwhBB/pGV11X/sGckcVcCrSvztrZkfqd1rnaLyURjPPYExNjYqy1yHjKi1U0NFvpE8JXI5sOlnXSKqBz3uP5Wvxjp17N6aiS2lu8qi3K0QvvJGtdbms3DUdSjg5UlSorqC4fWfnEKSZsWNIZryo358uT/TPtyHVp3ANDFD00RolpmXq9pEIVP5ygoy87lTAjV4VlNWq4dFmes1UqyctU6mvSwueTOi0j273XJrdWfGu1PFl5ygq5h8q8wMwpcY84NW/nMC3dla+nRlofGm7tewUAAABuHYIO9I0Ouq40vR9IJiIZoyNUn04nG6LpSvNEuKEccrTrYtCoXdvLFfsXzg66HzRq34/dmvrs9PCtAjpzrlQvZBs/+9YrSgkZS6NXXW/U7iUuTdkxXK/tKlB6UIU4nMjK55o8HY0bcU9HVXuHxuXka0FS+O42wyfN146jbu14dphObJirx5KTlTwnT9WjclX+9/OV2EUZ2em9mi1YZqbmqPprxdq5qH3AM26h9btSXqrXpl/U+mljNXNTjTobyqPv3isAAABw6xB0oNc0lJstNIoD08m+W2y12AjaLq7ShetmDcmpde7m8TU6HqMjVN9NJ9te9QdhKnznG3VMyYodYW03q/mZCqsSlJXaQfeFdoNVRuh6o0pWLFdjxuq+7bJyrlyLn5yiDcrUgZ+s0lMPWPs7EVn5NOpCu65FF9VoZl1xMepxo4C7h2mcK1dv7qvwf4dq3MV61ZWg6LBhRFv2eK9eVW/KUPLcw5pYUK6d85PCP/tgszWMsTyQoJSMVdpZMEtN61ep5Kz1eRi39b0CAAAAvYSgA72m6aTZQqMsEGxUlVktNoK2D9apus6cPSVOsT2oDbUZnLTXBh8NNUyJX4wxKrF17cYWaaqrkXfkWCWGVIhr3z2ghjEuTQw7aUa4wSojVFWsxW7j/IUZSjC7IFhL8hJjp7ZpprmdVxU4tqfOl+mFZ3J1YXaZf2aW0BlY2ouwfB4aq6fMcR3eD3zWwqjknzouPfVIuDlg+pJd3qtXlRszNPOno/VmebEWTYhgwFOL43OjNEpVagg7xMlAfa8AAABAewQd6DXjcgMhREVemlJyCnS46rSqdq3SnIw8Ha4xPts0Wk0HjAOdoxQfwV/fQzX8Kmgg0l9F2N+lBxInuRR7vFSHgsf/uF7v76YQb3ZjsHYF1BsV3hrFTh3bbrYKP/9glQnKSuvBYJVxM7Vj69Z2y+uZ5rlStdTcfvpmKpZGZX3zch16Il9vzolr1/WhIxGVT/QETX5CKtrnNq7SynukTEVK0xMTutkKohfY4r2eLdWafIeW/t2yDgaL7Zj3/TrVKUmxHWQjA/W9AgAAAKEIOtCrPMfzNDu3TIf2HPfPvvDR6XKVFOfquWXlqj1Sqg3npHGTk4Oat181u/xL7vZ/SQ61f23QQKRry629fWCMS4sm12jFt5ar6ESjPOfrtXvNi1rhmat1c0Iqtk2n9ctTUkpC2D/7q2FvsfYnpSklgu4g7QyN08RJye2Xh83SG6lx/vWbqVjW6GipV+NGDZfXHNQzdLkSOKrtNKSGiMpniKZmzldscY5m57tVe/6yGk5s0gsvlmri8hc1dah12K1kg/fadNKtSo1W7NAw78tYvP7pd6u0MTNPJQetwVqN5zxWvFwzs7fJkZWrdOuebfNeAQAAgBAEHeglXtWW5Mj57DbVDk3V62/latxgKdaVrx1ZyUpJdahkTbFxVKqefcKc2eGyDq11afoz2Vpz3NgcE9Myy0dH2nRdKXlFiWMS5P2n1cY5jPN8+23rqN4wTE9t3KMtk5u04bkpSnLO0naPSzuKAs/Uxm9O65CSlTgqXHuIeh3aWdWzwSpvEe8V6dgqV+vYJ8HLho66T0RWPuasHjuN9xRz5BVNcSZryrdPKn51qd50me//drDBe/UHGcWaF+59Jb+iXf65XUdp4qSL2pUXGKw1yenSS3u8mrHRrQO5nc1KM1DfKwAAANBWlP/fxad8vrVtG24D3Xa2VC+8UqWnf7RKU8PM2tHkXq2/Ppvh7ybh334nW8m5bjlGJCl9+Rt6NTXQpr6p1Ni/xO0PNpaO9+/qWFOZ5k3KNSqlDg0f79Lf/GiZpoaMtXDbnNqkx77ZpHUVy7o/jgP6L94rAAAA0C9FLamW1o2JIugA+oRXx1ZN0OL7inV4QUi3CAxgvFcAAACgvyLoAAAAAAAAttEcdDBGBwAAAAAAsA2CDgAAAAAAYBsEHQAAAAAAwDYIOgAAAAAAgG0QdAAAAAAAANsg6AAAAAAAALZB0AEAAAAAAGyDoAMAAAAAANgGQQcAAAAAALANgg4AAAAAAGAbBB0AAAAAAMA2CDoAAAAAAIBtEHQAAAAAAADbIOiAfZ0r14pMl6Y/49JLxfXyWrsBAAAAAPZF0AGb8urYlnKN/2Gp9vykVM9f2qr9TdZHN6VeRc+M1ZrjxCZd8lRpY16Z2hT7uVLNS8/XMY+13c80lWYrblVF2FDM/CxhmVv99NYBAAAAWAg60Gea9uYqKau0bUW3C5X5aZpXVBNx6wvvkdVKSE7T9GdytCJ/q0oOVqj67GV5r1sHWLyfWCumE3mKe3h0B8tYzStttA4Mx6OGU8P1mc84rO2eqNIa41prTlibEfIa9z17SZlq+1PGcr5U80LLMK8q8Fn0MEW/+4Y2n2i9Yc9Jt+oem6KJ0dYOv4sqyQo5h7k0f3fCXcNa5pVe9J+hWdM72YrLDglXmvnPk62S89Z2EM+ZGjVYt+mIdqijt+uNjlabWw9lfrembVWttdltXrdWJGWq5Jy1PWD07DsNAAAA9AWCDvSZ4Z8bpc+4K1QZ6Z/AvRXatbVesQ/EdVjRDOWYtEw1v3xbO36UrWmPRMtTUao1L87SmiPSxHmpOvqtQNeV7cMzNXW49UPjc1V/5nTIclI7s+Kkwcma9miMdWAY5+uMSmycYodZ27fKuVK98Nw2NQ2NUWyEheNvnWAGAt0Jm65fVu3BrXopM01JVpiQ4HTphbwyVYd7jyNc2hJalrlJ1ocxSs9xqmhPcwuJRu3aXqP0xxL8W6Gy3g46x9tzrb0W5ypVBF/DWHZmWZ8FaTjjliMhRs2vOlK172So6FRgfWJM8/tvG8AkL3FLhRkt2/6lOdSxNL1fL42O0f3WdrfV1+jQlQTFjrC2u+IP7fJUaW12h9dzWZ5Ll9VwqkLHjhhLWbHW5+cby2q9YPzOmL83U5Lbh0kAAABAf0fQgb7zsFPpI8u098hl/6b3XI12F+bqpRKjMhiGt6JcRcrQtORutpYYPETRDyRo4mSXspbkaceuMr3qNM4xMlXr3g50XXk9o7PwxKvK/AzNPjhWb/6sQOkPWLstLYGBuTiX65DcemlSUGU3bEUz8Bfu1mOClwwVGkcUzgrZH1JpbnHFONdzy1X5WJ7eWpQUWQjkrdCGVQ4tWJBs7YhAk1trnnFqZtE1TV60XIsmSClr3arZl69nP12q2c4MbTwV3Jyko2dsLQ/Hoxna8Y2xgXs+9TMVRs9X+hj/R33gomrPSBMf6CSoCuuiGuuTFT/S2mwxTOmFrcFKxVqnlFXcJmxpDXUCGurciv3jGKvVR5U2OseGKR9j6eBdN/3bSTWkjVXi3dYO06VyLZ6WrTWlVS2tTiJVW5yh6WtDu+IEApzk9Lma/dxcLf4/h3X03eM66onWlx8dq1jjaO89Do3680y9+tYBvZ7WnOr14ncaAAAA6HOLT/mA3nT1Q4/vQt1J3+ZvJfge/NKTvtQvfcmX+q1Vvu2/qPN99Il1UBse364XE3zODaet7W5q3OnLmb/Fd+JjaztiV32nCmb5vvDU676jH1m7OnHhp/N9D377gC+CQztx0ve9hxJ833vX2uzMx3W+7fOTfH8yf6fvN2HLLbxfb5/lL8vf7DTu97mdvgvW/g59bNzT1ARf6mvHrffT5Pvxcwm+zJ1N/o9N5rn+JOU134mr1o5OBZ7xwY6WlAJf6//rBK7Vpjzefa31vj/Y6csM8wwnXmt7f+Y1f/CF5vN0fP0vTH3Gl/Y1czG+L/6fO+3bkNL+uLbnNt69WZavnbS2wmny7Zpv/NxP2/5c5wLPHnrt5sX/LJ9c9f3m3Z2+7839ku/BL3zFl7nhuO9C83fBLKeHjHdibbbz4R5f9kNP+iL6tfqkyffLNUa5LN7Tre9aQDe+0wAAAEAfMbMNM+KgRQd6z7lSzX54rJJnuDTzuWXasOewHE8s01Nej6ZuqtCBjcs0Z3KcooP/Wt3s0mHt3RvTYbeGztWr8Lnl8kxO1bjB1q6IeFVblKN5p9O08+2ckHEjwms4WxH0F/s+dr1RJS+7tEbLjLJzKTZcuYVzqVwb1kdrgStB91q7ulJdtEyFMav01qJk6/00qtYtxX+utY9O7NM5Wqht2n4w0EKna3O1M7j1Q/PiXqWUUcO6173DvVzJwS0FjGWm2YQgmKdJDVecVsuMJC1td+1iZcmppdsCrXz2/CRT48xDm+p0InaVDhvHmK02zFYs5vEL65xtrhe264q5tLRaMK7/b0aZdatfU1Crkfe2as7gGC3a1XrPS8cbh9ztUOx4l5ZurVCV8T29/73TuhD44a4NTdPCnGvasDP8AKutvKpcP1dr7l6unWvTgr5r9SrKXK79l6xNAAAAYAAg6EDvGenSjjMnVbHLrETm69WcHM1Jy9DCRTHauKHzcSIa9hZrf9JcPdWTbg1Np3W0PlnTJrXvsuDtpHbXUJqrbx2M1rS7yzT7y2aldaySZ+Wq8EhHYxIYlf8TXo39I+s6VVtbxjForfiGH+yy4WCe5vm7MZjX2Krah60POnK9UbtfdmmFXtGeH3Yj5DArrJu/r5PP5yg90nEerldp15vXtOiloOt4PcaZEhQ71No23Z2giU87tLvqtLXD0FTWbqDQng5I2abbw6xt1l5LJGN0XPYY37E4xXZzgA5vTZWOjR+lWGu72bjcttdrXQ7ozQWvaIvb2m7pvuLVR+eag5YeOHVYJUNdSukk64tOcGldQWbbri1dSHxiruKLjN+vTsIKz97lmn1wun7U0jWqXkWzzIAjTjNcHq0prvHvDdbt7zQAAABwixB0oM/FZyzXosbV+u47HQcIh96p0tRnp7erbHaqeWaV4Y/pG2lVKtxR1eav1g2lmUqYU6wGaztYQ2m2pqyv06hH0zRnyVZVGJX3+prj2rlwlH75cqqmb2x7Lj9vvaqPJ2j8Hw8JbD+SoR1vbdPOXzZXgM2loF3AYM6W8s2X6zWt6KTx+Unt/JpXx85YH4Z1WfuXufRdb64ObMxQfHdaqZwv04biJC3N6EbLmDMV2q+vamLwj1xsUq1G6f6QxgmxMclSXWNraDU8rd1gpP5WCD3Q6WCkkThfp2ODHXJ0IwQwORLStGNm27E2zEFZm5o6Tsk+OlGmhivWRjP/QLXSvd28foDxnfint3X/XziVaO1pVpk3+ubGuoiboPQx5S1j5bRzvUZFeeVKXz43KECJ04zZgYAjOjVDUw8cV7X1ian732kAAADg1iHoQN+7O0EL3lomrV0WftrMmp+psCpNjw/eGfgLcZJLi/d2NsWrqUrrxzu10T9TxhBNXb1VKQcz9UJRfUtAETvZpalVpToUMvZpwzs5mp7n0Ktvl+nNBU7FD7eG9zS7CEyarx1vZcuTn6eSs4HdLcwZMZSs+ObBSo3jo4cOUXQXQUT1v7yt6EW5LYOcxroyNcf4r/fjDirS3tM6WnpZM9KDuxBEwqtDBavV+EKmpga3xOiCfwDMR0e1vVZDnY6NHKWYkD46wz8XJ73b2BoeddqiY5tmhnzmX8wBXesuRt794lydDt0T0RCs0qMx3QvLTMOTNC6oFUbTkS166Zkntf69a9aeUPdKg4bLEfa9xymmu1O+mLwV2leUoKxpPem61ZU4jZsao/0HjyvsBEhn3Mbv5SxNm9C2jFsCDkeylu7KbBPAdPs7DQAAANxCBB3odZ6aMq1Z4FJyUnPlNllT/tKt+yd7tP65PFWG/CW8+mCpGkae1q6Dw7W0/KRq3hirXUuKVdncYiMco/JbeWWC4v/I2h6cpKVmmLLepRdKrZBk6AQ97qxRyZHWpKNh73I9t9KrpT/Jbze7Sosx5mwxVTpxuu1fwJtOh5kRIxId9J8pOdm+O4CfUbHMynep8uUMrXF3Y2rPmm1a845LS+d0s7JslvPDo9pMyVr76wrpsQTFW9vNmhpCUqMOW3RYY2S8V2BUgANjdQSPf1H/y/ntWi50xPvxNelgbpdjdLS7t7Aq1BCma5G8jaoszdN38yvk0Sg9v82tRZdeaXO91sWpxW63Fjut7V6YWaSprFhFT2RoRpjvZPRnO3mfI0Zpoq7J00W+EJ/gNMrwpGrD/E553q9Tg3OU4kO/12ECjhbd/U4DAAAAtxBBB3qV2SUkeW6pPpORL/cJq/Jb49bOH2Vq3NBo6fzbKgluQu+tUMnmRjn+OFPrXk1TvMOoXyUla+qVetW2GdSjShtnrdYha5/nVxU6NiFZo4NbHIx06c2CWapb9YY1HsEwjTMq69WHT1pdLbzyXvIq5Y18pXc6jsJwDR9lXONKcGXusiqPuJU4dlS3ByJN/LO58uzYqWPmPV33qrZ0q4qM1c7GD4l9YpV2FiTrUNaTeqG4tZVKxy5r/+YCRS/KUEq3BmQN56IqD9co5ZHR7aay/eiyUZLBrSbOl+mlGS7/WCWBJU0vBXdRutSkhgltQ5SOdDRGR63x/UnJswKSoKXdGB2dBWMtjO9AyHGe8uWKS87QhvMT9OyzSRo16TElDjW+Ba6CdtcMLG6tczq1rt0YHW2Z0xInLHOHb0UR7HqNSjZUaE56atjv1mcGd1J6gxzGO2rUhaDxN6q3LlfRmbbfGMeoBE28UqPaMCGP90qXd9hOT77TAAAAwK1C0IHe461Q4ap6LXxrqxZMimkdK8Hs4vFAktJzC1RRcVzrUq0xLgzed8tVciVJS3ODBsKMHq775VZtcDcXr0cXThgVOn8l9bKOlZcpMXVsu24KjgnztODRMv34YKCyHf+IUw53jar9FTCH4jPytNRpVN+bKrQx26kEs1KdnKYXCqvkaa4AX69Trds4NmjGEXlP6miZw6j8x1k7IucYn6u/X3hN66cZ10qYoNkHx2phRoxiP9N5d4zoCbna85N5aspzafamms7DjvMH9OMyrypXpbWGBcbinymkecaSrPADwjoGG9XrM3Wtn106rl+6k/T4o6GzhzTq2J4axX5xdFBw4ZVneIa2+GcxKdWW2TGt5Wg6b/xMnPk+uxZ+jI5GVf5iiB7/fNczmfi71QS7flHHNua0DBab4HxRJcbuhoa2rWSinfN1uNytLQucShwa8k68NSqclamNp7pfg//oSpO80dFdBmOeA1u1QdlKt7qOeM+YLaLSlOR/h2OVmlchHT+synB5xPAYJQ4O/l25qOojpTpRF9LtZoRxnCpUG2bAmuGjEuR4t04NEQVFAT39TgMAAAC3AkEHes+lRjVcSVZiZ1mAI7gidFmHSoulDKOS1+ZnohUbOvuKOT7G4ATFmwN9Xjqsd8piNO3RcBcapthR0qE6q/tK3GhNlVvVbXo1XNb+tZk64SxWjVmp3rdcsTszNLMw0Oy+4Z2tKho5S9OC7+HUcaOS7NL45l4EVflK6CA4CCc2bZl2VpiV+JOq2OiUDjcpZUzXoYljzHzt+Pts6U3j/vLDDJDabHiaXq+oUFXIsmd5sjRhmfaY2z9MC9uyIvqPk5TYEgYZFe8j5dqflKaUkG4U3uPFKqxK6tY4EtVHfqaUR8e2axni11Kxdih+8nyND84yknL89xt9wrimUe4pXRdVgFG/v2qt1m6dq8VNadpxNBCeVJUu1zRj/6GVqUrK3NoaHDiMCnpHjSYcCcr6QZpOPJcTfnyZMNq0GLneVUByWdWnGzVjUUagS9T5Mr0wp0yxL7ytKvO76R8gN8n4/m/TbKdLi0tDW/ckaPzT0rHT1hfcH1KlavKE1jDR7+5RGpOVodhPhRmQNGGC0vW2NrzT1bg4bfX0Ow0AAAD0NYIO9J6hRoVxcJl+ebyD2R1CWYHFwpnOkIpwtD5zv1FRfb/1L+/mOB4XXBP84wV4/q1OTZPm6imzvm1UJD2XLrcsDSc2afOPpamjR/l/TtGjNDlzrsYNDalwmoGL1/gZs1I6NFmLlmeo4c2tWr8xU9NXebTwb3M0Luimqt/9ubxpya37jOt2VYUNy1OjopfnasMfr9LCSWGr/+34w4635kpbMzsOO5oHRg1Z7h9sXGOQQ/eb29EdXC/OqfSkYq3Jr1DT2XKtX+/WnIWutq1lzpbqhextcixarjkdjW0S6lyp1m936huTQyrdfl4dWpWt3f6kaIjGZeRoavB5zee5p0br/8qtqd8NuZeODP6MYo83t0y5qMrj9Zo6PVXDrZZCjvvM1hUOZb1VrtfjSjUzPU/HwrSSqLsYEl+ZXaJ+mGx8vyJ54/VqsH48Nm6sHD/O05rSGjUEfUf9S8ugGkM0cVGx1qVZZXTutA6lZWrOGGvbKAd/NvjoMh3YlSltTtP0JeVBAZtDE1MzVLulWPvPNurQhgIdmpMRZjDaYXoqd5nmjA/zLhzG9//7aapckq3Fxr22aZETiR58pwEAAIC+RNCB3mMOork8WSXZX9XMV7Zq95HQCl7bimLDXqNyZlQiU0JbbxiVsrHOJB3au0fV5y+qtmy1vr05Tq/OS/YHItETcrRza0ag8vuhW2uemyVncrKSjOWxb+2RY2GxXnuiuUIXp6eWZGjiiOAK2BBNXbJVj5/O08wvW90aMksV/UCTGhyZ2uku1oIxwcfXq3J/o1ImjW3thmC2FHGXa1/IWAjheD3GM5woU9HKbCU7M1QyJFd7Omhd0RHHeOOZ35ol78a2M8v0jhjN+VG+xh0x7m/GKjXMLg507zF4m+p1yLhmUmqevAtLtWd+mNYc7+ZrnjVGx7z8isC+s2Va/NxWxf/dKy1jhphdZOoarVYD3hqdOBzdtoFPMPPnn8lU7fMFWjq+7UFej/lduqimoHEp/IYO06iWgTmHKfGLMdq/p1wN5nbzOBIjZ+nxMcOUsrRA6x4Nf/GGj9qXrmNSprKMRw98jxvl+dD6INiIUYpXk7zWYLuOSa9oz+pkNWyfrynW97NlebksfGugYTEaZ9xnSb11D5cqVLSlQuMmJyv2gTStK9mqqcZ3Obg7jHmdHTNP67upU/RSvUs7FwV+T7ojOnWVygudql7lUvLj2VpRXKbK+ovtxjNp1hvfaQAAAKBvLT7lA3rLR3WHfdtXvOhLe+orvj95KMH3YPPyhdd9J6xjfD6P7+jrs3wZOxqs7RAfn/Ztnh/4+S98fZXvx/921frgNvjouO8Hf/GKb9cH1rblwrEtvpy5T/q+EPyMxvK9d60DLL/58XzfF6bO9eW8vtN3ovHmnuM3O1/0ZW+v892S0vj4uO97Tz3py16xw3c05NlbfLDTl/ncTt8Fa/Ojd3f4tv/igO97X5/r23zSY+21fLDHl/OVJOu78BVf5pbT4Z/jaoNv17dn+b67J/x341RBqv8cX5ga8k6uHvb99UPzfT9u3veJcZ4Vs3xf+oL5XpJ8X/qLrr9HF3bO9z342klrK1Sdb/vXrHPN3+H79SfW7haBz//6X27u7Vw4VuDLnvqlQDl9ySj/Dcd9F9pdq48YZX9i5+vG9/oZo9xW+X7ZwaP05ncaAAAA6C1mtmFGHFEtQcfaSCd7BAAAAAAA6F+illRL68ZE0XUFAAAAAADYBkEHAAAAAACwDYIOAAAAAABgGwQdAAAAAADANgg6AAAAAACAbRB0AAAAAAAA2yDoAAAAAAAAtkHQAQAAAAAAbIOgAwAAAAAA2AZBBwAAAAAAsA2CDgAAAAAAYBsEHQAAAAAAwDYIOgAAAAAAgG0QdAAAAAAAANsg6AAAAAAAALZB0AEAAAAAAGyDoAMAAAAAANgGQQcAAAAAALANgg4AAAAAAGAbBB0AAAAAAMA2CDoAAAAAAIBtEHQAAAAAAADbiPL/u/iUz7c20b+K/uvfGz6w1gAAAAAAt8ODsZ+11tDfRC2pltaNiSLoAAAAAAAAA15z0EHXFQAAAAAAYBsEHQAAAAAAwDYIOgAAAAAAgG0QdAAAAAAAANsg6AAAAAAAALZB0AEAAAAAAGyDoAMAAAAAANgGQQcAAAAAALANgg4AAAAAAGAbBB0AAAAAAMA2CDoAAAAAAIBtEHQAAAAAAADbIOgAAAAAAAC2QdABAAAAAABsg6ADAAAAAADYBkEHAAAAAACwDYIOAAAAAABgGwQdAAAAAADANgg6AAAAAACAbUT5/118yudbm+hfhf1c/viKLl+5omvXPpHvhs/aO3BF3RWlQYPu0ZDBgzXk04OtvQAAAACAO1nUkmpp3Zgogg4bu/Y/n+jChx/qk7s+0Y1P/4907w3proEfdOiG8bW9epfu+vhTuufGPbr/vvs06FP3WB8CAAAAAO5EzUEHXVdsygw5/uPCRV379FXdGH5VGnzdHiGHyXwO43nM5zKfz/+cxvMCAAAAAEDQYVNmS44bn7km/b7NAwDj+cznNJ8XAAAAAACCDhsyx+Qwu6vYPuRoZjyn+bzmcwMAAAAA7mwEHTZkDjzqH5PjDmI+r/ncAAAAAIA7G0GHDZmzq/gHHr2TGM/rf24AAAAAwB2NoMOG/FPI9urAo5e0NytNX314jnacsnb1levWf7vLeN6bmjr3fJVK8nM1e4ZTCQ+PVpy1JE1zafYr+Tp03jquA569uS0/E/dwhorOWh90qEprgq4T9/AUbYywbL1HVre5x7isUjVZnwVcVElW0OdtlmRNeSZHa0qr1BSurE/ktRw7r/SitbMzoc8Rfun6XJGdp83S7rktnnK9FHTczOJG64MuXL+s2oPFWrHApSnJQddJcmq6UWYr3qmR1zo0IOieO7qXc6Wal9R8rjStOdH2DN1yvUYbH28+V7ZKuvhOAgAAAHcqgg50wyjdN8xa7cqJt/RVo2LX7WX8d7Tj1DXrJLeCV9WFmUpyZmjxxjIdq7nYpjLrqa/RsV2bdPSctSOsyzq0r8xaN1WpxF1vrUeqURv+qcpa74xXlQdLQyrc3WFU5k+Vq3BJhpK/nKOiMzdR8e6nPO4y7bbWTZU73aq11jt0rlyLn3FqSvZqFZXXqPaStd905aKqjTIrKjstj7UrItcbVbJiuQ75e1Q5lLK2QEvHO/wf9YT3SKk2dPo9BAAAAGCK8v+7+JTPtzbRv4qB798bPpAv9nfWVuQ+3PuGlm4OXyX8sL5eH14ZpPsSYnTf3dbONuL1zU0v6k+HW5tm0DHrp9ZGN42YowL3N4wzdk9Uw+/pwdjPWluRaXonW85ctxUcOJSYNkvpkx9T/FBz26uGmpOqPlmu++eVacF4/0HtXSrTC8m52m9t+o3M0Z5fzlfHv1Vma4AMFVpbfoMztKNimSZ2VhcOdy3nKlUUutRc9IEWHU4tdpvrqVq6NaPlPprOluudglIdOm8FHMY1txxdppTBgU1/i45Z2/yrKWvd2uLqKtkKeo4xc/X6oseC7qOV43NJGjeyswe7rNojp0NaRZzW9szvB5413Lk/PVLjkmKMtxbssnbnJOulvdamX4wW7TqgBQnWZihvldbPyNDG5mxqaLLmPJ+mx43vuv/cl+p09L0qHWty6s0fpgXdQ9Czt3sHXlXmuTSzMHDS+Kxi7clNCrnXbjBbczzp0vqW/Mypde4CpY+wNgEAAAAoakm1tG5MFEGHDfU46ChdqfQl71pb3fWoFrlX6okeVLyunSnTmjkF+pdL0qDJ2f7K5APNFe9u6H7QYXYFMCqP/r+Sxylr+9taOmGI/5PuaCjO0GMrzdYYyUp3eVRSWmOsG5XrnxiV6zH+Q8IIDggSlHiqRsavpKb+sEJvpnV8Dy3XCvqZzoOOudp5Jlfj/PstZkuD+VOsz6VxKw9oZ0ZMYONmgo5293GzenDus8WambpalcbqRJdLntJSfxnF5pTqcAdJh9ntKCkn0CLHMXmVDmx0KTZsmBeq4/vzGuU43ShHf2wYN187d+VoXI9TDqmpNFvJS6wX5kfQAQAAAIRqDjrouoJ2vrS2SD8/Uxbx8kaW9YPddf1j1RavUXqaGXIMUnzmSv39xp6FHD1y/rRONHcFGJOh9B6EHGaXk0PvWF1ORk7QnNlTFOvfiLQrimHCFE0bGVjdX364k+4RNdq9OXDOcTNdmuhf64G7YzTj2QxrQ6o8U38TXWH6l4YjZf6Qwwyavjw7o6VcGzbvUWUH47/Uvtfa7Sg9Iy3CkKMT50r1wnNWyDHYqXVv3VzIoUvl+t4qM+RI0rikwC4AAAAAHSPoQHhVP1H2My92sfxEp63DI3dNH567pN+e/ZW2fnOOslce1W8Hx+nrBW+pYMmjHXSL6SODoxVtrepUjRp7MjttvVslVp6ROC9ViWOcSrcq197iMh2LKEFI1lPPWzXYvcXa1dFApqeMa/mDmSTNmDDKv6unHJ8eZK0ZGpu6N/ZEv1WvQzutlzFmrqaOSVDKX1gtVa68rV3Hw78Mx2esYwyVdTc5CIbZWmbVamtcjjhlvZXf8n3oGa8O5edqt3G+2KxcLXzU2g0AAACgQwQdaDHoc49q9oJvKPlzRiX4+iXVnqrvYgmM2Dh07DeMn3s0wpYYH6tixRw9nbpUO05c0+9PmqMflL+h+ZP9g2LcWtEJGt/yF/JSvfBysaq7WeOv3rst0H1ECUqfFOf/79R5VheJK6Xa925kbSViJ6VZ3UuqVLjP7PoSyqtjPy1Qg7n6RIZmDG7seoDNzvyP9V9TzPDWwGcgMwdZtWauSfzaBP8YL4mpc63xSbwqOVgVtuVK/Bhny9gZ1Wtf1IqDkcw2E45XleuztfigeZWbH3zU5HV/Xy8UG+cbnKalzyfZ4z0BAAAAfYygAy1+f3yaMnPmaMb4T0vjnwvbTaXt8pxGGz/32dQ5xs+laXQ3a2FfWvKmSrZ+Q0m9N6hDN8VozquvKNEKaLwHV2u606WXCt2qjSTwuF6jQzutqUuTXEoxcw5DvHGOQGjhVVF5RdjKdTsPTNezTwRWG/7BrerQbhaXyrW9KFCBnpOeepMVXq8O7XvbWpdSHhnd80Ey+5Hqw6WBIEhJSndaLyPOqXQrzPIWlYdtYeOYlKPXXc3dlupVlO1UUmaeSk50L/D46ES+FluDjzrS8oxztrYU6RHjnX/3xWL/9ydl6YuaehuyQAAAAGAgIuiA5ZL+ZVm47imRL+v3Bs/J2bUHPh+roA4Ut0dCpnaWLGutRF6p0e68bE15NFmzN1aoqYNxHfyq9rRM9znuaac1NofhAadmNLcUKS7V/oiKZYimpmcEAodzBSoJ6WbhOVIemH1ksEvTHu15LOE9X6OSZRmBVgKmwRl69olI5wzugnu5kh8erbjQJas0ZDaVPnC9Srs2N4dOaUp5ILBqhlkpT7e8DP24/LK1Hswo+9U/05bMhJbAx3NkmxbPciphxnKV1IT7mRB1W/Wt5nE5hmVoy+qbDKPMLjBLAl1WzAFSX73Z0AQAAAC4gxB0oMXl8+G6p0S+/FdPxrjoBxwPZ+jNo27tyHFqeEv3m8s6lp+p5CeXa3/YYRu8OvZPb1utNZxKnxxcEQ2uXJdr75EIKsoGx4Q0zfFfP7QlSKN2bS/3r8U+7+p8+tl2tmlmUOiQ4HRpcUlN4NyDE7TgrVdap5YdwLzHy1Rkff9SvtE8IGxAa7egTgZ7vXuYUpaUqmLXKs1Jah2U1ltTqsUznJq5ySqzjsQ6lTLBejEXS7V5rxW69FBD6epAF5jBTr26PNJZYAAAAACYCDpgGaonCkO6phz5jr5kfjThRRX59xVpkdPcYU4lG3KssaxxDeC29UZFd+KCAlVUHNCO3LSW7iyqL9ULT2Zr93lru5m3Qvv8XUkMzlQ9HjLNZ+xkl1Ks9f3vHIisRcPdSZrxvBWYBLcEOfUzFfrH2ExQ1hPhp0jtHoeGT87Rjn2lWnSTY0i0MWauXt+6VTtCl4XJfTy2hFfHygNdPMzQadqkkBYqD0xRuv97a9hbpn2h7zJIdIJLr5ZUqOonecqa1Bx4mGNvuDQ9P/wYH36DRun5tXl6ygqqDi3J1poTnUYjHTKnpn1umTnLikMpK1ff5GCmAAAAwJ2HoAMdu/ifgTEPhv2+ejLx6oDkiNHErDztcZfq1clWCHDFre9ubjvWhudgmYqs9bBdNpzLdcj6WMa59nU0k0qIxLS5VuuDcm23WgVU/pM1CGnQOCCRS9XS4NDhJwdUVXVSFQXzNTEknLlp943SxEnJ7ZekmL4dA8Tj1jvF1rrcWuwMeRcPO7XYzA383Co52HVri+gxaUa5VRjllOEf1NRUuzFPJZ29x6Gpeu2tudbx9Sp8LseaJacbgqamjc/aqjef7qVuRQAAAMAdhKADHbim03vK9YGxNvrROP1+YGfHOhvLYiCKTtCctas01dr0Fh22ZlcxXdahfWXWeiSqtOtIhF0ZggYlrXzHrQZvhXZZ42lMfXZ6my4ZkRmpccGhw5gYRdugq0owj7tMu631SPjL1VrvyvDJy/SjnOZuSVX65budD1DqGJ+jdQusNOqKWytWlaqhG78bTcfLralppdrCDCW0CWxGa2Zh4LM2gU6eNaUuAAAAAD+CDoT12+NFWl9otvH/sp5+oqs//f9fbRo/Ry+u/5V+a+2xhaEx4YOF8wf0zl5rPWm+3gxuMRG85M9vGRuicvPPgoKSzgxRSmpqYLWqVLsLy62xJzL0jdQ7pl1NN1zUvncC45eYs60syA/zHvxLvhY0D5tStU27w83g24H7R3SnGY1D4xYWaJ3VGsh7cLmeW99JlxcAAAAAvY6gA21cO/d/tWvZi0p/9qc6q0H60tp5mtxu6I1rbVtw1Neq+solnf71h+Yn7V2/pt96rE+uX9JvPwys3nbny1VYWiNPB39x9xw5EJjpxGS2hLBWGw6WtnRLGfe0S1ODW0wEL0/Mbh0b4pzxM6es9S5Ep2ZYg5LWaH1+oE+GY05qNwchvUOcPaCS5m4pSWlKfyLMe/AvqXr2G80vo1ElB1uTjsrifB0710EUcb1R+/a29HtR7PAIwqa7Y5S+fFnLIK+1hZl6oTSyFj3RE7LDhDSty1KrtY9/vJYfWvufHmXtAwAAAGAi6ECAt17/OOsZ/fnj39HfltTr2uA4fb3wLa1xtW3N4bjH/PdXWv94mr76sLVMK9BpY+9o55/oPvPjUJ/8X211PhM4NuFFbfJX+Adp0G2fScKjo0tcShrv1LyV+Soqq9CxI8ZSVqw1r2TImbnN6uLgUMqzU6yxFxp16J3mrgJJmjGps2k/h+nxJ4Iq14cjbEbgSFZ686CkfjFa+LXkvh3nIoymM8cD5RFmqQ03Ze6HdWGP9S9VjX3SqqHhSJkqrfU2U/yGMXxSassAsQ073apuDrgaN2n242OVlJ6rNYWlOuS/Z7dKCldr3uPTtaI554ibrxnJEb6FkS69WTDXup/A4KTrq7ouAcfIpDAhTesyrmVg0uGKf9Ta/zAtfQAAAIBgBB0IcMRpxgtT9PsjHtXX1/5ARRVvaL4ztCnHUP3pwnn607hPW9sBg0bE6U9z1mjlNzro4uL4vP4sY5C1If1+3Oc1eeUPNLu5K8HtduWiDhVv0oqXMzU701heXq3CXVXWNKQOjVtU3DooZE3zDCiGpDSlPGCtd6BN5XrzHlVGOF5D4mRXa6V9zFxNHWOt30LVW3MD5RFmKam3Dgp2apteCnOsf9lQEX5a15tSo92bIw2dDCMe07SWFjYFMl5xG56qMhXmLdc8/z1na3FesQ6dt8KJOJfefCtH47qRNjkm5OhHWc3dXuq1cXG+KgfoFMwAAADAQELQgRaDnNl6x71S811/os92UKEbNOYZrdz34zbTyv6T+w2tXPB53ddJC43RuT9pOf6dfWu0NCNOrdHHbTLCpdf3bdW6BWmaOCZBw1sG6Ryi+DHJemrBKu385XHtnJ/Q0pqi+mBpy0CWXbUg8BsxRU83dze48rZ2HY+wXUPCk8qygqBxM50tM38gyCl366wmEYROZgubaU9b45/Iq6J/CsykMy7ngPb8cJnmpCYoMa61dYRjhLGdmqFXC8pU9bNVmtrtaV7NkOwNvdoc6NVv0+yXuzc4KQAAAIDui/L/u/iUz7c20b+Kge/fGz6QL/Z31tadI6rh9/Rg7GetLQAAAADAnSRqSbW0bkwULToAAAAAAIBtEHTYUNRdUdKNQGOdO4bxvP7nBgAAAADc0Qg6bGjQoHukq3fYqzWe1//cAAAAAIA7GkGHDQ0ZPFh3ffwpa+vOYD6v+dwAAAAAgDsbQYcNDfn0YN1z4x7pt3dICwfjOc3nNZ8bAAAAAHBnI+iwqfvvu093fTTI/mGH8Xzmc5rPCwAAAAAAQYdNDfrUPfpf9w/ToI/v1V1N90pX7rbPAKXmcxjPYz6X+Xz+5zSeFwAAAACAQM138Smfb22ifxX2c/njK7p85YquXftEvhs+a+/AZc6uYg48ao7JQXcVAAAAAIApakm1tG5MFEEHAAAAAAAY8JqDDrquAAAAAAAA2yDoAAAAAAAAtkHQAQAAAAAAbIOgAwAAAAAA2AZBBwAAAAAAsA2CDgAAAAAAYBsEHQAAAAAAwDYIOgAAAAAAgG0QdAAAAAAAANsg6AAAAAAAALZB0AEAAAAAAGyDoAMAAAAAANgGQQcAAAAAALANgg4AAAAAAGAbBB0AAAAAAMA2CDoAAAAAAIBtEHQAAAAAAADbIOgAAAAAAAC2EeX/d/Epn29ton8VuCnnSzXPuVrV87fKvShJDlVpzcMZKknLV/kPUzX8bLnWv3PaOjjYaKXnpCrWWPOeq1Ll+97A7hDDRycr9krHnzs+l6RxIx3WFgAAAADgThG1pFpaNyaKoAO9y+vWikeyVZRVrPrcJGNHIOgobN4+kae4WdsCxwZzrlJFoUvDjdWm0mwlL3EH9ofIevu0nn+/489T1rq1xTXM2gIAAAAA3Cmagw66rqDXeE4Ua31BmYyvlvSusZ6fbyzFqmzeLq6Sx1w3mIFF/RlzcWud09oZYk5BhaoqAsue5cnW3lbBn1cVZFh7e8n1y6osztXM5NGKe3i0ktJXq+RMUCsSM7Ax9ne45FVZB4bwlOulh6do4ylru9n1izq0Kk1rTljbQTx7c8NeY17pReuITpx1a022UwnmzyQ5NW9jhZquW58181Sp6JUMJfnPm6yZK0tVe8X6rCNdlU+zSK5/K/WT91qZF+bcQUu470GL8xXauCDNel9jlTyrfdl7z7lVaLzT5KTA+ZKm5WjNwUbr004M1PcKAAAABCHoQK/xvu/Wxo1lgWCjqsxY39R2+2CdwlSZOlSUnayk5MAyfVWFtbdV8OdJ2cXW3t7gVeX6WZq53aEZf3dAVe4y/c3Yk1qRlqmieuuQpJzWkCV42bdMKYpR1p8lWAe25THOtTtprp4aY+0wGRXX9d9M1byWk7flveKRJizTnpBrvZ7WRcuVc6WaNyNHlQmrtcddocNvZcqxPVPOVe7W93ClSmvSM1R0T5q2lFeoYt9yjTu5WlPmFqu2w4prBOVjiuT6t1T/ea/jFoa5hrEcWOmURs7VtODztFGl9dNe1NEHMv3vq6p8qxZ+7rgWh5S95+RxXZiQox37jGOMe3tzplSSPV3z3uksHBuo7xUAAAAIx+y6AvSKk77vPZTge/DFLb6j/3LcWLb4ss3t104GPn73Nd+DxrbrO6/7fvC6uazyZaYYnz+303chcITvws75/mP++hce30cfBpZT2+f6933v3fCff/SLVf59mTubrLPchPd3+FwPpfo2vGdt+zX5fvxcgu9P/ua476q1J5xTBU8az77H95G13VaDb/vXE3zZezzWdpNv34pZvi8Y9/2FuXONawaeL9Rvfmw8e1D5ROaq7+jfJLW7l6tG+TsfmuXb/n5g+zc7ZvkeTCnwnfoksO33wU5f5kNJvr/+lw6eNKLyiez6t1Q/e6/tfHLat2Fq8HnCqfMdPRzyHf+kzrf5a8YzvG79joV11ffLFW1/z9oZqO8VAAAAsJjZhhlx0KIDfWPv9zU7M9NYvq/91q5glbvM1h7mUqxD56ydIW5Xi45ad6kqx8zV1DZ/VR+mx59wylt0WJUdtXS4VKYN669p0fNpirZ2tXHqZyo8k6FnU4dYOxpVezpGC7e6VbU1R+OsvaGa3jee/eFR/vFLIuat0L4ir+a4UtvciyNpiqYOrtK+CrMbQ70O7axS4rxUJd4d+NxvxGOa5vSqyB2+m0ZE5RPR9W+t/vZeQ3n2Fmi9N0cLn2g+TzhxmugMaclzd5wSv2gUeafNKRwaNTpZ+tCrj6w9oQbqewUAAABCEXSgb5iDj/rH4ChWlrUrWCRjdLQe07osHS8NdxW021//9lzrp27WZdWdrJG+OErx1p5mwz8XZ/xbr4amwHao6uI3tD+0+0ILr479tEB63qWJLZPCJGlBSZ6yJvXB4Kn1NTqkZCWOCpmB5u4YxT8qHXv/olGzrtOJU9LEh8znCjZM8Q8b/6lrlPmo3qp8TUlyqdAolojLJ5Lrd+b6ZVWXrtZM59jAOBQzcrSmrEaeDrvTdKWfv9frNSpaX65xzz/ZNnSKyEU11EmOTicb8qrudIUcY0f5Zzby77kd7xUAAAC4BQg60DfOndSxIxXGclIN1q4eu1Rvnav9UnvJOqbXePWRx6g0Dg5Taxw5SilyqzZcCxRvhUo2N2lOjqulItnGpXJtLxqu9MfCj/HQsYtqNMdHKMzwDw5pDvw4fUGedocbIDLYlY+Mcnfo3kHWdgsrxDhTp6YrHnmMYxz3Bj4JFjvKKbnrwry7CMsnkusHdrR3pV5FC57UmroELS1yq6pij7Y8n6QL2+cq6cuZ2ngkfGXaU7VJL+RXGXcYTn97r215j5dqw6UMLXLFWHu6of6AStwxWvhnSdaOEN6L/tBozd5UvTYv2Xgr4dyC9woAAADcIgQd6BtddV35B3NGFnMp0L46a2dH6nda52q/lLQf57FXTIzpXoXTU16soqHZSp8QvhrZdLCsk1YBnRmisTllqvAPVunWgY05mnilVC+lubS+qquhH+MU02V/l2TFjrBWO+BIytGBqlJlBdXlIyufSK4fyqvKzfnyZP9MO3JdGvfAEEUPjVFiWqZeL6lQxQ8n6OjLTiXMyFVhWY0aLl2W52yVSvIylfqatPD5pA4q8gH9570Gu6z9JcW6v02rkAg1ubXiW6vlycpTVsg9tMzs8ohT83YO09Jd+XpqpPWh4da+VwAAAODWIehA3+ig60rT+4FkIpIxOkL16XSyIczWDuE55GjXtaBRu7aXK/YvnB10O2jUvh+7NfXZ6eFbBXTKodiEOA0falb4hyl+kktLC0u1zlmvjRvKuvjr+TV5OspC7mmuUTfJ29FUsuH+um+JrHwiuX4oh8bl5GtBUvhxKoZPmq8dR93a8ewwndgwV48lJyt5Tp6qR+Wq/O/nK3GwdWAH+s97DXJ2j7bvjVH65O61CjFbsMxMzVH114q1c1H7gKdlZpfyUr02/aLWTxurmZtqOmjxEtB37xUAAAC4dQg60Gsays0WGsWB6WTfLbZabARtF1fpwnWzhuTUOnfz+Bodj9ERqu+mk22v+oMwFb7zjToWrgVEzc9UWJWgrNQOKqrtBqu8SXfH+AeIDN+1JFijLrTr2mN1hYmLsQY3NVtF+FfaaGiskB6N6bACH1n5RHL9Hrh7mMa5cvXmvgr/d6jGXaxXXQmKDhtGtNUf32v1vm2BQUAjzjm8qt6UoeS5hzWxoFw75yeFf/bBZjhmLA8kKCVjlXYWzFLT+lUqOWt9HsZtfa8AAABALyHoQK9pOmm20CgLBBtVZVaLjaDtg3WqrjNnT4lTbA9qQ20GJ+21wUdDDVPiF2OMSmz7EKGprkbekWOVGFIhrn33gBrGuDQxdExPv3CDVd68q2Zg1EmLCz00Vk+Z4yq8b203u96oU8elpx4ZJY0YrfEjjcptXehMGRdV+55XsV8cHabSGmH5RHL9W6q/vtd6Ve5vVOLXJrQbBDQ8ryo3ZmjmT0frzfJiLZoQ+YCnjs+N0ihVqSHsECcD9b0CAAAA7RF0oNeMyw2EEBV5aUrJKdDhqtOq2rVKczLydLjG+GzTaDUdMA50jlJ8BH99D9Xwq6CBSH8VYX+XHkic5FLs8VIdCh7/43q9v5tCvNmNwdoVUG9UeGsUO3Vs+Iqqf7DKBGWlda9bQqeMezm0s0IO14SQewkSPUGTn5CK9rnbdFXwHilTkdL0xASzFUKCUmbG6NhOo+IaPJuJf3DLOKU7w99zROUT0fVvrX75XuuPq+RUjKY9GjZNae9sqdbkO7T075YppZthoff9OtUpSbEdZCMD9b0CAAAAoQg60Ks8x/M0O7dMh/Yc948f8dHpcpUU5+q5ZeWqPVKqDeekcZOTg1oKXDW7/EfQDUPavzZoINK15dbePjDGpUWTa7TiW8tVdKJRnvP12r3mRa3wzNW6OSEV26bT+uUpKSUhfEW1YW+x9ielKeUBa0e3Vanw5a3afaJeTZcuq+FUmTZmzdKKM0692uEMGqYhmpo5X7HFOZqd71bteeNnT2zSCy+WauLyFzV1aOCoRNeLSjmzWt9aVqzKs5fVVF9mDW65umWQyrbTkBoiKp/Irn9L9av3GtD0K7eq5VRihDlH00m3KjVasUMvy2MOxBqyeP2BVZU2Zuap5KA1WKvxnMeKl2tm9jY5snKVbt2zbd4rAAAAEIKgA73Eq9qSHDmf3abaoal6/a1cjRssxbrytSMrWSmpDpWsKTaOStWzT5gzO1zWobUuTX8mW2uOG5tjYhTtP0/H2nRdKXlFiWMS5P2n1cY5jPN8+23rqN4wTE9t3KMtk5u04bkpSnLO0naPSzuKAs/Uxm9O65CSlTgqXORgtryousnBKocp2lum7z2XpuTkZD32XIFOJSzXHneB0oNm0AjHnFVjp1FOMUde0RRnsqZ8+6TiV5fqzeApTEekacuuAqVcKtDs1GQlzyrWRzO3akeYwS1bRVY+EV3/lupP7zWg4YxbmpCgsJcJxx9kFGte81g1bZZXtMs/Ou0oTZx0UbvyAoO1JjldemmPVzM2unUg147vFQAAAGgryv/v4lM+39oOG8EDkTlbqhdeqdLTP1qlqWEq4U3u1frrsxl6c07gz9dN72QrOdctx4gkpS9/Q6+mBtrUN5Ua+5e4/cHG0vH+XR1rKtO8SblGpdSh4eNd+psfLdPUkLEWbptTm/TYN5u0rmJZr47PgduM9woAAAD0S1FLqqV1Y6IIOoA+4dWxVRO0+L5iHV4Q0i0CAxjvFQAAAOivCDoAAAAAAIBtNAcdjNEBAAAAAABsg6ADAAAAAADYBkEHAAAAAACwDYIOAAAAAABgGwQdAAAAAADANgg6AAAAAACAbRB0AAAAAAAA2yDoAAAAAAAAtkHQAQAAAAAAbIOgAwAAAAAA2AZBBwAAAAAAsA2CDgAAAAAAYBsEHQAAAAAAwDYIOgAAAAAAgG0QdOCW8VRt0pqyi9ZWQENJtmbmV8hjbaMXeaq0Ma9MTdam37lSzUvP1zEKvPdR3gAAAEC/QNCBXtVUmq24h0e3WdacCHwWPXSIKtdvUaU3sC1d1skj9Xr8z5IVbe3xO29UDkPOYS7zSgMhSbhrBJZslZz3HxKZE3nGz+Sp0trsS03vZCvp5fK2leDeEK6s8qoCn0UPU/S7b2jziZYCl+ekW3WPTdHENgV+USVZIecwl6zSwP128D7MpfmdRKZKa4yfaf4+9KmmMs1LztX+3i5wyju8vipvAAAAoAcIOtCrhrsKVH/mdJtl6XjrwwdcWjT5be2qsCqCZ/do+69cSkkIbLY1VzuDzrEzy9ptSVnrbnON+jPFCjmkhT8Yaa6M9jHviTwlNVdYg3x0uUme4dEabm23Faj4dq8Saxnh0pY25WAsuUnWhzFKz3GqaE+FAiXeqF3ba5T+WNgCV9bbQed4e6611+JcpYrgaxhL6Dtp4a+o35oASV6jMp8cJuC67FHTpWGKvs/aDlGZN7pn3wnKu0flfStDRQAAAICgA73HX5lp/1fo1gqlQ+Nmb1V6ksO/VV22TdELXUq827/ZZz660smfmcfEtG1NEsp7UbVHSlW4MkfTpyUHnifJqZmvbNWxMKd1DI1R7LuNarC2A7xqrKvRxFEjre1u8ri1wmlULs9Z2y0Cf7FvV95BFUrHoxna8Y2xRskbTv1MhdHzlT7G/1HfueLtpOVKgmKHWqvhXPeq4VSZitbmavYMpxL8z5OsKQvytPtMa0uJFo5oxY6sUENIxdvbWK/qCaMU06PvVr2KZrm05njo9SjvvilvqbY4Q9PXNgdEAAAAwM0h6EDvGZ/b5i/QLYv5F28rBEmYZlRoHg1UEKfnN+rQEqd//bFNNdZJep/ng07OfZ9Dn7FWW3jqdaw0Xy/NMip+yc9o8TuNik7N0ZafVASep+InevXzFZqXGiZ8eGCUJl6pUeO5i6o0z5GZpqSHx2pesVS5IUcv5JWpurvjNUQ7lf6Neq1YXx4ylkmSloaWtX/J1bjmSvkjaZo5wwponslXg3u5ks31xzep2jpLr7vU2Mm5h8sx2Fptdv2iqsuKtWKBURBQAjgAADv1SURBVFYJTj33ZpX0SKbWFZWrxnyeGrfecl3ThjSX1gR1CwmIU/wXvap+v1FNJ0q1/pVMTUk2vmdZRoH/Kl/fMivsNZetYyMVpxmzY1S4cpuqr1u7/CjvvilvKf6JDMVsXaXCvvu/AQAAANxBCDpw6xiVofaVxNOqWOvUqGHhO3V0pDkgaV0yVGh9Zgoex2Om+UFhRtCx1jJrm9RcETWX5pYn5w5rfblXX/5OsapOuLXz+zlKnxSn4c0VRscwJc7J1xYzfNgS8lfou0cp3unWS48/qfV1MXp2ZamqfrlKE5WhN8u2aeGoCn07NUe727XO6FxixotKKduqXWetHRFp2/2nZXGvUsqoYbrfOioiweVkLf5ybRY8roRZrtqmmUHHBhbzHbm12Nm8bbWE+PikirZXKdb1hsrfq9CBjcs0Jy1BsdGBlj+626HYycv01uoYFb5WGtJaxqgkP+zUodwpSt1Qp9i/WKU9Rw9o3QRpzhs/044XRunot7+qF95ptI6OTPQT2VrkLVBJu1YdnaG8e1reGpqmhTnXtGEnrToAAABw8wg60KvMQTfbVrZ62i+/bcWtTSXP0NUYHcFjhZhjG8QuKg061lrMcRGCx0JoHmshIVM7C3KVPj5Gjg6b4js08WmX7i8q17Ggmpn3xBYVuo3r52zTjlyXxj3gkOdXFTrmTFBi9BAlulbp7xY26aUV7cfx6NTQVH0jo0qFZSF/8jYHgQwqJ3Pp6eCThbOCzuOvPAfpasyI4LErzHIdmaM9QccGFvMdObXO3bxttoQwRKdqXUmesibHabhV1w4ndppLT1WV6lC9tcN0pUqbNxsFPixHO7Za7+zjGh097lTiw0MUPcaldX+Xo6bc1d0bqPbuBE2dF6eikpBWNJR335S3IfGJuYovKtb+S9YOAAAAoIcIOtCrhj8dOhipVbnqts4HI+2ucC1GPBd6MPhnsKHDNEon1dDcOsNbpQ1/9XOl5MzVvb84qVprd+175Up8bGzLQKTxaRma6i7WvuAKZJccmjg5Qw073W27UwxPazc4Zsvgr93U6eCY3RWuBYOnSRes1R6JHm6cs0a1jc3JkleVm5dp/2M5ynIcUGVzef76pPaPcWrcCGs7brqefcKtovJuFbjiJ7mUuLdch4Ir3pR3n5W34iYofUy59h7pftcXAAAAIBhBB3pVpy06wnUfMZbkJW7VXYy8fUNDnVvqhQFMvVc8RgUxpoOZUCIwPEbxRkWwwaoIew4Wa+Mfv6iF2dOVfqlUx8x63vUq7SsermmPxgUOMg1N0uMTanTi37pXoXMkJeupc6U6dMbaYeq0hUG47gzG4lyuQ3UXI68En6vToXs6+dN/pIzy9ihOsT0u8GGKn2C8/yar3Dxubd84Souy52vGzMsqORKoWFf+4m3dP3Ws8W6aDdHYScmqPlkXMsZJF+LGatrIch08HvSeKO++K2/jXsdNjdH+g8e7+XMAAABAWwQd6FUdtuiwBiqtKcywxupwa52ztVn94fnhp+BszyvPFelQbudjdHSkqXyrSk4FKm61Zyr84xH0WFOjapWseOsv2dVVZUp5fIKi705QilERLNxbI9VUaP/Q0Cl075UGGfXGK81/KR+m2FHG6czgpTPRozR+TKNOnA5qidJhCwNr4Mz3CjTHah1jjoXS0uXnl/OV6D9B17wfX5MO5nY+ZkRHzpersLRGHrMVyvt1Omb8p+PuQF25qNrjUvzIYYHN0ye1e3KqJg6VEh9zybOlXNXXa3Rs73ClO9t+n+4137PH0zL+w/DPJfuDgKBeR2HEGeeV9r9XZ20bKO8elbdGjNJEXZOn8wJXfILTePaTqm0zCCwAAADQPQQd6FVN7+Rq+jOu1mVarnYHNdbwNDVq4uesilOnOhqjo17Vh516/UjbymboGB0dcdx9Tuu/GZgVY/bWkVowJdKApT3Pu24dGpxgBR0X1WDUh+NjA8+WmDZXw/PzNW9DgYY//2SXlVzHYIeqPwgKOjzlWmNUkpvaVPjMGS+kQ2eCKt7ny/TSjKDyfiZNL70TFIRcalLDhFERtVrpaMyI2hq3UvJCx0SJsDuR8VwN+RlKSjDO+ew2xS6YEnGFv51TFdovp+I/F9hsOldvFInVImfMk8oanq/1C/K1YfhcPdXFa713kFERb2wKajlQo8Jlxaq9Ym36OTRqdLK8p+paB+SkvHtU3jLK26FGXQjqBlS9dbmKQqawdYxK8M9aVNvN8T0AAACAYAQd6F3XPRo+e5P2/KTUWDZpToxHV4Mq6w2NFYofEUk1sIMxOs6e1C+HOjU6klOEET15mSqqTqumokJVVWValNTDFh1XKrRhfbniX5iuceH+Yv6AS4vmVOjQQaeefSLG2mm53qSmOil2+BBrh7H+QLJ0pq51gNJfn1TRgRpdCDl3zCjjuJrGoJkwvPIMz9AWf3mXasvsmMBf85udb9SxOHOsha6FHzOiUZW/GKLHPx9JOBVGtFOvuk+qvsoo74qTOpCTZFR4e+B6o0pez9eFNJemNY8F0UaM0nMydOygWynPTlestbfZhfNGJT1muKKt7eGfS5DDHRxgnNbRkirVfWJtW2L/yKjBH69TY0uZUt4B3Stvs5tX4mC3altmG7qo6iOlOlF3zdq2jDCOU4VqQ6d6AQAAALqBoAO3jtnM/R2nxj/SQdWrucI4eJQeX9A6eKdp3MIKvZ42RJU/3ibNdAaNBxCZQ3Vtp7t0DB2i6ObpYrvJU1Oqxc9kquiPV+mtrOY/ZTv0GaNWd+FC83gO1+S5JMUvytZTQ61dFq9RwdtwKUPTklvLYfjnnUp016ja+gN39fGf637jOUP/Gh/7sFNPJbRUH7tUfeRnSnl0bPjKbksF3aH4yfM1PrhunZSjqh+mKfpEsQrlUkrQECMRCQ4RTION8h7aoyq3dL5C6785XYsb52rH6tSWyrNjsLF2vrVVhtdjrMXlaOETrQGS3xW3SjY3aU5qcms5JIxVulGhrg4MMxFonfOEUxNDi/Zzo5WVYc4sYm13gfI2hCtvJWj809Kx01aBXzquX7pTNXlCyM/ePUpjsjIU+6mgcVEAAACAbiLowC3T8E6+Nj/m0tSQir+f160VC8oCLRqikzQnJ7XtX4mNipvjVL4WH/yqlj4d0kKiC/FjXXIcLNOhs5flDf7re6S8l+U5W6NDpfl6KT1ZSbOKdXXmVrk3uhTb0uJiiMZNcmp36R7VXmrUobVz9dLpuVo3t22bfu+ZYr3wYqkmLp+ricH10Din0pOKtb24Rg2nirV+8zBlpYXpD5CUqdeXhJRNR86Vav12p74xOaQy6efVoVXZVrci494zcjT1Af8HAXc7FH1Pjdb/lVtTv2s8p7U7Ig+NVfpgt3YdbOxyTIawrnvlOV+vyrJirch2KsH5oirHrtKBn+RqXFA4FT02WSllpdp15rIaDuZp9pLTylo3V4nBrWCu1Kvo5RyVTFimrAlBBe5I1rQ59SrcXq6Gs26t3+DWnPTWSn2LEWlaujJD49p9EAbl3XF5y6GJqRmq3VKs/WeN348NBTo0JyPM/xcM01O5yzRnfLgyBAAAACJD0IFedyx/vjV+wXytfzewr6FsuZ7bHKctuU7rr7xmC4h6NVh98b2nTurQYLMff3jmz09/rl5Zb7WtfPkraZcuGxW14PEW2opOXaY9Cwfpx9+epWRz7ILmcRFalmyVdDQmwKUyvZD8pGZ/O0/vnBmuyX9dqpoTpXo9K1nDQ7qVDH96mV6PLtD05On6bpNLe36So3HWA3nPVqkkL1PJafly5JbqTVdoWBOjOT/KU/TWDD32zVLdvzZPc4Irwp15N1/zrDEj5uVXBPadLdPi57Yq/u9eUYpVXuZf5OsarZYt3hqdOBwtR0cFbv78M5mqfb5AS8e3PcjrMcr70kU1BU+7Giw6Va+WZMtRmqOZznDlPVrzSjuY2vd6jTZ+1amZ33pFm9/1KnHONrnfq9CO3DTFh7bAGeHSq3nR2pCerCkrLyq9pLS1K9KVRlWWGpXxx9O03vGK9vwwOJQyGRXvRVuVfnqZHkt9RbUzi7V0UkeFEYLy7kF5G+Ux6RXtmHla302dopfqXdq5KLjFBwAAANDbFp/yAb3hws75vsydTdaWx3dixw7fL//pNZ9r7hbfiY+s3ZYLe17xfekLCb4HH0rw/clX5vs2n75qfdLW1cY9vpyvL/Ptet/a0cZp34YU8xxf8qV+Z4/vgrW3Xzld4Ev7yixfzus7fSc+sPb1lg92+jKf29ny3B+9u8O3/RcHfN/7+lzf5pMea6/lA6Mcv5LkL+8Hv/AVX+aW076wJX61wbfr27N8393TYO1o61RBqv8cX5j6im9Xbz9Pb/jE+E489RWf6zuv+378bvN3sZdQ3u31ZXkDAAAA3WBmG2bEEdUSdKzt8dj8AAAAAAAAt1XUkmpp3Zgouq4AAAAAAADbIOgAAAAAAAC2QdABAAAAAABsg6ADAAAAAADYBkEHAAAAAACwDYIOAAAAAABgGwQdAAAAAADANgg6AAAAAACAbRB0AAAAAAAA2yDoAAAAAAAAtkHQAQAAAAAAbIOgAwAAAAAA2AZBBwAAAAAAsA2CDgAAAAAAYBsEHQAAAAAAwDYIOgAAAAAAgG0QdAAAAAAAANsg6AAAAAAAALZB0AEAAAAAAGyDoAMAAAAAANgGQQcAAAAAALCNKP+/i0/5fGsT/asAAAAAANxORcd92nrUp9MfSFeuWTtvocGDpNGflTK/HKU5EwLVZvR/UUuqpXVjomjRAQAAAADoF351Thr3PZ+WvHND7569PSGHybyueX3zPsz7Me8LAwdBBwAAAADgtjPDhCmv31DtBZ88v+sfrSjM+zDvx7wvwo6Bg6ADAAAAAHDbzd3mu20tOLpi3pd5fxgYCDoAAAAAALeVOSbHhcs3rK3+ybw/8z7R/xF0AAAAAABuK3Pg0f7SXaUj5v2Z94n+j6ADAAAAAHBbmbOrDAQD5T7vdAQdAAAAAIDbqr+OzRFqoNznnY6gAwAAAAAA2AZBBwAAAAAAsA2CDgAAAAAAYBsEHQAAAAAAwDYIOgAAAAAAgG0QdAAAAAAAANsg6AAAAAAAALZB0AEAAAAAAGyDoAMAAAAAANgGQQcAAAAAALANgg4AAAAAgO38P9+8Sw1rovSX1jbuHAQdAAAAAADb+IIzSj9fcZd+8EXpM9R470i8dgAAAACADURpz5q79M+uKH1piPSfv7N2445D0AEAAAAAsIURg6R/O+3Tc+tuaL/H2ok7DkEHAAAAAMAGfPrid27oi5t8+seL1i7ckQg6AAAAAACAbRB0AAAAAAAA2yDoAAAAAAAAtkHQAQAAAAAAbIOgAwAAAAAA2AZBBwAAAAAAsA2CDgAAAAAAYBsEHQAAAAAAwDYIOgAAAAAAgG0QdAAAAAAAbGfhmhuKXuzT31rbuHMQdAAAAAAAANsg6AAAAAAAALZB0AEAAAAAAGyDoAMAAAAAANgGQQcAAAAAALANgg4AAAAAAGAbBB0AAAAAAMA2CDoAAAAAALfV4EHWSj83UO7zTkfQAQAAAAC4rUZ/1lrp5wbKfd7pCDoAAAAAALdV5pejFP17PmurfzLvz7xP9H8EHQAAAACA22rOhCjdP6R/V0/N+zPvE/0fQQcAAAAA4LbbNjeq346BYd6XeX8YGAg6AAAAAAC33edHSgdeukvx9/efbizmfZj3Y96XeX8YGAg6AAAAAAD9ghkmVP5VlNY+fZcefeD2zXJiXte8vnkf5v0QcgwsgbY3i0/5fGsT/asAAAAAAAADTdSSamndmChadAAAAAAAANsg6AAAAAAAALZB0AEAAAAAAGyDoAMAAAAAANgGQQcAAAAAALANgg4AAAAAAGAbBB0AAAAAAMA2CDoAAAAAAIBtEHQAAAAAAADbIOgAAAAAAAC2QdABAAAAAABsg6ADAAAAAADYBkEHAAAAAACwDYIOAAAAAABgGwQdAAAAAADANgg6AAAAAACAbRB0AAAAAAAA2yDoAAAAAAAAtkHQAQAAAAAAbIOgAwAAAAAA2AZBBwAAAAAAsA2CDgAAAAAAYBsEHQAAAAAAwDYIOgAAAAAAgG0QdAAAAAAAANsg6AAAAAAAALZB0AEAAAAAAGyDoAMAAAAAANgGQQcAAAAAALANgg4AAAAAAGAbBB0AAAAAAMA2CDoAAAAAAIBtEHQAAAAAAADbIOgAAAAAAAC2QdABAAAAAABsg6ADAAAAAADYBkEHAAAAAACwDYIOAAAAAABgGwQdAAAAAADANgg6AAAAAACAbRB0AAAAAAAA2yDoAAAAAAAAtkHQAQAAAAAAbIOgAwAAAAAA2AZBBwAAAAAAsA2CDgAAAAAAYBsEHQAAAAAAwDai/P8uPuXzrU30rwIAAAAAgP7nv69IVY0+1XwgvXdO+vUFn85/JH30O+nK/0if3JBuGMtdd0n3GMvgT0mf+T1pxGekh+6P0iMjpYTPSkkxUfqDwdZJbSRqSbW0bkwUQQcAAAAAAP3Q7/5H+nmNtPfUDR0+I33g8enTg6LkNfZf/cQ6SD5jCVTtw2v9/N57JMenpI+v+fTZ6Cg99rD0xJi79NUE6feM/QMdQQcAAAAAAP1Q6Umfth+VDtf6NMQhfXTF2BnVVaDRXcb5fFH6zGDpsld6LD5Kz35Zco3tzWvcWgQdAAAAAAD0E/9+0af/95+lbcd8/m4nZncUf65h5ht9zbqO2c3F7P4yd2KU/p+vSA8OG1ihR3PQwWCkAAAAAADcJqc/8Ol/b7uh8WtuaNM/+/Sx1xcIOUy3IuQwWdcxr2te37wP837M+zLvb6Ah6AAAAAAA4Ba7cFn6VrFPzvU+/fSk9Mn1KGMxP7ndrSgC92Hej3lf5v2Z92ne70BB0AEAAAAAwC305mGfRq+8oX9416drLYOK9k/m/Zn3ad6ved8DAUEHAAAAAAC3gNkNJGW9T2v2BgIEfwuO/p4dGPdn3qd5v+Z9m/ff37uzEHQAAAAAANDHth716ct5PlX+xhyDY+CNe2Ey79u8f/M5zOfprwg6AAAAAADoQ+YYF8t3+XTjhrVjgDOfw3we87n6I4IOAAAAAAD6wKUrPk3+oU/v/H+S56q10ybM5zGfy3w+8zn7E4IOAAAAAAB62b9flJzfD3T1+O3VgdlVpSvmc1X+5ob/Oc3n7S8IOgAAAAAA6EX/9p8+ffVH13X2v6Qb9sw4WtzwRfmf03xe87n7A4IOAAAAAAB6idmy4c/fuKELv42SjP/dEYznNJ/XfO7+0LKDoAMAAAAAgF5gjlXx1MYbarocdcdkHM3M5zWf23z+2z1mB0EHAAAAAAC9wFUgNVwyKvl3WsrRzHjuhkuBcridCDoAAAAAALhJ5lSr//c/A2NW3MnMMUnMcridU88SdAAAAAAAcBO2HvVp9/9n39lVusssB7M8zHK5HQg6AAAAAADoodMf+PTtf/TJc9XaAT+zPMxyMcvnViPoAAAAAACgh75VLN24YW2gDbNczPK51Qg6AAAAAADogTcP+1TXZG0gLLN8zHK6lQg6AAAAAADopguXpeW7ffrod4zL0RmzfMxyMsvrViHoAAAAAACgm1bu8flnGEHXzHIyy+tWIegAAAAAAKAbzAE2Syp9+qQfjs3xR/cFlv7ELCezvG7VwKSBCX4Xn/L51ib6VwEAAAAAQMf+97Yb+ulJa+M2mZ0cpT8dJX3loUC1Ply48ZsPpbMfBsKF4n+V/vnXPv++2+VrY6X/M7fv2ltELamW1o2JIugAAAAAACBC/37Rp/FrbuiT64Hq9K20ZFqUP+C4mRYb/1zr07/8Wtrxr7c+9Ljnbp9OLL1LDw7rm7JrDjrougIAAAAAQIT+3382/721IcebGVHy5N+lJU/cXMhh+kp8lP88p1bc5T/vre3mEmWVX98i6AAAAAAAIELbjvn0yfVbM9aE2YLDDDjMVhx9wTyvGXiY17kVgYdZbmb59TWCDgAAAAAAIlB60qd7/LXovm3RYYYOP/vLQMuLW8G8zpuzb0XYEeUvP7Mc+xJBBwAAAAAAEdh+VProd9ZGHzG7lpitLMz/3krN1+2r1iPNzPIzy7EvEXQAAAAAANCF3/2PdLjW16eNOcywwWzJcTuZ43b0adhhnNosR7M8+wpBBwAAAAAAXfh5jTTEYaz0Ua+L/hByNOvTQUqN8jPL0SzPvkLQAQAAAABAF/aeuqGPrlgbvax5TI7+xOzG0ldhh1mOZnn2FYIOAAAAAAC6cPiM8U9U3zTnMAcC7Y/67L6McvSXZx8h6AAAAAAAoBP/fUX6wGOGHL1f8Tendr3VA49Gyrwv8/56X5S/PM1y7QsEHQAAAAAAdKKq0adPD+r9Cr/ZNeRWTSHbU+b99UUXFrM8zXLtCwQdAAAAAAB0ouYDydsHs4TM/lL/Djma9cV9muVplmtfIOgAAAAAAKAT752Trn5ibfSiPp3GtRf96UPWSi8yy9Ms175A0IH/f3t3AxbVde4L/D/opIgxECMYgRvwClqEIn6LpKjFy9FMtObwhEO1JkbjR4jWaKM0llvCCTU15mpSjfEjUltLLjGH6qOZhktCJRNR/EYCciokQipjZSwZQp3aTJW71sxGhmEYBp1RIP/f84zM3mxm1l4z7r3Wu9+1NhERERERETlRVe/+IRZyOIin7mribnKuDk+U1RP1KjHQQUREREREROTEXxvlv+7tlPeUYSst3F/eZqVe3c9a0p+VNzekBVmeEhEREREREVGr6FcHoPG6ezv6b89V9ZihK1LO8WY89657gz2+3s0oe6lJWbpzAzfUAb+KUt0KdOh/8pDlKRERERERERG1itroD/MN9wYltCu6721lHfm0uhmaLe4NdKj7NKN8jUFZunOBv/5b20BH86uRlqdERERERERE1Mpv1U3cvKksuEl5hlePmaND+rIBiMp0byV4eQHGze6bUUP1UoUl0ME5OoiIiIiIiIiccHeQQ+pJQQ7JE+X1RL1KDHQQEREREREROSEzD9xNZkj0JJ4oryfqVWKgg4iIiIiIiMiJvh7oOdc2eObWqp7iifJ6ol4lBjqIiIiIiIiInPBRK0/c6Mu/KU96CE+U1xP1KjHQQUREREREROSEbz/5r3szGjh0pVmpV/djoIOIiIiIiIjIiYd95b/uvRXskWrlSQ+Rc8LdQ1dUSr26HwMdRERERERERE6EB7g3yCF9Wt3cY7I6ZDk9UVZP1KvEQAcRERERERGRE98LArz7KgtulHO8Z0xI6olyyvqU9eoJDHQQERERERERORExBPiOBybOfDW/+2d1yPLJcrqbrE9Zr57AQAcRERERERGREzHBKlz7xjPZF909q8NT5ZP1KevVExjoICIiIiIiInLCzwcY8oDslLu/09+dszo8lc0h61HWp6xXT2Cgg4iIiIiIiKgTU4aLf5o9k4Hw2Jab3TLYIcvlEaIeLfXpIQx0EBEREREREXViZpQXfD2UgdCSOdGdgh2aLZ4rj6xHWZ+ewkAHERERERERUSemRwBN/xRPPJPUYZkL49Oq7jFfhwxyyNvfeoSoP1mPsj49hYEOIiIiIiIiok70UwNTwkQvvXvEIjzGo0EOSby0rEdZn57CQAcRERERERGRC56aDPj2UxY84JGHlCf3gAxuRGXe9GyQQ5D1J+vRkxjoICIiIiIiInJB0mgV/mWZn9P9wYBHBgLflxkj98CrHzZ7dE6OVs2W+pP16EkMdBARERERERG5aEGsCn373JuAhLvJeUFkFodnbiHbnqw3WX+exkAHERERERERkYuWfF/+6/7AwLwJdy94IjM4ZIDjuXfv9p1empX68ywGOoiIiIiIiIhcNHSQCrOi3R+UmDfR9deUgQoZpJA/5Zwa8tFRwEKul5kbcnsZ3HhgpTWD4+4GOKxkvcn68zTrO/ysvLn51UjLUyIiIiIiIiLq2PnLzYj/P8345l9iwQ3JHXJ+jvIM53kIMlhx5HPrT2fka0n3IpDRIRVwX19A91MVRg7xXKBD9VIF8KsoFTM6iIiIiIiIiLpAdtaTx6jQ10096o6GrdhmYsifnQU5JBng6FZBDkHWk6wvTwY5bDGjg4iIiIiIiKiL6puAkS/ftGZ13KGXZqgsmRiWIMVXwKdV92ZoiafIbI7zL3shYICywkOY0UFERERERER0m2Sn/ZXZKvj2u/MsBTlnhmXODfFTZm30piCHrB9ZT54OcthioIOIiIiIiIjoNjw3RYVh/soCOSTrR9bT3cRABxEREREREdFt2jZXdKzZs3ZI1ousn7uNHwcRERERERHRbZITbG5+UoUHvJUVZCHrQ9bL3ZqA1BYDHUREREQ2jLpNmDt/E4p68vjoC7k9fx+IiHqQZyarMHuUCvd73/1OfXck60HWh6yXe8H6rp6868oNE6qKfoffH74Ms5cZ5j4R0CxKwdRgtbKBEzcMKH1/L/aVN4oF8bcDY7Fg0SxE+lp/3Rnj+TxsrhyFzKQwZY1rTLUl2H/gIIq/UMPP24B6+CNSsxyr4lsHX1XlLkZxxDYsGOVsP6qR87oemhfj4aessScbU6llk/HO8knwUda11Yii11/EPmMg/GRY6qYRdVeAoKhYPJ6UhMkO6tFYno/f7/8Q5//uB7/rBhgHhGBqygokRynv0KDDa9nAEiflsmxTEIi1KY7rznhBB+2HhSj9wgi1rx+MV43wC4lAnOZH0ES1/YCMx7PxmrZWWRIa9ahDIIJsNgvVrMaSiS5+sET0rWXSl+FIwScoOlsNszj2qBuNMAdGYHz8TDw+IQQ+fZQNXWSsLsSBvEIcKdfDBHHMD4lGYspTmGN3HLO40YiKQ7/DnoLTqGsCfALHYtqcJCTHBoq/tCGOu6X5udh3uAw1DWZgQCBGTpiBHyfHI9Txgb7VxUN44Rd5qNek490Ojr8W18uwZ8UmFIxa1uH5o64gC2v2+mDJm6sxVbmffk9VlbsAGVploUPRbttXy7l5lzhPdtO6MxsqcVj7sfh/oHzHLOT3NxbPrFmI8fLrKwMdr+h7xedPRNST/GBTM8582Yybnd8FttfyUjVjzCNe+NPqux/kaLnriocDHWbROMnC/sHLsXaaEiQwVSInMw/+K9ORGGhd5dANA4re3Iq6GWmYN1Jpwl0Rne/MWiRumo8YJ2lBsgFQ8IePYfAyo2DAbOeNRTtm0TDI+MAfSxYnILRlVtgbZtQ3mhEwsLUpaWl0FYpG1XrRgOhw8pnOAh0GFLy6F6WihTxhYUcNERno2A3Y/d50UYffb8+H3+JMJIe1NrHrRePsjdrpeCElGgEtq82NqDf5IMBXWXEngQ7xuZzM3or9feLxzKx4hPvbNO+b9CgtyMbOy/F4+bl4BHTQ4ZANyJ1YhLXxDGwQkYtuNKL0vS3Yfz0WP9aIY89gm2OPOMbVfabDb96rwYQVy5DoSiBdqs7D05mFCH10Nv4tLgS+4nhbU3gQOacMiFm8XhyjbA7ulnPSOuysDIFm/mzEiONx3Yk85BzWI7LNto04umkldtRGIzFputhODXPDOezfm4+qgTOQmZmC8I7OX/I9Nq/BznPieWeBDsEayGhE8n9uxJyhysoWTaexdfUWVCekY6N4HRdrpNsyXarERaOyIDSW5WLrh4MwL206QpV1sqPvPyKs9dx3B7ptoENePNJuQtb71TAPCMPkRyMwfOhIBJhrccFgRP15I8Y8vwyTZZk9Fei4chp7ck9i+HzlfYiIqI2vTM2I39iM2r+JhW9jckczEPIQoFujwoM+9y7Q4dmhKxfzsfN6Ela1BDkknwjMWzYKHxVWouUahCOmE7k4HLW0NcghDY7H8vlG7C82KCvaqzqYhR0nzIiZvwILpjiLpDhSC+3bBjxuG+SQ+qjbBDlaaGaFQ/tbHepvKCu6qrYEHwXPxII4NQ6f7XifHPEZGo8ly2JxtKAMJmUdTKexb384lsy1CXJIat/WIMcdMaN0bwYOhyxF5sKEtkEOaUAgYpLS8XL0Kazbcbq1XEREd+KGAUff3oITw5Rjj22QQxLHuKAxs5CeMROmnE04cNHZ2cWGdyiWvr4NmUtnYHJUBCKjJkGzMh3LJ8pjXSGqbI7t8py086w/ktPTMS8+WmwbjcSF6ViVALFtHk42KRsKvnHpeHvTamW7CMTEpyBzXRIC9PnYf0JmKDpmOpWH3xgCEaQsdyYofjYSvQ3Yl6eDTQzAouZwHo5ej8acxJ4f5JB8guXn0/oYGSwD5f4YbrMuMso9QY7uy4yq97OQ8X4tIudn4p0t4rs6NwmJsfI7NgPJSSlY/r/vQvChsQoFp0z4RlkkIqK2ZOf+4PNe8B/QLPv83ypyf+V+y/2/F0EOWx4NdNR8dg5xU6LbN7KGRiPuzClUdNgWNaHiLPBvse0DFT6jJsP/kzLUKcv2wmeLE78mGkGO8ng7Zca1q/7iw1EWO/PdWVgz4RTekFdWlFVdUXP2GCJHi4ZZ1Hj4fVCCGmW9yx4Jw/hjVa11cf0aTEG+8Oti6rarzBfykGNahOWJdmnadgLiV2C5Tx72X7idWiEiaqtetxdHopdiyURr0Nx8pQwH3sxA6uIFmDt/MVJf2Y6jV8QvfMIwZ+VsXPv9QVS5cvgJHovJg5Xnt/hgZHS0OJ7qUXcrJtGIE8WngYmzkRiirLJQI2babARcL8Hx8y2hXV9ETgxrP4RmaATGix+l+g6C2k2nkf3O50h8OgUxyqpOeUdj6ixxnjx3CFrb422DDvve1yMgKYlDFnoReQ5+S6tH+PxMrBVfxK4O0yIiortn6CDgjz/xQsD9ouv/bYl2iP2U+yv3W+7/vebBQIcBNRUhCA1WFtsIROioatR3lMRwoxYX/joSIY4CDj5DMBx6GDzSh/aFf1g1LuqVRRcExM1Hon4v9nW1U3+jGsUF0YiLUAMDojFxmA6lF5XfueqfJnw11L91bPYAfwR8UYua68qyW5lRcfQ04maO7WAuEVui8T85GoeP314AiIjoFnMl/lgyCvPilCDHhVyse3ELTgyIx5J1G7FtQxqWTPHD31syKrwj8MR0PX6v61qWnK1vbliPXPe1dCRN1Sg/B4yMHNb++BccZglgnLzUyYlDeU21oyixHLKyazuqpy1Esm0WowtCpyVhsrcB2oPHlKwOcazW7kUpxiI5oSUqU42c+Qvwmq4R5ks67HllJZ4Wy0+v3IQD55VoTkMlDry5Ds+K9XMXr8RruWV22YpyGKX4XW61eGqzbWoW9uj01mO9qRZFe7KUAFQqMnYU2pyPlL9fdchhUN90fLv4mywUyIDVHZLzbOXcCoTJ/czA5twS1Dk6N8p5V7TbkbFysbLtJuScMXScraBsn5WWatle7ueaDduhbalHZ2oPYY34m4wCu+9KQwleE2Vdc9BmLqt2TDhZkI/6QUl4JqGr2aqAsfwQNitlfnqlzWdmS3x+R3O3YJ1SF3NT12HzgUoYb30PrN+jua/ki+dl2LnSWr9zX2+fUURERMCIwSp8vKqPZRiHnLOiN/NSWYeryP2V+90deDDQ0Yi6ej/4Obz0r0Z/71oY/q4s2ms0oO5hPzyoLLbVH/c9YIDRJk3Yffwx7Udh+OjNbOvVQVf08cfU1CSY39iCo12Y2dxceQylibEItzSkfRAzfhj2HxcNyC4wV52HflxYa5qzOgKPpRiwdeMhVLl93EgtLhSPRfgjymJngsMRU6VHvbJIRHQ7zOdPoT5uHILksdJcjX1v58NnfibWL0xAzFB/+AWGWYaGJNpMZ+EzbgqGnhUdNGW5a0yorqgEwkYhrGUaIaMRsmsaPNDBrEZ9BiFopChak8l5YPfLapwU575pI9qkhFjUF+/Fb64k4Pl/j3CaLefQgLF43DarQ6/DvgIzgp6cjcl2Fwu+ufQhtu6uRqBmGdauWojEQZXY9+oGHDhTgq3puaiPSsGqtDQsn+EvOvObsPGAg2B10ynkvHEQmDBfbLsM80aYULArAzuOleFA5gYc8ZuO51emYe2CcTAd2YuMbSXK5+CLCXFjgauOgvomlJ4sASZOx6PtMmy6pv7IFvwkfTsOX49A8nNp+LnYn6WJQ2Ao3I41Gbmosg12WOZdeRG/PHAZ/omLLNuuTRmJr/6QgY3ay8pGNq6L71+GdXu/+Kcs2/98lczAKUPOqy/itc6CayEzsGROIKreP2gz1MmM0oO7UTowCc9r2n83bhHf/QvHxWl+YgRCu5TJYUZdwSas04rqnb9ClHkZNINqLZ9ZzjnbT7cRRdvE51iuRlzKasu+LU/wQWneBrG/Ld+DQEyV+zxXfI4IgSbVWr8/nxMhWmZEROSIzGyQc1XIiTl7691Y5H6NeURl2c/ukMnRwrNzdMhhFMpTe/6B0cqzDgz07SBzwBdBDrNE3EM9PAXrV4ShfMtKZB2oRL3TlqvCOxrzXgjEB3tcna9DNOp0ZYgb1dqo8RkzGdMKjzkZzmNDTo5anocNB3zwTNs8agTEr8brScB7L2Vgp64Wpo7K8+c8vPaLDKzr6LEpDxXKphamRtQPEZ0KVxtYPr548KJB7CkR0e271mhA0MNKxKH2HAquJuCJaZ1c0VaHIFRm/imLXVGv244dxwOh+VE8ApR1+LvBkoWg7ucoDHGf+IX4cdWIa9YV7YkOcs72PHw1ej4ek1l8NmSGysZdV5G4KKnjSUo7cSuro6AQ2gOiM+89CcnT2neazx82Y1raQiSOiUDkmHjMW7MCid567Nu8G/cvTceSBOucIpOT0rAqHqjLP4Ua+3OIrhr+i9MwJ1bOiTEJmuXLsSDMjKPbNuFsQjrS50yyvEZMwkK8MDcE5rNHUapcBPAZN90yp0jRObvMhYZTOCI68ZPHR3dw3ndRgw57dpzGg5p0vJ2WgqlyP+X+aJZh/fqFiNHn46381vc2Fu+1zLuiWSOHvFrLHRk7A8sz0xDX7ttjRtWBHThwJQJL1me2bi/rMe1N/HymH0p35eKo04swaoRrFkIzsAQ5WmvwQA5H2VPoj+TUWc4DGE1Gy4WDyECbOc9cUokC/Ti8/OKsW/PQJFs+dzMKim3m+BL6T0jD25nLoLF8trbfg3NKFo4PguRrDJNlEG2xEdbtIsP8ux6gIyL6FpFzVci7j8wZBTxwm+f67kruj9wvuX/3ek4Oe54NdPRQ6uB4LMl8FT8eeAxvrMxSbm/rnAyQLAkTjahCF8a9NJXhSFU8YmyzI9Ty9og6nDzvKNJRiX2blADEysV4dt0m7KsdieXpjhvGfiNnIX3TasQ15OIn67JRVOsg3DAiCWv/MxPrO3qsTkKb+/CYzQxaENFdZzS2Xlk36mtF51CN/p7oVcm7WRzMwppdVxG3fBXmDXfTm1wpwc6MLBTcn4TMVLu7URl02LyxEP6L7/D9WrI6juci55gZQbNmYryDoZ/qhNi2dyzzDkHoCPFz0GxMjbJ9f7VYbz9PiWJUPCbYxpn6BGKofA2MbTevVtCwCPFvGequWpfleW6qxh/1n5S1CaDUn9Wh1DsB08bcUZgDdacKLUN2ntA4mIDVPxaJCeK9tKdQZVlhQKno6Mt5V56wr/s+IZg8Q5bdhrkSxVoDAjRJDu60pkbk1BkIxWkcOddJe8E7DMlPzwC0uTh8qRba3flQP7kUc5wkc9ypxBl23zvvCMTEiZ+mazZDdHxFGyTCbt6Plu9BLeq6kLFKRESObZurwis/VMGrl/TA5X7I/ZH71R15tpq/Nnd4hcugFw0MZ653lAbciLpLytMuq4bWPnNBPLSORoz08UFo/EKsf30+/Ip+0XlKqhCqWYVp5TuQ08l8HfUnPkbttGi7qzdqDB8dj8OfOrpbSQSSVysBiDd34Z0NaViuiXCeXdHHF5Fz0vBO2jjU7drQaZk65TsIQRcNNmN1O9F4FXWjAtHVa09ERLb8/IYA/1KeD5IdaXFe6fRwJjpw17oQODCJc8PrLyIjX43kjPRbk57e4qVu33G+RbzX1+JHoH+7DMb6Y9lYl74bNSOWYeO6WQi1DTLILI/Xs2FIkFfN7/xIac3qEE+8EzDPLtOvRftsACVDsiuTWAcHtttPa4amaxN5h44Sne6rB1H8ubICepR+Uo0ATTwiu/CROWJqqBX7L847DsuhRmBIhKXTbrDEIkRb4rxYO2SQwyyS+/rYFUbJqAgc1EGe6uBAy8WBiiudtxXUI5OwIKEWOZlZ2IdOhqzY0Ru7OiArGkEPK09vkcOHxY9zdllPN0yoK9dBm5eLrRtE+ygtFam7OmmrERFRlzwzWYWja61DPXz79cyhLLLcsvxyP+T+dFceDHSIE2lTRx1jE4wNEQhyPAmHaKj0h89lI75SFtsywlgnGjItY6e7JAwa+8wF8dDYjO1uxycEiUtXIGh/Hk52ltIg5+tYMBN1u/NQ0eGEoAaUHtFDfUo0gO0CLhn7qtH/3EmUunP+kYHRmLc6AXVv53f9ri5tBGJ47GlUuRhkMv+lCobhIR0OXSIicoVfSDguXFCGG4SGY6p3IQqOdNKZbKhGqfi7UGXRqSs6bH4xC0UDU7BxU5o4Hzjo9g70t3Ri6/7q4Gr9jUYYLoqiDbI5KYkOY0VeBtZk6xGz6nWsXzip7RV1wXjiILR68ZraLMvEoNaJLeUjC1q5gVgvl+UEoi4ZEIYomVkxIqRtQKW7GToJj4WZUXBcucX8xdP448UwPBbrppSG++9zEpSSfNpMCPugw9lhO+bTyfauvl7/Af4wXxc1IBozLuWxDAzB8EEy+6XaM3NfGUqweUUq1mzLx4UmNQLGzcS8+Suwao5dZgsREd2xkUNUKPqpCutmAvf1BfrKNkJ3j3mI8slyyvLKcsvyy/3ozjwY6JB3VumgY3xDjwu1IxHa0UUseWeVf5yHoxEXaKjFhfBwDHX16pM7qP0RFGTCNVfuZjJwElY9DezZ1sF8HRdL8EckYY2DgIt8rNV8if93ovMrQl0yMBBBV691kCHjKh/ExEXjg8NlLrxOI4rzK9vMQUJEdFtCJiGu8kPr5I0+YzHn6bG4kL0OGe/qUKFvhKlBjwpdLopuZeaZUVWQLzpqLkzs2XQaW9OzoY9Px/rF8QjqKECgdDJLv5BDZ+xcsk4yGhnaOmyjRpuFX+b74pn16Uge6Tgq3z9itnUix3aPFMtdXDAxxbL8RMSdDefofvzxaOJYmHWnIBMNa86Jc2VYLGLucBJSyUd8TrhaA73DiwVm6GsrgUFB8LdUqRr9ZeDg0lWHwzKvXbcLMA3ws8zZUn25g/PzFfE9FD/CBneenSPn5dh5AEhetQyT/5yNPS7dISgE42eGiQLk4o9tJhF1j6rC3ThpTsDaTeuxakESkhOsc5CE8PbEREQe89wUFc6/7IWUcSpLAKE7k+WT5ZTlleXuCTya0RE5LhrFx9rP2m4uP4YK0Wnu+GpbIGKmXMXhU+2vZNWdOibauhGuXQFxG5ma7GNN9XSBTEtdEliIPcXt5+uQjbqQxNjWSe7shMbOAD4pQ52y7BZmE8yD+nfe6O+EOmoGftyQix3HnDfK6g/vRkHwQnQhG5eIqAP+mPakP/bvsgaPAx5dgV9nLcJwQz42p63Es/JWmWcBP6VDJjuRv2kQHbU2c044VlOYi6NDUvDCkw7mdGhDdDKnBwKFH6O4zeHPjNLDB1EfOBtxw5RVTSXY/74eU59b4WAuh1Zq/zDrRI7tHmHW88Mg6+/D/e/0yN39+ESNx/jrck6qMsu8F+OdnBO7ImhUPMJxGvuViT7bMBxDQSEQ/vgkpe0RgsiJom6PfYgj9qdqUxk+et9uwlQ5j1aiGvXaPBS1OwWaUVGUjxpX5hm5Xo19u/OBOeIcOWYSkudGozR7r4PXbC8oPgWaQDMKtmYh54yLmT4uaYRBL2psSCD8bds5N/Qo1VUqC/YqUc95O4iI7ljAAOvcHbqfqvDEaJk10WzN8MC9vh2ttRyyPLJcsnyynLK8PYVH5+hQR8yARr+37QlZpgm/r257txDTaexMzYDWJvsjIC4FQQWiw2yT1mE6n4u3ymORPK61IWE6lY1n0/PdExhoLIO2sLrtnVbMBlTk7UXxxJkY73J0RY3wJ5cipngvCpQ1FuZKFBVEI9Gm/O0MHodpD+TjZLvb77mgWocDZ/Rt77TSVIuiPQfxzbwE19K4nbHcSncpgj/OQEZeGersrpqZDdUoyM7CW5enY22nHQciIteow5LwQlw13nq7EDXilOATMgnzVq7HO3v34N2927BxZQpiBgLGM3uR8YE/nl841oVguAE1laJ3+ZB4VlmJinIHj0ut55+gBNExDSzDzowNyNGVid+XQLstC5sL/aFZNKN1zqW/1OAkAnGfqbr961kedueYb6MBY5GYCBx+N1fUVYLzc2JXDE7A84ujUa/NwnMbclF0xlrnR7XbsW5dNipGL8TzNtGn8MRFiPGuxp6MDOwslJ9ppejY5yLrpY+hnmY/ZEONyCfToBkovgPrMrBVW2L9PM/okLNhJX75oRqaNSmdzDNiRsUfdkD7zQwsUCZMDYhPwYIw8Zq/deGubd5hmLduNTSD9dBuXolnM7cjR6tDqaXc+dgn59Z4ZXuXbnVv5YuwUWHARdHGyi60vF7FmULxXd+BC/4Ohq4MCcV4sS/ag4cs2xYVnr7NWzkTEVELOQzktwu8cHqdF5Z+X4X+35FzeCi/vFsJFMr7yPeV7y/LIcsjy9Xdh6k4Ym2aPZr68svT3XE9xY5Xf4ROiILpo2349f8tRNEnRdBd/h/4j+WzEd7ywUnmyzhd8BcM+cGjCL1fWdd3IKIn+eO/330Tu/brLH9b1jwFyxZOaDPW2aw/iw//MhiJ3w9pfx/3v5Uj73IgkqJczL1Ue8NcU4gDe7Kx/b8+FY2jXBw4YcCDUxfhObub+zeUH0DdkDmIFo1kh7wGYNh3/VD1GTA2NgTyIom5Mh9v94vFs6OclccbAao/Y/fnD2OG+Hvgn6g5ehYYHYtQ2zpzxEeNhhMH8e7vsrH7g2J89Ic8FH1+E8N/uAhJI20akv+oRbF4ybGTreVySG7z+QDE2dddXz9899FpGP7Pcux/by/2/PZ9FJ0oQI6or8qvvDBi+lN4Kj4Y3k5CaNdrj+E0xiAuxMUUGSL61usfPBoTB1/C/m07UPhXNfr398EDfVUwG/W48FkJ9mVnQ9dvJlY9Jc4R9yl/5NRlFO/UoUpfjuLiYnzq6OE9uvX8Ic9JcaPxkPEs8j/Q4qNPzqPh4XH48YpUaIa29m6NlQXQnqnG56cdvJ7lYcQjP3B2PG/AZ+KcVzU83vVzl4U8V+SLY+toaNod262v2TR2ZrvjrjyXFX3d/m/kcVp7RpwnZraUVXn9B9qXy7rtAEz79ygZN2olz8G6agyfYn+u7IOAB1T45OAJ4IcL8FRk12dz6ug9+4fEYlr0AJgqS/DBwXz8SdR5ecNgTPjRMryYNKrtpKv9ghE3ZQS8G/6MwoNase1Z1HiF4LFnFyDuxim7/Rfkd+D7cRjm9QVKCvNx6GMdPi39Avifj+O5ny5FQrDti7dnPvcu0n73Z0xPXYPElm1FW+GR4Bs4+d57qBoYh7ih7VoybXkPRvSU6Rgb6IWv6/4bJX8S7SOxj8VnyvHl12bcHPRdxE0cgYfkV9JS/01t90Fh+dyrwm7VX/+QUfhun7/izKf5yP9TMU5f9UHcU88joZ/4vtvXw3eCMSyoCVWHtTj0pxP4/KFYzIwZzIsbRERuIG/ROj1ChRf/lwoh4gD9tUmFL7+y3sb1n/JCiUpmergz6CBer1kFX9FVNN8ApoarkDZThd1PeVnK0d1uGeuKzEIDcGRbprXkPytvbn61zc1EiYiIup8bZhivVKP07HnUW+ZN6o+AoREY+b0QBLCn1XNcPIQXfqHD1KyNHr21KhERUU/3DzPwcSXwYflNfHIBuPx1M/rfp7IEPq4rd6azDnVxFpRo/b13X+A7os107ZtmDHlAhSnDgZlRMrAB9OsFbSnVSxXAr6JUDHQQERHRXWRGxd5U/PKLFLyRkeCW+TmIiIi+LYwmoPRSMyovA5/VAVX1zZA3hmv8B2AyA/+6CdwUDy8voK94+Kitw1Ee9gXCA1T4XhAQMQSICVbBz02jR7sTBjqIiIjo7msqwebU3VAvfxPLJ/bCFhYRERHdMy2BDo9ORkpEREQkVR3LR6mc5HLDbpSOnt9mYnEiIiIid2Kgg4iIiDxPn4fXNueidGASMlPj20wsTkREROROHLpCRERERERERD0eh64QERERERERUa/DQAcRERERERER9RoMdBARERERERFRr8FABxERERERERH1Ggx0EBEREREREVGvwUAHEREREREREfUaDHQQERERERERUa/BQAcRERERERER9RoMdBARERERERFRr8FABxERERERERH1Ggx0EBEREREREVGvwUAHEREREREREfUaDHQQERERERERUa/BQAcRERERERER9RoMdBARERERERFRr6Gy/Puz8mbLTyIiIiIiIiKinupXUdY4BxERERERERFRzwf8f3q7JLIIcTGlAAAAAElFTkSuQmCC;" vertex="1" parent="1">
          <mxGeometry x="281" y="480" width="1082" height="1154" as="geometry" />
        </mxCell>
        <mxCell id="y7U62MiWPypBWkuoLCns-2" value="" style="rounded=0;whiteSpace=wrap;html=1;fillColor=#dae8fc;strokeColor=#6c8ebf;opacity=30;" parent="1" vertex="1">
          <mxGeometry x="387" y="1128" width="870" height="302" as="geometry" />
        </mxCell>
        <mxCell id="y7U62MiWPypBWkuoLCns-4" value="1" style="whiteSpace=wrap;html=1;aspect=fixed;fillColor=#dae8fc;strokeColor=#6c8ebf;" parent="1" vertex="1">
          <mxGeometry x="380" y="1120" width="20" height="20" as="geometry" />
        </mxCell>
        <mxCell id="y7U62MiWPypBWkuoLCns-5" value="" style="rounded=0;whiteSpace=wrap;html=1;fillColor=#fff2cc;strokeColor=#d6b656;opacity=30;" parent="1" vertex="1">
          <mxGeometry x="387" y="1150" width="870" height="138" as="geometry" />
        </mxCell>
        <mxCell id="y7U62MiWPypBWkuoLCns-6" value="2" style="whiteSpace=wrap;html=1;aspect=fixed;fillColor=#fff2cc;strokeColor=#d6b656;" parent="1" vertex="1">
          <mxGeometry x="394" y="1160" width="20" height="20" as="geometry" />
        </mxCell>
        <mxCell id="y7U62MiWPypBWkuoLCns-7" value="3" style="whiteSpace=wrap;html=1;aspect=fixed;fillColor=#e1d5e7;strokeColor=#9673a6;" parent="1" vertex="1">
          <mxGeometry x="380" y="1288" width="20" height="20" as="geometry" />
        </mxCell>
        <mxCell id="y7U62MiWPypBWkuoLCns-8" value="4" style="whiteSpace=wrap;html=1;aspect=fixed;fillColor=#e1d5e7;strokeColor=#9673a6;" parent="1" vertex="1">
          <mxGeometry x="480" y="1288" width="20" height="20" as="geometry" />
        </mxCell>
        <mxCell id="y7U62MiWPypBWkuoLCns-9" value="5" style="whiteSpace=wrap;html=1;aspect=fixed;fillColor=#e1d5e7;strokeColor=#9673a6;" parent="1" vertex="1">
          <mxGeometry x="404" y="1350" width="20" height="20" as="geometry" />
        </mxCell>
        <mxCell id="y7U62MiWPypBWkuoLCns-10" value="6" style="whiteSpace=wrap;html=1;aspect=fixed;fillColor=#e1d5e7;strokeColor=#9673a6;" parent="1" vertex="1">
          <mxGeometry x="404" y="1380" width="20" height="20" as="geometry" />
        </mxCell>
      </root>
    </mxGraphModel>
  </diagram>
</mxfile>
